# Object Export From Tinkercad Server 2015

mtllib obj.mtl

o obj_0
v 97.3829 		0.2451 		-1
v 94.6032 		-3.9995 		-1
v 91.7474 		-8.18 		-1
v 99.0765 		3.6826 		-1
v 98.2993 		1.9273 		-1
v 99.8649 		8.9399 		-1
v 99.5537 		6.2879 		-1
v 99.8941 		17.2976 		-1
v 100 		13.1321 		-1
v 97.8209 		23.9366 		-1
v 98.9842 		20.6577 		-1
v 95.1637 		28.6883 		-1
v 96.5574 		26.3572 		-1
v 92.0394 		32.6313 		-1
v 93.6432 		30.703 		-1
v 88.4186 		36.0013 		-1
v 90.2715 		34.3888 		-1
v 85.0899 		37.3831 		-1
v 86.7873 		36.8042 		-1
v 80.7391 		37.2483 		-1
v 82.9192 		37.4035 		-1
v 79.396 		36.7427 		-1
v 80.0394 		37.0618 		-1
v 70.2565 		34.4848 		-1
v 72.6959 		34.1258 		-1
v 75.1328 		33.7434 		-1
v 37.407 		68.9941 		-1
v 38.8035 		65.3937 		-1
v 40.181 		61.7822 		-1
v 32.8227 		79.0031 		-1
v 35.1547 		74.0231 		-1
v 27.7711 		88.4393 		-1
v 30.3661 		83.7762 		-1
v 21.5808 		96.5611 		-1
v 24.7814 		92.6209 		-1
v 15.9161 		100.4704 		-1
v 18.833 		98.6909 		-1
v 11.5654 		100.9422 		-1
v 13.7687 		100.8233 		-1
v 4.7619 		100.9422 		-1
v 8.1623 		101 		-1
v -0.6984 		100.0659 		-1
v 2.022 		100.5767 		-1
v -4.2608 		98.6505 		-1
v -2.4793 		99.3602 		-1
v -15.2982 		96.2578 		-1
v -9.7788 		97.4558 		-1
v -24.7881 		93.2584 		-1
v -20.0936 		94.9043 		-1
v -31.504 		88.136 		-1
v -28.1965 		90.8178 		-1
v -32.2047 		87.3609 		-1
v -31.8835 		87.7758 		-1
v -33.9859 		82.0699 		-1
v -33.1939 		84.7414 		-1
v -33.4603 		78.3965 		-1
v -33.8488 		80.2212 		-1
v -31.3288 		74.4199 		-1
v -32.4641 		76.3692 		-1
v -28.8176 		71.1846 		-1
v -30.1295 		72.7327 		-1
v -23.7369 		67.9494 		-1
v -26.3294 		69.4716 		-1
v -18.043 		65.7926 		-1
v -20.9106 		66.8106 		-1
v -27.0948 		23.3974 		-1
v -25.7359 		21.3089 		-1
v -24.3793 		19.2185 		-1
v -36.0299 		36.1698 		-1
v -34.4369 		33.6776 		-1
v -32.8471 		31.1822 		-1
v -41.1398 		42.9099 		-1
v -38.5422 		39.5851 		-1
v -48.2061 		50.2566 		-1
v -44.608 		46.672 		-1
v -56.5864 		56.3227 		-1
v -52.3076 		53.511 		-1
v -65.4046 		57.637 		-1
v -60.9457 		57.2446 		-1
v -73.2885 		56.2553 		-1
v -69.3624 		57.1131 		-1
v -79.9752 		53.3571 		-1
v -76.6667 		54.9193 		-1
v -85.0559 		49.7848 		-1
v -82.5934 		51.6887 		-1
v -87.8007 		45.1679 		-1
v -86.5786 		47.5862 		-1
v -88.4431 		38.2593 		-1
v -88.2395 		41.7546 		-1
v -88.4723 		30.0701 		-1
v -88.563 		34.1542 		-1
v -86.0195 		19.5555 		-1
v -87.424 		24.7478 		-1
v -81.7856 		12.6132 		-1
v -84.0242 		16.0099 		-1
v -76.5005 		5.6372 		-1
v -79.1587 		9.1115 		-1
v -92.7948 		-54.302 		-1
v -90.3411 		-52.2265 		-1
v -85.7177 		-49.1546 		-1
v -97.0346 		-59.0654 		-1
v -95.1298 		-56.5402 		-1
v -99.6815 		-64.8949 		-1
v -98.7213 		-61.7637 		-1
v -100.4982 		-71.1396 		-1
v -100.3857 		-68.1331 		-1
v -94.6334 		-69.3464 		-1
v -94.6941 		-71.7506 		-1
v -77.9897 		-51.8221 		-1
v -82.5717 		-54.8791 		-1
v -87.1875 		-57.8882 		-1
v -73.4053 		-46.9692 		-1
v -75.568 		-49.5338 		-1
v -68.967 		-36.084 		-1
v -71.0273 		-41.6325 		-1
v -65.9886 		-23.3115 		-1
v -67.3731 		-29.7357 		-1
v -64.4995 		-12.9318 		-1
v -65.1578 		-18.1354 		-1
v -64.5287 		-4.9447 		-1
v -64.3814 		-8.9264 		-1
v -66.7478 		2.402 		-1
v -65.4723 		-1.2021 		-1
v -71.9453 		9.8835 		-1
v -69.2532 		6.2059 		-1
v -34.6015 		23.1593 		-1
v -37.4315 		26.9696 		-1
v -39.0077 		29.4473 		-1
v -27.2474 		12.6572 		-1
v -28.9344 		14.9722 		-1
v -30.3495 		17.1637 		-1
v -23.5223 		8.4502 		-1
v -25.4888 		10.4227 		-1
v -18.6147 		5.7146 		-1
v -21.4301 		6.7156 		-1
v -11.7229 		4.8349 		-1
v -15.707 		5.0306 		-1
v -3.4939 		5.7527 		-1
v -7.7355 		4.9295 		-1
v 3.7809 		8.7181 		-1
v 0.674 		6.9178 		-1
v 8.5692 		12.8194 		-1
v 6.7475 		10.8271 		-1
v 11.8551 		18.1797 		-1
v 10.2222 		15.0059 		-1
v 13.8674 		24.0757 		-1
v 13.2882 		21.4764 		-1
v 14.5293 		32.4899 		-1
v 14.2517 		26.7337 		-1
v 13.8733 		40.954 		-1
v 14.5437 		38.2256 		-1
v 9.5422 		49.6675 		-1
v 12.9086 		43.5839 		-1
v 4.4465 		57.9725 		-1
v 6.0175 		55.6487 		-1
v 1.2024 		62.175 		-1
v 2.8055 		60.232 		-1
v -2.2666 		65.6365 		-1
v -0.4648 		64.0401 		-1
v -7.1753 		68.8449 		-1
v -4.144 		67.1069 		-1
v -13.3444 		71.3726 		-1
v -10.2759 		70.4095 		-1
v -2.9176 		92.0789 		-1
v -8.5658 		90.8454 		-1
v -14.2178 		89.6188 		-1
v 36.3048 		55.5583 		-1
v 34.8958 		58.9177 		-1
v 33.4879 		62.5958 		-1
v 39.6931 		48.7396 		-1
v 37.7866 		52.245 		-1
v 46.0341 		39.4965 		-1
v 41.7285 		45.3364 		-1
v 52.7127 		31.5619 		-1
v 50.4884 		33.8108 		-1
v 57.1447 		28.5167 		-1
v 55.0727 		29.5308 		-1
v 64.4786 		27.7444 		-1
v 59.3067 		27.8121 		-1
v 76.9456 		27.0598 		-1
v 74.6656 		27.0033 		-1
v 72.1699 		27.3923 		-1
v 79.9356 		27.4261 		-1
v 79.2208 		27.2392 		-1
v 81.5689 		29.198 		-1
v 80.5931 		27.7447 		-1
v 80.8267 		-12.3926 		-1
v 83.954 		-8.221 		-1
v 87.1046 		-4.0685 		-1
v 77.0892 		-18.6945 		-1
v 78.8955 		-15.4963 		-1
v 74.4904 		-25.2324 		-1
v 75.7158 		-21.926 		-1
v 73.8188 		-29.2428 		-1
v 74.1005 		-27.221 		-1
v 73.5561 		-33.3879 		-1
v 73.6573 		-31.3124 		-1
v 73.5561 		-44.8798 		-1
v 73.517 		-39.1348 		-1
v 74.0232 		-49.7664 		-1
v 73.7446 		-47.3288 		-1
v 75.0452 		-54.5855 		-1
v 74.4691 		-52.198 		-1
v 81.4691 		-70.8629 		-1
v 78.228 		-62.735 		-1
v 64.3874 		-69.616 		-1
v 69.887 		-74.9924 		-1
v 75.3664 		-80.4001 		-1
v 59.9199 		-66.1785 		-1
v 62.1857 		-67.8421 		-1
v 56.9123 		-64.5609 		-1
v 58.4314 		-65.3354 		-1
v 54.1091 		-63.3814 		-1
v 55.5208 		-63.9357 		-1
v 46.8677 		-61.5952 		-1
v 50.4979 		-62.4369 		-1
v 43.4513 		-61.2919 		-1
v 45.1634 		-61.3991 		-1
v 30.0195 		-61.2582 		-1
v 36.7332 		-61.2099 		-1
v 24.6468 		-62.1345 		-1
v 27.3282 		-61.6359 		-1
v 22.4568 		-62.7411 		-1
v 23.5452 		-62.408 		-1
v 17.1425 		-65.0664 		-1
v 19.7753 		-63.84 		-1
v 10.5142 		-69.7171 		-1
v 13.7966 		-67.3238 		-1
v -15.6195 		-74.315 		-1
v -13.6922 		-75.4124 		-1
v -11.4287 		-77.0216 		-1
v -20.1118 		-72.1675 		-1
v -17.5758 		-73.2893 		-1
v -26.7019 		-70.5183 		-1
v -22.6857 		-71.1999 		-1
v -32.8162 		-69.8221 		-1
v -30.7448 		-69.9867 		-1
v -38.1763 		-69.6902 		-1
v -34.8911 		-69.7171 		-1
v -42.7624 		-69.8255 		-1
v -41.461 		-69.7171 		-1
v -45.4094 		-70.258 		-1
v -44.0598 		-69.9867 		-1
v -48.1906 		-71.1756 		-1
v -46.7461 		-70.5933 		-1
v -51.0156 		-72.7431 		-1
v -49.6077 		-71.8402 		-1
v -53.5995 		-74.9131 		-1
v -52.3816 		-73.7274 		-1
v -57.0244 		-77.94 		-1
v -55.9161 		-77.0283 		-1
v -54.8052 		-76.1202 		-1
v -59.6815 		-80.636 		-1
v -58.3534 		-79.2873 		-1
v -62.0175 		-82.5906 		-1
v -60.8534 		-81.608 		-1
v -74.253 		-91.2771 		-1
v -74.2229 		-92.4649 		-1
v -74.2982 		-92.6729 		-1
v -75.0464 		-89.2187 		-1
v -74.3981 		-90.1396 		-1
v -79.9498 		-88.1314 		-1
v -75.8581 		-88.5219 		-1
v -94.6626 		-74.1655 		-1
v -100.4016 		-76.464 		-1
v -100.4733 		-74.1655 		-1
v -99.7915 		-80.837 		-1
v -100.2397 		-78.7488 		-1
v -98.0801 		-84.7547 		-1
v -99.1885 		-82.8602 		-1
v -94.8688 		-88.5592 		-1
v -96.8234 		-86.5336 		-1
v -89.4701 		-92.3888 		-1
v -92.7938 		-90.4092 		-1
v -84.0288 		-94.4052 		-1
v -86.0487 		-94.1162 		-1
v -77.9806 		-98.8862 		-1
v -78.7196 		-98.1603 		-1
v -79.1839 		-97.3987 		-1
v -74.606 		-99.6455 		-1
v -77.1721 		-99.4409 		-1
v -70.2031 		-98.6853 		-1
v -72.0329 		-99.542 		-1
v -66.1601 		-95.705 		-1
v -68.4414 		-97.5874 		-1
v -61.1666 		-90.8023 		-1
v -63.9447 		-93.7118 		-1
v -54.7771 		-84.5939 		-1
v -56.0024 		-85.8596 		-1
v -57.2032 		-86.8656 		-1
v -50.2389 		-80.4275 		-1
v -51.3305 		-81.5459 		-1
v -52.441 		-82.4377 		-1
v -11.4731 		-84.7475 		-1
v -14.1466 		-83.0102 		-1
v -16.7874 		-81.1415 		-1
v -5.8959 		-85.6911 		-1
v -8.7139 		-85.3506 		-1
v -2.538 		-85.4215 		-1
v -4.2162 		-85.6125 		-1
v -0.0268 		-84.8149 		-1
v -1.2721 		-85.1652 		-1
v 5.2583 		-82.1525 		-1
v 2.6378 		-83.5431 		-1
v 8.5286 		-79.6924 		-1
v 6.9139 		-80.9628 		-1
v 73.5132 		-87.1781 		-1
v 71.6873 		-85.6574 		-1
v 66.2567 		-80.3152 		-1
v 77.2127 		-88.8491 		-1
v 75.4248 		-88.4882 		-1
v 81.2432 		-88.6365 		-1
v 79.0456 		-88.96 		-1
v 85.3787 		-86.8448 		-1
v 83.3963 		-88.0838 		-1
v 87.8706 		-84.7472 		-1
v 87.2798 		-85.4215 		-1
v 88.8059 		-81.1805 		-1
v 88.331 		-83.9724 		-1
v 88.6479 		-75.3715 		-1
v 89.061 		-78.3444 		-1
v 87.5825 		-70.5613 		-1
v 88.0682 		-72.4131 		-1
v 83.8184 		-60.6907 		-1
v 87.017 		-68.7397 		-1
v 88.5103 		-12.4516 		-1
v 65.2712 		34.4786 		-1
v -29.974 		27.2871 		-1
v -81.114 		-46.0593 		-1
v -40.585 		31.9236 		-1
v -31.7668 		19.3533 		-1
v -1.2233 		92.7707 		-1
v 32.0635 		66.2644 		-1
v 69.6725 		27.7784 		-1
v 6.6112 		-72.9243 		-1
v -9.1371 		-78.5129 		-1
v -64.761 		-85.4734 		-1
v -74.3397 		-92.8356 		-1
v -94.5894 		-76.0235 		-1
v -79.654 		-96.6437 		-1
v -58.3968 		-87.8816 		-1
v -53.5496 		-83.3321 		-1
v 60.825 		-74.9743 		-1
v 85.2943 		-16.7399 		-1
v 78.4315 		35.2658 		-1
v 60.2995 		34.5185 		-1
v 41.4897 		58.6263 		-1
v -15.1725 		64.9759 		-1
v -74.1056 		2.3844 		-1
v -94.2532 		-67.29 		-1
v -16.437 		72.2631 		-1
v 0.4696 		93.4607 		-1
v -94.4582 		-77.8726 		-1
v -82.0192 		-94.6891 		-1
v -49.1405 		-79.3217 		-1
v -19.4128 		-79.7499 		-1
v 80.6515 		-52.6309 		-1
v -12.3198 		64.1075 		-1
v -79.3756 		-44.3984 		-1
v -93.699 		-65.3023 		-1
v -74.5406 		13.2609 		-1
v 29.8982 		71.0909 		-1
v 82.5495 		30.6166 		-1
v 89.9107 		0.0325 		-1
v 76.3945 		-81.2821 		-1
v 2.6887 		-76.0864 		-1
v -84.0632 		-87.7131 		-1
v -94.2519 		-78.7999 		-1
v -80.7956 		-95.5781 		-1
v -22.0725 		-78.4455 		-1
v 10.0572 		-78.3201 		-1
v 58.882 		-73.4274 		-1
v -22.8459 		17.1137 		-1
v -92.5386 		-63.369 		-1
v -42.9678 		35.1682 		-1
v 27.6543 		75.869 		-1
v 92.6526 		4.1881 		-1
v 81.9229 		-72.2834 		-1
v -67.507 		-88.3534 		-1
v -86.8088 		-86.4214 		-1
v -93.9618 		-79.6924 		-1
v 11.5946 		-76.9627 		-1
v 56.8831 		-71.975 		-1
v -21.2549 		15.0733 		-1
v -45.4321 		38.3267 		-1
v 82.3159 		-73.7274 		-1
v -69.3824 		-90.0575 		-1
v -93.2176 		-80.9598 		-1
v 15.5115 		-73.9942 		-1
v -77.8437 		-42.5208 		-1
v 82.8017 		-76.1819 		-1
v -71.303 		-91.6898 		-1
v -92.385 		-82.1525 		-1
v 19.5077 		-71.1999 		-1
v -91.2171 		-61.5616 		-1
v -89.2541 		-59.6536 		-1
v -90.9687 		-83.5658 		-1
v -89.4651 		-84.8486 		-1
v -75.9816 		-38.102 		-1
v -74.3689 		-33.5227 		-1
v -72.9095 		-27.5878 		-1
v -73.8051 		-92.8859 		-1
v -71.6241 		-21.5928 		-1
v -73.2301 		-92.8356 		-1
v -70.8949 		-16.9371 		-1
v -72.25 		-92.3109 		-1
v -70.3102 		-12.2577 		-1
v -70.21 		-9.1827 		-1
v -70.3102 		-6.1243 		-1
v -70.9572 		-3.4923 		-1
v -48.1638 		-78.6179 		-1
v -71.8577 		-0.9681 		-1
v -47.1549 		-77.9737 		-1
v -46.2444 		-77.5245 		-1
v -45.3153 		-77.1312 		-1
v -77.1137 		16.6573 		-1
v -44.2985 		-76.87 		-1
v -79.0097 		19.5265 		-1
v -43.2714 		-76.6594 		-1
v -80.7052 		22.5211 		-1
v -42.2364 		-76.5369 		-1
v -81.8133 		26.5158 		-1
v -41.1982 		-76.4572 		-1
v -82.6324 		30.6166 		-1
v -38.22 		-76.4338 		-1
v -35.2415 		-76.4572 		-1
v -82.716 		34.1253 		-1
v -33.2399 		-76.5655 		-1
v -82.6324 		37.6527 		-1
v -31.2412 		-76.7268 		-1
v -82.4944 		40.2346 		-1
v -82.2236 		42.7751 		-1
v -7.3485 		-78.8293 		-1
v -81.7341 		43.8265 		-1
v -27.7028 		-77.1951 		-1
v -81.0848 		44.7635 		-1
v -24.1749 		-77.7378 		-1
v -79.3928 		46.0473 		-1
v -5.5164 		-78.951 		-1
v -77.6101 		47.1899 		-1
v -23.1142 		-78.0518 		-1
v -74.8335 		48.5232 		-1
v -72.0037 		49.6837 		-1
v -4.3761 		-78.885 		-1
v -68.8205 		50.4249 		-1
v -3.2388 		-78.7488 		-1
v -65.609 		50.8969 		-1
v -2.3549 		-78.5469 		-1
v -62.1097 		50.64 		-1
v -1.4868 		-78.277 		-1
v -58.6887 		49.9533 		-1
v 0.6288 		-77.2462 		-1
v -55.2136 		47.6767 		-1
v -51.8852 		45.0331 		-1
v -20.0287 		13.8447 		-1
v 22.5215 		-69.8754 		-1
v -48.6006 		41.7587 		-1
v 25.6104 		-68.7735 		-1
v 27.9055 		-68.3008 		-1
v -18.7146 		12.7817 		-1
v 30.2239 		-67.9983 		-1
v -16.7447 		12.1143 		-1
v 36.6018 		-67.9412 		-1
v -14.7142 		11.6696 		-1
v 42.9841 		-67.9983 		-1
v -11.3707 		11.5567 		-1
v 44.3596 		-68.0801 		-1
v -8.0275 		11.6696 		-1
v 45.7289 		-68.2342 		-1
v -4.5207 		12.3718 		-1
v 49.0507 		-68.9811 		-1
v -1.078 		13.3546 		-1
v 52.3572 		-69.8129 		-1
v 53.5191 		-70.2567 		-1
v 1.2256 		14.7681 		-1
v 54.6639 		-70.7618 		-1
v 3.4187 		16.4214 		-1
v 4.6474 		17.8206 		-1
v 77.4688 		-82.0514 		-1
v 5.7547 		19.3533 		-1
v 55.7854 		-71.3415 		-1
v 6.8786 		21.6534 		-1
v 7.857 		24.0377 		-1
v 8.2484 		25.9893 		-1
v 78.2604 		-82.201 		-1
v 8.4994 		27.9806 		-1
v 79.0748 		-82.2199 		-1
v 8.6977 		32.7766 		-1
v 80.4012 		-81.9725 		-1
v 81.7027 		-81.6133 		-1
v 8.7038 		37.5516 		-1
v 82.3677 		-81.1848 		-1
v 8.233 		39.2026 		-1
v 82.9291 		-80.636 		-1
v 7.5651 		40.7868 		-1
v 83.1339 		-79.6701 		-1
v 4.4329 		46.3491 		-1
v 1.1995 		51.8406 		-1
v 83.1919 		-78.6477 		-1
v -0.1422 		53.8067 		-1
v -1.5452 		55.7161 		-1
v -3.007 		57.4684 		-1
v -4.5236 		59.1536 		-1
v 80.1737 		-50.6948 		-1
v 79.8048 		-48.7217 		-1
v -5.8951 		60.3496 		-1
v 79.5607 		-46.6205 		-1
v -7.3267 		61.4452 		-1
v 79.396 		-44.5091 		-1
v -9.7957 		62.8478 		-1
v 79.3638 		-39.0675 		-1
v 79.396 		-33.6239 		-1
v 79.4626 		-31.9876 		-1
v -18.8483 		73.0898 		-1
v 79.5712 		-30.3549 		-1
v -21.2257 		74.0155 		-1
v 79.7476 		-28.8593 		-1
v -23.2482 		75.2087 		-1
v 80.0092 		-27.3893 		-1
v -25.1969 		76.543 		-1
v 80.9568 		-24.8322 		-1
v -25.9426 		77.4297 		-1
v -26.6276 		78.3965 		-1
v 93.2285 		5.258 		-1
v -27.2674 		79.3915 		-1
v 93.7037 		6.3786 		-1
v 82.0239 		-22.3342 		-1
v -27.854 		80.4186 		-1
v 83.6044 		-19.4952 		-1
v -27.9843 		80.9509 		-1
v -28.0292 		81.497 		-1
v -27.832 		82.3301 		-1
v 93.9301 		8.0054 		-1
v -27.5036 		83.0809 		-1
v 94.0541 		9.6598 		-1
v -24.998 		85.2169 		-1
v 94.1391 		13.0536 		-1
v -22.3353 		87.0913 		-1
v 94.0541 		16.4214 		-1
v -18.3192 		88.4787 		-1
v 93.3617 		18.8453 		-1
v 92.4774 		21.2068 		-1
v 91.5746 		22.891 		-1
v 2.8693 		93.8978 		-1
v 90.5794 		24.5095 		-1
v 5.2875 		94.2021 		-1
v 89.2253 		26.2803 		-1
v 8.2352 		94.2428 		-1
v 87.8054 		27.9806 		-1
v 11.1858 		94.2021 		-1
v 86.5479 		29.1721 		-1
v 12.6342 		94.1764 		-1
v 85.2359 		30.2723 		-1
v 14.0474 		93.9999 		-1
v 15.8561 		92.9241 		-1
v 84.5929 		30.5569 		-1
v 17.5513 		91.6071 		-1
v 83.9219 		30.7441 		-1
v 20.3063 		88.2461 		-1
v 83.2106 		30.7615 		-1
v 22.8948 		84.6985 		-1
v 77.4396 		33.8782 		-1
v 42.8673 		55.5139 		-1
v 44.5601 		52.4173 		-1
v 76.3234 		33.7013 		-1
v 46.3713 		49.4141 		-1
v 25.3392 		80.3354 		-1
v 59.0296 		34.9235 		-1
v 50.4717 		43.876 		-1
v 57.8175 		35.5295 		-1
v 54.6931 		38.4615 		-1
v 56.2087 		36.9225 		-1
v 91.7474 		-8.18 		-0.9717
v 94.6032 		-3.9995 		-0.9717
v 97.3829 		0.2451 		-0.9717
v 98.2993 		1.9273 		-0.9717
v 99.0765 		3.6826 		-0.9717
v 99.5537 		6.2879 		-0.9717
v 99.8649 		8.9399 		-0.9717
v 100 		13.1321 		-0.9717
v 99.8941 		17.2976 		-0.9717
v 98.9842 		20.6577 		-0.9717
v 97.8209 		23.9366 		-0.9717
v 96.5574 		26.3572 		-0.9717
v 95.1637 		28.6883 		-0.9717
v 93.6432 		30.703 		-0.9717
v 92.0394 		32.6313 		-0.9717
v 90.2715 		34.3888 		-0.9717
v 88.4186 		36.0013 		-0.9717
v 86.7873 		36.8042 		-0.9717
v 85.0899 		37.3831 		-0.9717
v 82.9192 		37.4035 		-0.9717
v 80.7391 		37.2483 		-0.9717
v 80.0394 		37.0618 		-0.9717
v 79.396 		36.7427 		-0.9717
v 75.1328 		33.7434 		-0.9717
v 72.6959 		34.1258 		-0.9717
v 70.2565 		34.4848 		-0.9717
v 40.181 		61.7822 		-0.9717
v 38.8035 		65.3937 		-0.9717
v 37.407 		68.9941 		-0.9717
v 35.1547 		74.0231 		-0.9717
v 32.8227 		79.0031 		-0.9717
v 30.3661 		83.7762 		-0.9717
v 27.7711 		88.4393 		-0.9717
v 24.7814 		92.6209 		-0.9717
v 21.5808 		96.5611 		-0.9717
v 18.833 		98.6909 		-0.9717
v 15.9161 		100.4704 		-0.9717
v 13.7687 		100.8233 		-0.9717
v 11.5654 		100.9422 		-0.9717
v 8.1623 		101 		-0.9717
v 4.7619 		100.9422 		-0.9717
v 2.022 		100.5767 		-0.9717
v -0.6984 		100.0659 		-0.9717
v -2.4793 		99.3602 		-0.9717
v -4.2608 		98.6505 		-0.9717
v -9.7788 		97.4558 		-0.9717
v -15.2982 		96.2578 		-0.9717
v -20.0936 		94.9043 		-0.9717
v -24.7881 		93.2584 		-0.9717
v -28.1965 		90.8178 		-0.9717
v -31.504 		88.136 		-0.9717
v -31.8835 		87.7758 		-0.9717
v -32.2047 		87.3609 		-0.9717
v -33.1939 		84.7414 		-0.9717
v -33.9859 		82.0699 		-0.9717
v -33.8488 		80.2212 		-0.9717
v -33.4603 		78.3965 		-0.9717
v -32.4641 		76.3692 		-0.9717
v -31.3288 		74.4199 		-0.9717
v -30.1295 		72.7327 		-0.9717
v -28.8176 		71.1846 		-0.9717
v -26.3294 		69.4716 		-0.9717
v -23.7369 		67.9494 		-0.9717
v -20.9106 		66.8106 		-0.9717
v -18.043 		65.7926 		-0.9717
v -24.3793 		19.2185 		-0.9717
v -25.7359 		21.3089 		-0.9717
v -27.0948 		23.3974 		-0.9717
v -32.8471 		31.1822 		-0.9717
v -34.4369 		33.6776 		-0.9717
v -36.0299 		36.1698 		-0.9717
v -38.5422 		39.5851 		-0.9717
v -41.1398 		42.9099 		-0.9717
v -44.608 		46.672 		-0.9717
v -48.2061 		50.2566 		-0.9717
v -52.3076 		53.511 		-0.9717
v -56.5864 		56.3227 		-0.9717
v -60.9457 		57.2446 		-0.9717
v -65.4046 		57.637 		-0.9717
v -69.3624 		57.1131 		-0.9717
v -73.2885 		56.2553 		-0.9717
v -76.6667 		54.9193 		-0.9717
v -79.9752 		53.3571 		-0.9717
v -82.5934 		51.6887 		-0.9717
v -85.0559 		49.7848 		-0.9717
v -86.5786 		47.5862 		-0.9717
v -87.8007 		45.1679 		-0.9717
v -88.2395 		41.7546 		-0.9717
v -88.4431 		38.2593 		-0.9717
v -88.563 		34.1542 		-0.9717
v -88.4723 		30.0701 		-0.9717
v -87.424 		24.7478 		-0.9717
v -86.0195 		19.5555 		-0.9717
v -84.0242 		16.0099 		-0.9717
v -81.7856 		12.6132 		-0.9717
v -79.1587 		9.1115 		-0.9717
v -76.5005 		5.6372 		-0.9717
v -85.7177 		-49.1546 		-0.9717
v -90.3411 		-52.2265 		-0.9717
v -92.7948 		-54.302 		-0.9717
v -95.1298 		-56.5402 		-0.9717
v -97.0346 		-59.0654 		-0.9717
v -98.7213 		-61.7637 		-0.9717
v -99.6815 		-64.8949 		-0.9717
v -100.3857 		-68.1331 		-0.9717
v -100.4982 		-71.1396 		-0.9717
v -94.6941 		-71.7506 		-0.9717
v -94.6334 		-69.3464 		-0.9717
v -87.1875 		-57.8882 		-0.9717
v -82.5717 		-54.8791 		-0.9717
v -77.9897 		-51.8221 		-0.9717
v -75.568 		-49.5338 		-0.9717
v -73.4053 		-46.9692 		-0.9717
v -71.0273 		-41.6325 		-0.9717
v -68.967 		-36.084 		-0.9717
v -67.3731 		-29.7357 		-0.9717
v -65.9886 		-23.3115 		-0.9717
v -65.1578 		-18.1354 		-0.9717
v -64.4995 		-12.9318 		-0.9717
v -64.3814 		-8.9264 		-0.9717
v -64.5287 		-4.9447 		-0.9717
v -65.4723 		-1.2021 		-0.9717
v -66.7478 		2.402 		-0.9717
v -69.2532 		6.2059 		-0.9717
v -71.9453 		9.8835 		-0.9717
v -39.0077 		29.4473 		-0.9717
v -37.4315 		26.9696 		-0.9717
v -34.6015 		23.1593 		-0.9717
v -30.3495 		17.1637 		-0.9717
v -28.9344 		14.9722 		-0.9717
v -27.2474 		12.6572 		-0.9717
v -25.4888 		10.4227 		-0.9717
v -23.5223 		8.4502 		-0.9717
v -21.4301 		6.7156 		-0.9717
v -18.6147 		5.7146 		-0.9717
v -15.707 		5.0306 		-0.9717
v -11.7229 		4.8349 		-0.9717
v -7.7355 		4.9295 		-0.9717
v -3.4939 		5.7527 		-0.9717
v 0.674 		6.9178 		-0.9717
v 3.7809 		8.7181 		-0.9717
v 6.7475 		10.8271 		-0.9717
v 8.5692 		12.8194 		-0.9717
v 10.2222 		15.0059 		-0.9717
v 11.8551 		18.1797 		-0.9717
v 13.2882 		21.4764 		-0.9717
v 13.8674 		24.0757 		-0.9717
v 14.2517 		26.7337 		-0.9717
v 14.5293 		32.4899 		-0.9717
v 14.5437 		38.2256 		-0.9717
v 13.8733 		40.954 		-0.9717
v 12.9086 		43.5839 		-0.9717
v 9.5422 		49.6675 		-0.9717
v 6.0175 		55.6487 		-0.9717
v 4.4465 		57.9725 		-0.9717
v 2.8055 		60.232 		-0.9717
v 1.2024 		62.175 		-0.9717
v -0.4648 		64.0401 		-0.9717
v -2.2666 		65.6365 		-0.9717
v -4.144 		67.1069 		-0.9717
v -7.1753 		68.8449 		-0.9717
v -10.2759 		70.4095 		-0.9717
v -13.3444 		71.3726 		-0.9717
v -14.2178 		89.6188 		-0.9717
v -8.5658 		90.8454 		-0.9717
v -2.9176 		92.0789 		-0.9717
v 33.4879 		62.5958 		-0.9717
v 34.8958 		58.9177 		-0.9717
v 36.3048 		55.5583 		-0.9717
v 37.7866 		52.245 		-0.9717
v 39.6931 		48.7396 		-0.9717
v 41.7285 		45.3364 		-0.9717
v 46.0341 		39.4965 		-0.9717
v 50.4884 		33.8108 		-0.9717
v 52.7127 		31.5619 		-0.9717
v 55.0727 		29.5308 		-0.9717
v 57.1447 		28.5167 		-0.9717
v 59.3067 		27.8121 		-0.9717
v 64.4786 		27.7444 		-0.9717
v 72.1699 		27.3923 		-0.9717
v 74.6656 		27.0033 		-0.9717
v 76.9456 		27.0598 		-0.9717
v 79.2208 		27.2392 		-0.9717
v 79.9356 		27.4261 		-0.9717
v 80.5931 		27.7447 		-0.9717
v 81.5689 		29.198 		-0.9717
v 87.1046 		-4.0685 		-0.9717
v 83.954 		-8.221 		-0.9717
v 80.8267 		-12.3926 		-0.9717
v 78.8955 		-15.4963 		-0.9717
v 77.0892 		-18.6945 		-0.9717
v 75.7158 		-21.926 		-0.9717
v 74.4904 		-25.2324 		-0.9717
v 74.1005 		-27.221 		-0.9717
v 73.8188 		-29.2428 		-0.9717
v 73.6573 		-31.3124 		-0.9717
v 73.5561 		-33.3879 		-0.9717
v 73.517 		-39.1348 		-0.9717
v 73.5561 		-44.8798 		-0.9717
v 73.7446 		-47.3288 		-0.9717
v 74.0232 		-49.7664 		-0.9717
v 74.4691 		-52.198 		-0.9717
v 75.0452 		-54.5855 		-0.9717
v 78.228 		-62.735 		-0.9717
v 81.4691 		-70.8629 		-0.9717
v 75.3664 		-80.4001 		-0.9717
v 69.887 		-74.9924 		-0.9717
v 64.3874 		-69.616 		-0.9717
v 62.1857 		-67.8421 		-0.9717
v 59.9199 		-66.1785 		-0.9717
v 58.4314 		-65.3354 		-0.9717
v 56.9123 		-64.5609 		-0.9717
v 55.5208 		-63.9357 		-0.9717
v 54.1091 		-63.3814 		-0.9717
v 50.4979 		-62.4369 		-0.9717
v 46.8677 		-61.5952 		-0.9717
v 45.1634 		-61.3991 		-0.9717
v 43.4513 		-61.2919 		-0.9717
v 36.7332 		-61.2099 		-0.9717
v 30.0195 		-61.2582 		-0.9717
v 27.3282 		-61.6359 		-0.9717
v 24.6468 		-62.1345 		-0.9717
v 23.5452 		-62.408 		-0.9717
v 22.4568 		-62.7411 		-0.9717
v 19.7753 		-63.84 		-0.9717
v 17.1425 		-65.0664 		-0.9717
v 13.7966 		-67.3238 		-0.9717
v 10.5142 		-69.7171 		-0.9717
v -11.4287 		-77.0216 		-0.9717
v -13.6922 		-75.4124 		-0.9717
v -15.6195 		-74.315 		-0.9717
v -17.5758 		-73.2893 		-0.9717
v -20.1118 		-72.1675 		-0.9717
v -22.6857 		-71.1999 		-0.9717
v -26.7019 		-70.5183 		-0.9717
v -30.7448 		-69.9867 		-0.9717
v -32.8162 		-69.8221 		-0.9717
v -34.8911 		-69.7171 		-0.9717
v -38.1763 		-69.6902 		-0.9717
v -41.461 		-69.7171 		-0.9717
v -42.7624 		-69.8255 		-0.9717
v -44.0598 		-69.9867 		-0.9717
v -45.4094 		-70.258 		-0.9717
v -46.7461 		-70.5933 		-0.9717
v -48.1906 		-71.1756 		-0.9717
v -49.6077 		-71.8402 		-0.9717
v -51.0156 		-72.7431 		-0.9717
v -52.3816 		-73.7274 		-0.9717
v -53.5995 		-74.9131 		-0.9717
v -54.8052 		-76.1202 		-0.9717
v -55.9161 		-77.0283 		-0.9717
v -57.0244 		-77.94 		-0.9717
v -58.3534 		-79.2873 		-0.9717
v -59.6815 		-80.636 		-0.9717
v -60.8534 		-81.608 		-0.9717
v -62.0175 		-82.5906 		-0.9717
v -74.2982 		-92.6729 		-0.9717
v -74.2229 		-92.4649 		-0.9717
v -74.253 		-91.2771 		-0.9717
v -74.3981 		-90.1396 		-0.9717
v -75.0464 		-89.2187 		-0.9717
v -75.8581 		-88.5219 		-0.9717
v -79.9498 		-88.1314 		-0.9717
v -94.6626 		-74.1655 		-0.9717
v -100.4733 		-74.1655 		-0.9717
v -100.4016 		-76.464 		-0.9717
v -100.2397 		-78.7488 		-0.9717
v -99.7915 		-80.837 		-0.9717
v -99.1885 		-82.8602 		-0.9717
v -98.0801 		-84.7547 		-0.9717
v -96.8234 		-86.5336 		-0.9717
v -94.8688 		-88.5592 		-0.9717
v -92.7938 		-90.4092 		-0.9717
v -89.4701 		-92.3888 		-0.9717
v -86.0487 		-94.1162 		-0.9717
v -84.0288 		-94.4052 		-0.9717
v -79.1839 		-97.3987 		-0.9717
v -78.7196 		-98.1603 		-0.9717
v -77.9806 		-98.8862 		-0.9717
v -77.1721 		-99.4409 		-0.9717
v -74.606 		-99.6455 		-0.9717
v -72.0329 		-99.542 		-0.9717
v -70.2031 		-98.6853 		-0.9717
v -68.4414 		-97.5874 		-0.9717
v -66.1601 		-95.705 		-0.9717
v -63.9447 		-93.7118 		-0.9717
v -61.1666 		-90.8023 		-0.9717
v -57.2032 		-86.8656 		-0.9717
v -56.0024 		-85.8596 		-0.9717
v -54.7771 		-84.5939 		-0.9717
v -52.441 		-82.4377 		-0.9717
v -51.3305 		-81.5459 		-0.9717
v -50.2389 		-80.4275 		-0.9717
v -16.7874 		-81.1415 		-0.9717
v -14.1466 		-83.0102 		-0.9717
v -11.4731 		-84.7475 		-0.9717
v -8.7139 		-85.3506 		-0.9717
v -5.8959 		-85.6911 		-0.9717
v -4.2162 		-85.6125 		-0.9717
v -2.538 		-85.4215 		-0.9717
v -1.2721 		-85.1652 		-0.9717
v -0.0268 		-84.8149 		-0.9717
v 2.6378 		-83.5431 		-0.9717
v 5.2583 		-82.1525 		-0.9717
v 6.9139 		-80.9628 		-0.9717
v 8.5286 		-79.6924 		-0.9717
v 66.2567 		-80.3152 		-0.9717
v 71.6873 		-85.6574 		-0.9717
v 73.5132 		-87.1781 		-0.9717
v 75.4248 		-88.4882 		-0.9717
v 77.2127 		-88.8491 		-0.9717
v 79.0456 		-88.96 		-0.9717
v 81.2432 		-88.6365 		-0.9717
v 83.3963 		-88.0838 		-0.9717
v 85.3787 		-86.8448 		-0.9717
v 87.2798 		-85.4215 		-0.9717
v 87.8706 		-84.7472 		-0.9717
v 88.331 		-83.9724 		-0.9717
v 88.8059 		-81.1805 		-0.9717
v 89.061 		-78.3444 		-0.9717
v 88.6479 		-75.3715 		-0.9717
v 88.0682 		-72.4131 		-0.9717
v 87.5825 		-70.5613 		-0.9717
v 87.017 		-68.7397 		-0.9717
v 83.8184 		-60.6907 		-0.9717
v 88.5103 		-12.4516 		-0.9717
v 65.2712 		34.4786 		-0.9717
v -29.974 		27.2871 		-0.9717
v -81.114 		-46.0593 		-0.9717
v -40.585 		31.9236 		-0.9717
v -31.7668 		19.3533 		-0.9717
v -1.2233 		92.7707 		-0.9717
v 32.0635 		66.2644 		-0.9717
v 69.6725 		27.7784 		-0.9717
v 6.6112 		-72.9243 		-0.9717
v -9.1371 		-78.5129 		-0.9717
v -64.761 		-85.4734 		-0.9717
v -74.3397 		-92.8356 		-0.9717
v -94.5894 		-76.0235 		-0.9717
v -79.654 		-96.6437 		-0.9717
v -58.3968 		-87.8816 		-0.9717
v -53.5496 		-83.3321 		-0.9717
v 60.825 		-74.9743 		-0.9717
v 85.2943 		-16.7399 		-0.9717
v 78.4315 		35.2658 		-0.9717
v 60.2995 		34.5185 		-0.9717
v 41.4897 		58.6263 		-0.9717
v -15.1725 		64.9759 		-0.9717
v -74.1056 		2.3844 		-0.9717
v -94.2532 		-67.29 		-0.9717
v -16.437 		72.2631 		-0.9717
v 0.4696 		93.4607 		-0.9717
v -94.4582 		-77.8726 		-0.9717
v -82.0192 		-94.6891 		-0.9717
v -49.1405 		-79.3217 		-0.9717
v -19.4128 		-79.7499 		-0.9717
v 80.6515 		-52.6309 		-0.9717
v -12.3198 		64.1075 		-0.9717
v -79.3756 		-44.3984 		-0.9717
v -93.699 		-65.3023 		-0.9717
v -74.5406 		13.2609 		-0.9717
v 29.8982 		71.0909 		-0.9717
v 82.5495 		30.6166 		-0.9717
v 89.9107 		0.0325 		-0.9717
v 76.3945 		-81.2821 		-0.9717
v 2.6887 		-76.0864 		-0.9717
v -84.0632 		-87.7131 		-0.9717
v -94.2519 		-78.7999 		-0.9717
v -80.7956 		-95.5781 		-0.9717
v -22.0725 		-78.4455 		-0.9717
v 10.0572 		-78.3201 		-0.9717
v 58.882 		-73.4274 		-0.9717
v -22.8459 		17.1137 		-0.9717
v -92.5386 		-63.369 		-0.9717
v -42.9678 		35.1682 		-0.9717
v 27.6543 		75.869 		-0.9717
v 92.6526 		4.1881 		-0.9717
v 81.9229 		-72.2834 		-0.9717
v -67.507 		-88.3534 		-0.9717
v -86.8088 		-86.4214 		-0.9717
v -93.9618 		-79.6924 		-0.9717
v 11.5946 		-76.9627 		-0.9717
v 56.8831 		-71.975 		-0.9717
v -21.2549 		15.0733 		-0.9717
v -45.4321 		38.3267 		-0.9717
v 82.3159 		-73.7274 		-0.9717
v -69.3824 		-90.0575 		-0.9717
v -93.2176 		-80.9598 		-0.9717
v 15.5115 		-73.9942 		-0.9717
v -77.8437 		-42.5208 		-0.9717
v 82.8017 		-76.1819 		-0.9717
v -71.303 		-91.6898 		-0.9717
v -92.385 		-82.1525 		-0.9717
v 19.5077 		-71.1999 		-0.9717
v -91.2171 		-61.5616 		-0.9717
v -89.2541 		-59.6536 		-0.9717
v -90.9687 		-83.5658 		-0.9717
v -89.4651 		-84.8486 		-0.9717
v -75.9816 		-38.102 		-0.9717
v -74.3689 		-33.5227 		-0.9717
v -72.9095 		-27.5878 		-0.9717
v -73.8051 		-92.8859 		-0.9717
v -71.6241 		-21.5928 		-0.9717
v -73.2301 		-92.8356 		-0.9717
v -70.8949 		-16.9371 		-0.9717
v -72.25 		-92.3109 		-0.9717
v -70.3102 		-12.2577 		-0.9717
v -70.21 		-9.1827 		-0.9717
v -70.3102 		-6.1243 		-0.9717
v -70.9572 		-3.4923 		-0.9717
v -48.1638 		-78.6179 		-0.9717
v -71.8577 		-0.9681 		-0.9717
v -47.1549 		-77.9737 		-0.9717
v -46.2444 		-77.5245 		-0.9717
v -45.3153 		-77.1312 		-0.9717
v -77.1137 		16.6573 		-0.9717
v -44.2985 		-76.87 		-0.9717
v -79.0097 		19.5265 		-0.9717
v -43.2714 		-76.6594 		-0.9717
v -80.7052 		22.5211 		-0.9717
v -42.2364 		-76.5369 		-0.9717
v -81.8133 		26.5158 		-0.9717
v -41.1982 		-76.4572 		-0.9717
v -82.6324 		30.6166 		-0.9717
v -38.22 		-76.4338 		-0.9717
v -35.2415 		-76.4572 		-0.9717
v -82.716 		34.1253 		-0.9717
v -33.2399 		-76.5655 		-0.9717
v -82.6324 		37.6527 		-0.9717
v -31.2412 		-76.7268 		-0.9717
v -82.4944 		40.2346 		-0.9717
v -82.2236 		42.7751 		-0.9717
v -7.3485 		-78.8293 		-0.9717
v -81.7341 		43.8265 		-0.9717
v -27.7028 		-77.1951 		-0.9717
v -81.0848 		44.7635 		-0.9717
v -24.1749 		-77.7378 		-0.9717
v -79.3928 		46.0473 		-0.9717
v -5.5164 		-78.951 		-0.9717
v -77.6101 		47.1899 		-0.9717
v -23.1142 		-78.0518 		-0.9717
v -74.8335 		48.5232 		-0.9717
v -72.0037 		49.6837 		-0.9717
v -4.3761 		-78.885 		-0.9717
v -68.8205 		50.4249 		-0.9717
v -3.2388 		-78.7488 		-0.9717
v -65.609 		50.8969 		-0.9717
v -2.3549 		-78.5469 		-0.9717
v -62.1097 		50.64 		-0.9717
v -1.4868 		-78.277 		-0.9717
v -58.6887 		49.9533 		-0.9717
v 0.6288 		-77.2462 		-0.9717
v -55.2136 		47.6767 		-0.9717
v -51.8852 		45.0331 		-0.9717
v -20.0287 		13.8447 		-0.9717
v 22.5215 		-69.8754 		-0.9717
v -48.6006 		41.7587 		-0.9717
v 25.6104 		-68.7735 		-0.9717
v 27.9055 		-68.3008 		-0.9717
v -18.7146 		12.7817 		-0.9717
v 30.2239 		-67.9983 		-0.9717
v -16.7447 		12.1143 		-0.9717
v 36.6018 		-67.9412 		-0.9717
v -14.7142 		11.6696 		-0.9717
v 42.9841 		-67.9983 		-0.9717
v -11.3707 		11.5567 		-0.9717
v 44.3596 		-68.0801 		-0.9717
v -8.0275 		11.6696 		-0.9717
v 45.7289 		-68.2342 		-0.9717
v -4.5207 		12.3718 		-0.9717
v 49.0507 		-68.9811 		-0.9717
v -1.078 		13.3546 		-0.9717
v 52.3572 		-69.8129 		-0.9717
v 53.5191 		-70.2567 		-0.9717
v 1.2256 		14.7681 		-0.9717
v 54.6639 		-70.7618 		-0.9717
v 3.4187 		16.4214 		-0.9717
v 4.6474 		17.8206 		-0.9717
v 77.4688 		-82.0514 		-0.9717
v 5.7547 		19.3533 		-0.9717
v 55.7854 		-71.3415 		-0.9717
v 6.8786 		21.6534 		-0.9717
v 7.857 		24.0377 		-0.9717
v 8.2484 		25.9893 		-0.9717
v 78.2604 		-82.201 		-0.9717
v 8.4994 		27.9806 		-0.9717
v 79.0748 		-82.2199 		-0.9717
v 8.6977 		32.7766 		-0.9717
v 80.4012 		-81.9725 		-0.9717
v 81.7027 		-81.6133 		-0.9717
v 8.7038 		37.5516 		-0.9717
v 82.3677 		-81.1848 		-0.9717
v 8.233 		39.2026 		-0.9717
v 82.9291 		-80.636 		-0.9717
v 7.5651 		40.7868 		-0.9717
v 83.1339 		-79.6701 		-0.9717
v 4.4329 		46.3491 		-0.9717
v 1.1995 		51.8406 		-0.9717
v 83.1919 		-78.6477 		-0.9717
v -0.1422 		53.8067 		-0.9717
v -1.5452 		55.7161 		-0.9717
v -3.007 		57.4684 		-0.9717
v -4.5236 		59.1536 		-0.9717
v 80.1737 		-50.6948 		-0.9717
v 79.8048 		-48.7217 		-0.9717
v -5.8951 		60.3496 		-0.9717
v 79.5607 		-46.6205 		-0.9717
v -7.3267 		61.4452 		-0.9717
v 79.396 		-44.5091 		-0.9717
v -9.7957 		62.8478 		-0.9717
v 79.3638 		-39.0675 		-0.9717
v 79.396 		-33.6239 		-0.9717
v 79.4626 		-31.9876 		-0.9717
v -18.8483 		73.0898 		-0.9717
v 79.5712 		-30.3549 		-0.9717
v -21.2257 		74.0155 		-0.9717
v 79.7476 		-28.8593 		-0.9717
v -23.2482 		75.2087 		-0.9717
v 80.0092 		-27.3893 		-0.9717
v -25.1969 		76.543 		-0.9717
v 80.9568 		-24.8322 		-0.9717
v -25.9426 		77.4297 		-0.9717
v -26.6276 		78.3965 		-0.9717
v 93.2285 		5.258 		-0.9717
v -27.2674 		79.3915 		-0.9717
v 93.7037 		6.3786 		-0.9717
v 82.0239 		-22.3342 		-0.9717
v -27.854 		80.4186 		-0.9717
v 83.6044 		-19.4952 		-0.9717
v -27.9843 		80.9509 		-0.9717
v -28.0292 		81.497 		-0.9717
v -27.832 		82.3301 		-0.9717
v 93.9301 		8.0054 		-0.9717
v -27.5036 		83.0809 		-0.9717
v 94.0541 		9.6598 		-0.9717
v -24.998 		85.2169 		-0.9717
v 94.1391 		13.0536 		-0.9717
v -22.3353 		87.0913 		-0.9717
v 94.0541 		16.4214 		-0.9717
v -18.3192 		88.4787 		-0.9717
v 93.3617 		18.8453 		-0.9717
v 92.4774 		21.2068 		-0.9717
v 91.5746 		22.891 		-0.9717
v 2.8693 		93.8978 		-0.9717
v 90.5794 		24.5095 		-0.9717
v 5.2875 		94.2021 		-0.9717
v 89.2253 		26.2803 		-0.9717
v 8.2352 		94.2428 		-0.9717
v 87.8054 		27.9806 		-0.9717
v 11.1858 		94.2021 		-0.9717
v 86.5479 		29.1721 		-0.9717
v 12.6342 		94.1764 		-0.9717
v 85.2359 		30.2723 		-0.9717
v 14.0474 		93.9999 		-0.9717
v 15.8561 		92.9241 		-0.9717
v 84.5929 		30.5569 		-0.9717
v 17.5513 		91.6071 		-0.9717
v 83.9219 		30.7441 		-0.9717
v 20.3063 		88.2461 		-0.9717
v 83.2106 		30.7615 		-0.9717
v 22.8948 		84.6985 		-0.9717
v 77.4396 		33.8782 		-0.9717
v 42.8673 		55.5139 		-0.9717
v 44.5601 		52.4173 		-0.9717
v 76.3234 		33.7013 		-0.9717
v 46.3713 		49.4141 		-0.9717
v 25.3392 		80.3354 		-0.9717
v 59.0296 		34.9235 		-0.9717
v 50.4717 		43.876 		-0.9717
v 57.8175 		35.5295 		-0.9717
v 54.6931 		38.4615 		-0.9717
v 56.2087 		36.9225 		-0.9717
# 1144 vertices

g group_0_8768998

usemtl color_8768998
s 0

f 1 	2 	3
f 4 	5 	1
f 6 	7 	4
f 8 	9 	6
f 10 	11 	8
f 12 	13 	10
f 14 	15 	12
f 16 	17 	14
f 18 	19 	16
f 20 	21 	18
f 22 	23 	20
f 24 	25 	26
f 27 	28 	29
f 30 	31 	27
f 32 	33 	30
f 34 	35 	32
f 36 	37 	34
f 38 	39 	36
f 40 	41 	38
f 42 	43 	40
f 44 	45 	42
f 46 	47 	44
f 48 	49 	46
f 50 	51 	48
f 52 	53 	50
f 54 	55 	52
f 56 	57 	54
f 58 	59 	56
f 60 	61 	58
f 62 	63 	60
f 64 	65 	62
f 66 	67 	68
f 69 	70 	71
f 72 	73 	69
f 74 	75 	72
f 76 	77 	74
f 78 	79 	76
f 80 	81 	78
f 82 	83 	80
f 84 	85 	82
f 86 	87 	84
f 88 	89 	86
f 90 	91 	88
f 92 	93 	90
f 94 	95 	92
f 96 	97 	94
f 98 	99 	100
f 101 	102 	98
f 103 	104 	101
f 105 	106 	103
f 107 	108 	105
f 109 	110 	111
f 112 	113 	109
f 114 	115 	112
f 116 	117 	114
f 118 	119 	116
f 120 	121 	118
f 122 	123 	120
f 124 	125 	122
f 126 	127 	128
f 129 	130 	131
f 132 	133 	129
f 134 	135 	132
f 136 	137 	134
f 138 	139 	136
f 140 	141 	138
f 142 	143 	140
f 144 	145 	142
f 146 	147 	144
f 148 	149 	146
f 150 	151 	148
f 152 	153 	150
f 154 	155 	152
f 156 	157 	154
f 158 	159 	156
f 160 	161 	158
f 162 	163 	160
f 164 	165 	166
f 167 	168 	169
f 170 	171 	167
f 172 	173 	170
f 174 	175 	172
f 176 	177 	174
f 178 	179 	176
f 180 	181 	182
f 183 	184 	180
f 185 	186 	183
f 187 	188 	189
f 190 	191 	187
f 192 	193 	190
f 194 	195 	192
f 196 	197 	194
f 198 	199 	196
f 200 	201 	198
f 202 	203 	200
f 204 	205 	202
f 206 	207 	208
f 209 	210 	206
f 211 	212 	209
f 213 	214 	211
f 215 	216 	213
f 217 	218 	215
f 219 	220 	217
f 221 	222 	219
f 223 	224 	221
f 225 	226 	223
f 227 	228 	225
f 229 	230 	231
f 232 	233 	229
f 234 	235 	232
f 236 	237 	234
f 238 	239 	236
f 240 	241 	238
f 242 	243 	240
f 244 	245 	242
f 246 	247 	244
f 248 	249 	246
f 250 	251 	252
f 253 	254 	250
f 255 	256 	253
f 257 	258 	259
f 260 	261 	257
f 262 	263 	260
f 105 	108 	264
f 265 	266 	105
f 267 	268 	265
f 269 	270 	267
f 271 	272 	269
f 273 	274 	271
f 275 	276 	273
f 277 	278 	279
f 280 	281 	277
f 282 	283 	280
f 284 	285 	282
f 286 	287 	284
f 288 	289 	290
f 291 	292 	293
f 294 	295 	296
f 297 	298 	294
f 299 	300 	297
f 301 	302 	299
f 303 	304 	301
f 305 	306 	303
f 307 	308 	309
f 310 	311 	307
f 312 	313 	310
f 314 	315 	312
f 316 	317 	314
f 318 	319 	316
f 320 	321 	318
f 322 	323 	320
f 324 	325 	322
f 1 	3 	326
f 6 	4 	1
f 10 	8 	6
f 14 	12 	10
f 18 	16 	14
f 22 	20 	18
f 327 	24 	26
f 30 	27 	29
f 34 	32 	30
f 38 	36 	34
f 42 	40 	38
f 48 	46 	44
f 52 	50 	48
f 56 	54 	52
f 60 	58 	56
f 64 	62 	60
f 328 	66 	68
f 72 	69 	71
f 76 	74 	72
f 80 	78 	76
f 84 	82 	80
f 88 	86 	84
f 92 	90 	88
f 96 	94 	92
f 98 	100 	329
f 103 	101 	98
f 107 	105 	103
f 112 	109 	111
f 116 	114 	112
f 120 	118 	116
f 124 	122 	120
f 126 	128 	330
f 129 	131 	331
f 134 	132 	129
f 138 	136 	134
f 142 	140 	138
f 146 	144 	142
f 150 	148 	146
f 154 	152 	150
f 158 	156 	154
f 162 	160 	158
f 332 	164 	166
f 167 	169 	333
f 172 	170 	167
f 176 	174 	172
f 334 	178 	176
f 180 	182 	334
f 185 	183 	180
f 190 	187 	189
f 194 	192 	190
f 198 	196 	194
f 202 	200 	198
f 209 	206 	208
f 213 	211 	209
f 217 	215 	213
f 221 	219 	217
f 225 	223 	221
f 335 	227 	225
f 229 	231 	336
f 234 	232 	229
f 238 	236 	234
f 242 	240 	238
f 246 	244 	242
f 252 	248 	246
f 253 	250 	252
f 337 	255 	253
f 257 	259 	338
f 262 	260 	257
f 105 	264 	339
f 267 	265 	105
f 271 	269 	267
f 275 	273 	271
f 277 	279 	340
f 282 	280 	277
f 286 	284 	282
f 288 	290 	341
f 291 	293 	342
f 297 	294 	296
f 301 	299 	297
f 305 	303 	301
f 307 	309 	343
f 312 	310 	307
f 316 	314 	312
f 320 	318 	316
f 324 	322 	320
f 1 	326 	344
f 10 	6 	1
f 18 	14 	10
f 345 	22 	18
f 346 	327 	26
f 30 	29 	347
f 38 	34 	30
f 44 	42 	38
f 52 	48 	44
f 60 	56 	52
f 348 	64 	60
f 71 	328 	68
f 76 	72 	71
f 84 	80 	76
f 92 	88 	84
f 349 	96 	92
f 103 	98 	329
f 350 	107 	103
f 116 	112 	111
f 124 	120 	116
f 331 	126 	330
f 134 	129 	331
f 142 	138 	134
f 150 	146 	142
f 158 	154 	150
f 351 	162 	158
f 352 	332 	166
f 172 	167 	333
f 334 	176 	172
f 185 	180 	334
f 194 	190 	189
f 202 	198 	194
f 213 	209 	208
f 221 	217 	213
f 335 	225 	221
f 234 	229 	336
f 242 	238 	234
f 252 	246 	242
f 337 	253 	252
f 262 	257 	338
f 105 	339 	353
f 271 	267 	105
f 354 	275 	271
f 282 	277 	340
f 341 	286 	282
f 342 	288 	341
f 355 	291 	342
f 297 	296 	356
f 305 	301 	297
f 312 	307 	343
f 320 	316 	312
f 357 	324 	320
f 345 	18 	10
f 38 	30 	347
f 52 	44 	38
f 358 	348 	60
f 76 	71 	68
f 103 	329 	359
f 360 	350 	103
f 361 	124 	116
f 134 	331 	330
f 351 	158 	150
f 172 	333 	362
f 363 	185 	334
f 194 	189 	364
f 204 	202 	194
f 213 	208 	365
f 366 	335 	221
f 242 	234 	336
f 337 	252 	242
f 367 	262 	338
f 105 	353 	368
f 282 	340 	369
f 342 	341 	282
f 297 	356 	370
f 371 	305 	297
f 312 	343 	372
f 76 	68 	373
f 374 	360 	103
f 134 	330 	375
f 172 	362 	376
f 194 	364 	377
f 378 	204 	194
f 379 	337 	242
f 380 	367 	338
f 105 	368 	381
f 282 	369 	354
f 382 	371 	297
f 312 	372 	383
f 76 	373 	384
f 374 	103 	359
f 134 	375 	385
f 386 	378 	194
f 387 	379 	242
f 105 	381 	388
f 282 	354 	271
f 389 	382 	297
f 374 	359 	390
f 391 	386 	194
f 392 	387 	242
f 105 	388 	393
f 394 	389 	297
f 395 	374 	390
f 271 	105 	393
f 396 	395 	390
f 271 	393 	397
f 111 	396 	390
f 271 	397 	398
f 116 	111 	390
f 271 	398 	380
f 116 	390 	399
f 271 	380 	338
f 116 	399 	400
f 282 	271 	338
f 116 	400 	401
f 282 	338 	402
f 116 	401 	403
f 282 	402 	404
f 116 	403 	405
f 282 	404 	406
f 116 	405 	407
f 282 	406 	392
f 116 	407 	408
f 282 	392 	242
f 116 	408 	409
f 342 	282 	242
f 116 	409 	410
f 355 	342 	242
f 361 	116 	410
f 411 	355 	242
f 361 	410 	412
f 413 	411 	242
f 361 	412 	349
f 414 	413 	242
f 361 	349 	92
f 415 	414 	242
f 416 	361 	92
f 417 	415 	242
f 418 	416 	92
f 419 	417 	242
f 420 	418 	92
f 421 	419 	242
f 422 	420 	92
f 423 	421 	242
f 424 	422 	92
f 425 	423 	242
f 424 	92 	84
f 426 	425 	242
f 427 	424 	84
f 428 	426 	242
f 429 	427 	84
f 430 	428 	242
f 431 	429 	84
f 430 	242 	336
f 432 	431 	84
f 430 	336 	433
f 434 	432 	84
f 435 	430 	433
f 436 	434 	84
f 437 	435 	433
f 438 	436 	84
f 437 	433 	439
f 440 	438 	84
f 441 	437 	439
f 442 	440 	84
f 370 	441 	439
f 442 	84 	76
f 297 	370 	439
f 443 	442 	76
f 297 	439 	444
f 445 	443 	76
f 297 	444 	446
f 447 	445 	76
f 297 	446 	448
f 449 	447 	76
f 297 	448 	450
f 451 	449 	76
f 297 	450 	452
f 453 	451 	76
f 297 	452 	366
f 454 	453 	76
f 297 	366 	221
f 454 	76 	384
f 394 	297 	221
f 454 	384 	455
f 456 	394 	221
f 457 	454 	455
f 458 	456 	221
f 385 	457 	455
f 459 	458 	221
f 134 	385 	455
f 459 	221 	213
f 134 	455 	460
f 461 	459 	213
f 134 	460 	462
f 463 	461 	213
f 134 	462 	464
f 465 	463 	213
f 134 	464 	466
f 467 	465 	213
f 134 	466 	468
f 469 	467 	213
f 134 	468 	470
f 471 	469 	213
f 134 	470 	472
f 473 	471 	213
f 142 	134 	472
f 474 	473 	213
f 142 	472 	475
f 476 	474 	213
f 142 	475 	477
f 476 	213 	365
f 142 	477 	478
f 476 	365 	479
f 142 	478 	480
f 481 	476 	479
f 142 	480 	482
f 383 	481 	479
f 142 	482 	483
f 312 	383 	479
f 142 	483 	484
f 312 	479 	485
f 142 	484 	486
f 312 	485 	487
f 142 	486 	488
f 312 	487 	489
f 150 	142 	488
f 312 	489 	490
f 150 	488 	491
f 312 	490 	492
f 150 	491 	493
f 312 	492 	494
f 150 	493 	495
f 312 	494 	496
f 150 	495 	497
f 320 	312 	496
f 150 	497 	498
f 320 	496 	499
f 150 	498 	500
f 320 	499 	391
f 150 	500 	501
f 357 	320 	391
f 150 	501 	502
f 357 	391 	194
f 150 	502 	503
f 504 	357 	194
f 351 	150 	503
f 505 	504 	194
f 351 	503 	506
f 507 	505 	194
f 351 	506 	508
f 509 	507 	194
f 351 	508 	510
f 511 	509 	194
f 351 	510 	358
f 512 	511 	194
f 351 	358 	60
f 513 	512 	194
f 514 	351 	60
f 515 	513 	194
f 516 	514 	60
f 517 	515 	194
f 518 	516 	60
f 519 	517 	194
f 520 	518 	60
f 521 	519 	194
f 522 	520 	60
f 521 	194 	377
f 523 	522 	60
f 521 	377 	524
f 525 	523 	60
f 521 	524 	526
f 525 	60 	52
f 527 	521 	526
f 528 	525 	52
f 529 	527 	526
f 530 	528 	52
f 344 	529 	526
f 531 	530 	52
f 1 	344 	526
f 532 	531 	52
f 1 	526 	533
f 534 	532 	52
f 1 	533 	535
f 536 	534 	52
f 1 	535 	537
f 538 	536 	52
f 1 	537 	539
f 538 	52 	38
f 10 	1 	539
f 540 	538 	38
f 10 	539 	541
f 166 	540 	38
f 10 	541 	542
f 352 	166 	38
f 10 	542 	543
f 544 	352 	38
f 10 	543 	545
f 546 	544 	38
f 10 	545 	547
f 548 	546 	38
f 10 	547 	549
f 550 	548 	38
f 10 	549 	551
f 552 	550 	38
f 10 	551 	553
f 554 	552 	38
f 345 	10 	553
f 555 	554 	38
f 345 	553 	556
f 557 	555 	38
f 345 	556 	558
f 559 	557 	38
f 345 	558 	560
f 561 	559 	38
f 345 	560 	363
f 561 	38 	347
f 562 	345 	363
f 561 	347 	563
f 562 	363 	334
f 561 	563 	564
f 565 	562 	334
f 561 	564 	566
f 26 	565 	334
f 567 	561 	566
f 346 	26 	334
f 376 	567 	566
f 568 	346 	334
f 172 	376 	566
f 568 	334 	172
f 172 	566 	569
f 570 	568 	172
f 172 	569 	571
f 572 	570 	172
f 172 	571 	572
f 573 	574 	575
f 575 	576 	577
f 577 	578 	579
f 579 	580 	581
f 581 	582 	583
f 583 	584 	585
f 585 	586 	587
f 587 	588 	589
f 589 	590 	591
f 591 	592 	593
f 593 	594 	595
f 596 	597 	598
f 599 	600 	601
f 601 	602 	603
f 603 	604 	605
f 605 	606 	607
f 607 	608 	609
f 609 	610 	611
f 611 	612 	613
f 613 	614 	615
f 615 	616 	617
f 617 	618 	619
f 619 	620 	621
f 621 	622 	623
f 623 	624 	625
f 625 	626 	627
f 627 	628 	629
f 629 	630 	631
f 631 	632 	633
f 633 	634 	635
f 635 	636 	637
f 638 	639 	640
f 641 	642 	643
f 643 	644 	645
f 645 	646 	647
f 647 	648 	649
f 649 	650 	651
f 651 	652 	653
f 653 	654 	655
f 655 	656 	657
f 657 	658 	659
f 659 	660 	661
f 661 	662 	663
f 663 	664 	665
f 665 	666 	667
f 667 	668 	669
f 670 	671 	672
f 672 	673 	674
f 674 	675 	676
f 676 	677 	678
f 678 	679 	680
f 681 	682 	683
f 683 	684 	685
f 685 	686 	687
f 687 	688 	689
f 689 	690 	691
f 691 	692 	693
f 693 	694 	695
f 695 	696 	697
f 698 	699 	700
f 701 	702 	703
f 703 	704 	705
f 705 	706 	707
f 707 	708 	709
f 709 	710 	711
f 711 	712 	713
f 713 	714 	715
f 715 	716 	717
f 717 	718 	719
f 719 	720 	721
f 721 	722 	723
f 723 	724 	725
f 725 	726 	727
f 727 	728 	729
f 729 	730 	731
f 731 	732 	733
f 733 	734 	735
f 736 	737 	738
f 739 	740 	741
f 741 	742 	743
f 743 	744 	745
f 745 	746 	747
f 747 	748 	749
f 749 	750 	751
f 752 	753 	754
f 754 	755 	756
f 756 	757 	758
f 759 	760 	761
f 761 	762 	763
f 763 	764 	765
f 765 	766 	767
f 767 	768 	769
f 769 	770 	771
f 771 	772 	773
f 773 	774 	775
f 775 	776 	777
f 778 	779 	780
f 780 	781 	782
f 782 	783 	784
f 784 	785 	786
f 786 	787 	788
f 788 	789 	790
f 790 	791 	792
f 792 	793 	794
f 794 	795 	796
f 796 	797 	798
f 798 	799 	800
f 801 	802 	803
f 803 	804 	805
f 805 	806 	807
f 807 	808 	809
f 809 	810 	811
f 811 	812 	813
f 813 	814 	815
f 815 	816 	817
f 817 	818 	819
f 819 	820 	821
f 822 	823 	824
f 824 	825 	826
f 826 	827 	828
f 829 	830 	831
f 831 	832 	833
f 833 	834 	835
f 836 	679 	678
f 678 	837 	838
f 838 	839 	840
f 840 	841 	842
f 842 	843 	844
f 844 	845 	846
f 846 	847 	848
f 849 	850 	851
f 851 	852 	853
f 853 	854 	855
f 855 	856 	857
f 857 	858 	859
f 860 	861 	862
f 863 	864 	865
f 866 	867 	868
f 868 	869 	870
f 870 	871 	872
f 872 	873 	874
f 874 	875 	876
f 876 	877 	878
f 879 	880 	881
f 881 	882 	883
f 883 	884 	885
f 885 	886 	887
f 887 	888 	889
f 889 	890 	891
f 891 	892 	893
f 893 	894 	895
f 895 	896 	897
f 898 	573 	575
f 575 	577 	579
f 579 	581 	583
f 583 	585 	587
f 587 	589 	591
f 591 	593 	595
f 596 	598 	899
f 599 	601 	603
f 603 	605 	607
f 607 	609 	611
f 611 	613 	615
f 617 	619 	621
f 621 	623 	625
f 625 	627 	629
f 629 	631 	633
f 633 	635 	637
f 638 	640 	900
f 641 	643 	645
f 645 	647 	649
f 649 	651 	653
f 653 	655 	657
f 657 	659 	661
f 661 	663 	665
f 665 	667 	669
f 901 	670 	672
f 672 	674 	676
f 676 	678 	680
f 681 	683 	685
f 685 	687 	689
f 689 	691 	693
f 693 	695 	697
f 902 	698 	700
f 903 	701 	703
f 703 	705 	707
f 707 	709 	711
f 711 	713 	715
f 715 	717 	719
f 719 	721 	723
f 723 	725 	727
f 727 	729 	731
f 731 	733 	735
f 736 	738 	904
f 905 	739 	741
f 741 	743 	745
f 745 	747 	749
f 749 	751 	906
f 906 	752 	754
f 754 	756 	758
f 759 	761 	763
f 763 	765 	767
f 767 	769 	771
f 771 	773 	775
f 778 	780 	782
f 782 	784 	786
f 786 	788 	790
f 790 	792 	794
f 794 	796 	798
f 798 	800 	907
f 908 	801 	803
f 803 	805 	807
f 807 	809 	811
f 811 	813 	815
f 815 	817 	819
f 819 	821 	822
f 822 	824 	826
f 826 	828 	909
f 910 	829 	831
f 831 	833 	835
f 911 	836 	678
f 678 	838 	840
f 840 	842 	844
f 844 	846 	848
f 912 	849 	851
f 851 	853 	855
f 855 	857 	859
f 913 	860 	862
f 914 	863 	865
f 866 	868 	870
f 870 	872 	874
f 874 	876 	878
f 915 	879 	881
f 881 	883 	885
f 885 	887 	889
f 889 	891 	893
f 893 	895 	897
f 916 	898 	575
f 575 	579 	583
f 583 	587 	591
f 591 	595 	917
f 596 	899 	918
f 919 	599 	603
f 603 	607 	611
f 611 	615 	617
f 617 	621 	625
f 625 	629 	633
f 633 	637 	920
f 638 	900 	641
f 641 	645 	649
f 649 	653 	657
f 657 	661 	665
f 665 	669 	921
f 901 	672 	676
f 676 	680 	922
f 681 	685 	689
f 689 	693 	697
f 902 	700 	903
f 903 	703 	707
f 707 	711 	715
f 715 	719 	723
f 723 	727 	731
f 731 	735 	923
f 736 	904 	924
f 905 	741 	745
f 745 	749 	906
f 906 	754 	758
f 759 	763 	767
f 767 	771 	775
f 778 	782 	786
f 786 	790 	794
f 794 	798 	907
f 908 	803 	807
f 807 	811 	815
f 815 	819 	822
f 822 	826 	909
f 910 	831 	835
f 925 	911 	678
f 678 	840 	844
f 844 	848 	926
f 912 	851 	855
f 855 	859 	913
f 913 	862 	914
f 914 	865 	927
f 928 	866 	870
f 870 	874 	878
f 915 	881 	885
f 885 	889 	893
f 893 	897 	929
f 583 	591 	917
f 919 	603 	611
f 611 	617 	625
f 633 	920 	930
f 638 	641 	649
f 931 	901 	676
f 676 	922 	932
f 689 	697 	933
f 902 	903 	707
f 723 	731 	923
f 934 	905 	745
f 906 	758 	935
f 936 	759 	767
f 767 	775 	777
f 937 	778 	786
f 794 	907 	938
f 908 	807 	815
f 815 	822 	909
f 910 	835 	939
f 940 	925 	678
f 941 	912 	855
f 855 	913 	914
f 942 	928 	870
f 870 	878 	943
f 944 	915 	885
f 945 	638 	649
f 676 	932 	946
f 947 	902 	707
f 948 	934 	745
f 949 	936 	767
f 767 	777 	950
f 815 	909 	951
f 910 	939 	952
f 953 	940 	678
f 926 	941 	855
f 870 	943 	954
f 955 	944 	885
f 956 	945 	649
f 931 	676 	946
f 957 	947 	707
f 767 	950 	958
f 815 	951 	959
f 960 	953 	678
f 844 	926 	855
f 870 	954 	961
f 962 	931 	946
f 767 	958 	963
f 815 	959 	964
f 965 	960 	678
f 870 	961 	966
f 962 	946 	967
f 965 	678 	844
f 962 	967 	968
f 969 	965 	844
f 962 	968 	681
f 970 	969 	844
f 962 	681 	689
f 952 	970 	844
f 971 	962 	689
f 910 	952 	844
f 972 	971 	689
f 910 	844 	855
f 973 	972 	689
f 974 	910 	855
f 975 	973 	689
f 976 	974 	855
f 977 	975 	689
f 978 	976 	855
f 979 	977 	689
f 964 	978 	855
f 980 	979 	689
f 815 	964 	855
f 981 	980 	689
f 815 	855 	914
f 982 	981 	689
f 815 	914 	927
f 982 	689 	933
f 815 	927 	983
f 984 	982 	933
f 815 	983 	985
f 921 	984 	933
f 815 	985 	986
f 665 	921 	933
f 815 	986 	987
f 665 	933 	988
f 815 	987 	989
f 665 	988 	990
f 815 	989 	991
f 665 	990 	992
f 815 	991 	993
f 665 	992 	994
f 815 	993 	995
f 665 	994 	996
f 815 	995 	997
f 657 	665 	996
f 815 	997 	998
f 657 	996 	999
f 815 	998 	1000
f 657 	999 	1001
f 815 	1000 	1002
f 657 	1001 	1003
f 908 	815 	1002
f 657 	1003 	1004
f 1005 	908 	1002
f 657 	1004 	1006
f 1005 	1002 	1007
f 657 	1006 	1008
f 1005 	1007 	1009
f 657 	1008 	1010
f 1011 	1005 	1009
f 657 	1010 	1012
f 1011 	1009 	1013
f 657 	1012 	1014
f 1011 	1013 	942
f 649 	657 	1014
f 1011 	942 	870
f 649 	1014 	1015
f 1016 	1011 	870
f 649 	1015 	1017
f 1018 	1016 	870
f 649 	1017 	1019
f 1020 	1018 	870
f 649 	1019 	1021
f 1022 	1020 	870
f 649 	1021 	1023
f 1024 	1022 	870
f 649 	1023 	1025
f 938 	1024 	870
f 649 	1025 	1026
f 794 	938 	870
f 956 	649 	1026
f 794 	870 	966
f 1027 	956 	1026
f 794 	966 	1028
f 1027 	1026 	1029
f 794 	1028 	1030
f 1027 	1029 	957
f 794 	1030 	1031
f 1027 	957 	707
f 786 	794 	1031
f 1032 	1027 	707
f 786 	1031 	1033
f 1034 	1032 	707
f 786 	1033 	1035
f 1036 	1034 	707
f 786 	1035 	1037
f 1038 	1036 	707
f 786 	1037 	1039
f 1040 	1038 	707
f 786 	1039 	1041
f 1042 	1040 	707
f 786 	1041 	1043
f 1044 	1042 	707
f 786 	1043 	1045
f 1044 	707 	715
f 786 	1045 	1046
f 1047 	1044 	715
f 786 	1046 	1048
f 1049 	1047 	715
f 937 	786 	1048
f 1050 	1049 	715
f 1051 	937 	1048
f 1052 	1050 	715
f 1051 	1048 	1053
f 1054 	1052 	715
f 1051 	1053 	955
f 1055 	1054 	715
f 1051 	955 	885
f 1056 	1055 	715
f 1057 	1051 	885
f 1058 	1056 	715
f 1059 	1057 	885
f 1060 	1058 	715
f 1061 	1059 	885
f 1060 	715 	723
f 1062 	1061 	885
f 1063 	1060 	723
f 1064 	1062 	885
f 1065 	1063 	723
f 1066 	1064 	885
f 1067 	1065 	723
f 1068 	1066 	885
f 1069 	1067 	723
f 1068 	885 	893
f 1070 	1069 	723
f 1071 	1068 	893
f 1072 	1070 	723
f 963 	1071 	893
f 1073 	1072 	723
f 963 	893 	929
f 1074 	1073 	723
f 767 	963 	929
f 1075 	1074 	723
f 767 	929 	1076
f 1075 	723 	923
f 767 	1076 	1077
f 1078 	1075 	923
f 767 	1077 	1079
f 1080 	1078 	923
f 767 	1079 	1081
f 1082 	1080 	923
f 767 	1081 	1083
f 930 	1082 	923
f 767 	1083 	1084
f 633 	930 	923
f 767 	1084 	1085
f 633 	923 	1086
f 767 	1085 	1087
f 633 	1086 	1088
f 767 	1087 	1089
f 633 	1088 	1090
f 767 	1089 	1091
f 633 	1090 	1092
f 767 	1091 	1093
f 633 	1092 	1094
f 949 	767 	1093
f 633 	1094 	1095
f 1096 	949 	1093
f 633 	1095 	1097
f 1098 	1096 	1093
f 625 	633 	1097
f 1098 	1093 	1099
f 625 	1097 	1100
f 1098 	1099 	1101
f 625 	1100 	1102
f 1098 	1101 	916
f 625 	1102 	1103
f 1098 	916 	575
f 625 	1103 	1104
f 1105 	1098 	575
f 625 	1104 	1106
f 1107 	1105 	575
f 625 	1106 	1108
f 1109 	1107 	575
f 625 	1108 	1110
f 1111 	1109 	575
f 611 	625 	1110
f 1111 	575 	583
f 611 	1110 	1112
f 1113 	1111 	583
f 611 	1112 	736
f 1114 	1113 	583
f 611 	736 	924
f 1115 	1114 	583
f 611 	924 	1116
f 1117 	1115 	583
f 611 	1116 	1118
f 1119 	1117 	583
f 611 	1118 	1120
f 1121 	1119 	583
f 611 	1120 	1122
f 1123 	1121 	583
f 611 	1122 	1124
f 1125 	1123 	583
f 611 	1124 	1126
f 1125 	583 	917
f 611 	1126 	1127
f 1128 	1125 	917
f 611 	1127 	1129
f 1130 	1128 	917
f 611 	1129 	1131
f 1132 	1130 	917
f 611 	1131 	1133
f 935 	1132 	917
f 919 	611 	1133
f 935 	917 	1134
f 1135 	919 	1133
f 906 	935 	1134
f 1136 	1135 	1133
f 906 	1134 	1137
f 1138 	1136 	1133
f 906 	1137 	596
f 1138 	1133 	1139
f 906 	596 	918
f 1138 	1139 	948
f 906 	918 	1140
f 1138 	948 	745
f 745 	906 	1140
f 1141 	1138 	745
f 745 	1140 	1142
f 1143 	1141 	745
f 745 	1142 	1144
f 1144 	1143 	745
f 2 	1 	574
f 1 	575 	574
f 1 	5 	575
f 5 	576 	575
f 5 	4 	576
f 4 	577 	576
f 4 	7 	577
f 7 	578 	577
f 7 	6 	578
f 6 	579 	578
f 6 	9 	579
f 9 	580 	579
f 9 	8 	580
f 8 	581 	580
f 8 	11 	581
f 11 	582 	581
f 11 	10 	582
f 10 	583 	582
f 10 	13 	583
f 13 	584 	583
f 13 	12 	584
f 12 	585 	584
f 12 	15 	585
f 15 	586 	585
f 15 	14 	586
f 14 	587 	586
f 14 	17 	587
f 17 	588 	587
f 17 	16 	588
f 16 	589 	588
f 16 	19 	589
f 19 	590 	589
f 19 	18 	590
f 18 	591 	590
f 18 	21 	591
f 21 	592 	591
f 21 	20 	592
f 20 	593 	592
f 20 	23 	593
f 23 	594 	593
f 23 	22 	594
f 22 	595 	594
f 22 	345 	595
f 345 	917 	595
f 345 	562 	917
f 562 	1134 	917
f 562 	565 	1134
f 565 	1137 	1134
f 565 	26 	1137
f 26 	596 	1137
f 26 	25 	596
f 25 	597 	596
f 25 	24 	597
f 24 	598 	597
f 24 	327 	598
f 327 	899 	598
f 327 	346 	899
f 346 	918 	899
f 346 	568 	918
f 568 	1140 	918
f 568 	570 	1140
f 570 	1142 	1140
f 570 	572 	1142
f 572 	1144 	1142
f 572 	571 	1144
f 571 	1143 	1144
f 571 	569 	1143
f 569 	1141 	1143
f 569 	566 	1141
f 566 	1138 	1141
f 566 	564 	1138
f 564 	1136 	1138
f 564 	563 	1136
f 563 	1135 	1136
f 563 	347 	1135
f 347 	919 	1135
f 347 	29 	919
f 29 	599 	919
f 29 	28 	599
f 28 	600 	599
f 28 	27 	600
f 27 	601 	600
f 27 	31 	601
f 31 	602 	601
f 31 	30 	602
f 30 	603 	602
f 30 	33 	603
f 33 	604 	603
f 33 	32 	604
f 32 	605 	604
f 32 	35 	605
f 35 	606 	605
f 35 	34 	606
f 34 	607 	606
f 34 	37 	607
f 37 	608 	607
f 37 	36 	608
f 36 	609 	608
f 36 	39 	609
f 39 	610 	609
f 39 	38 	610
f 38 	611 	610
f 38 	41 	611
f 41 	612 	611
f 41 	40 	612
f 40 	613 	612
f 40 	43 	613
f 43 	614 	613
f 43 	42 	614
f 42 	615 	614
f 42 	45 	615
f 45 	616 	615
f 45 	44 	616
f 44 	617 	616
f 44 	47 	617
f 47 	618 	617
f 47 	46 	618
f 46 	619 	618
f 46 	49 	619
f 49 	620 	619
f 49 	48 	620
f 48 	621 	620
f 48 	51 	621
f 51 	622 	621
f 51 	50 	622
f 50 	623 	622
f 50 	53 	623
f 53 	624 	623
f 53 	52 	624
f 52 	625 	624
f 52 	55 	625
f 55 	626 	625
f 55 	54 	626
f 54 	627 	626
f 54 	57 	627
f 57 	628 	627
f 57 	56 	628
f 56 	629 	628
f 56 	59 	629
f 59 	630 	629
f 59 	58 	630
f 58 	631 	630
f 58 	61 	631
f 61 	632 	631
f 61 	60 	632
f 60 	633 	632
f 60 	63 	633
f 63 	634 	633
f 63 	62 	634
f 62 	635 	634
f 62 	65 	635
f 65 	636 	635
f 65 	64 	636
f 64 	637 	636
f 64 	348 	637
f 348 	920 	637
f 348 	358 	920
f 358 	930 	920
f 358 	510 	930
f 510 	1082 	930
f 510 	508 	1082
f 508 	1080 	1082
f 508 	506 	1080
f 506 	1078 	1080
f 506 	503 	1078
f 503 	1075 	1078
f 503 	502 	1075
f 502 	1074 	1075
f 502 	501 	1074
f 501 	1073 	1074
f 501 	500 	1073
f 500 	1072 	1073
f 500 	498 	1072
f 498 	1070 	1072
f 498 	497 	1070
f 497 	1069 	1070
f 497 	495 	1069
f 495 	1067 	1069
f 495 	493 	1067
f 493 	1065 	1067
f 493 	491 	1065
f 491 	1063 	1065
f 491 	488 	1063
f 488 	1060 	1063
f 488 	486 	1060
f 486 	1058 	1060
f 486 	484 	1058
f 484 	1056 	1058
f 484 	483 	1056
f 483 	1055 	1056
f 483 	482 	1055
f 482 	1054 	1055
f 482 	480 	1054
f 480 	1052 	1054
f 480 	478 	1052
f 478 	1050 	1052
f 478 	477 	1050
f 477 	1049 	1050
f 477 	475 	1049
f 475 	1047 	1049
f 475 	472 	1047
f 472 	1044 	1047
f 472 	470 	1044
f 470 	1042 	1044
f 470 	468 	1042
f 468 	1040 	1042
f 468 	466 	1040
f 466 	1038 	1040
f 466 	464 	1038
f 464 	1036 	1038
f 464 	462 	1036
f 462 	1034 	1036
f 462 	460 	1034
f 460 	1032 	1034
f 460 	455 	1032
f 455 	1027 	1032
f 455 	384 	1027
f 384 	956 	1027
f 384 	373 	956
f 373 	945 	956
f 373 	68 	945
f 68 	638 	945
f 68 	67 	638
f 67 	639 	638
f 67 	66 	639
f 66 	640 	639
f 66 	328 	640
f 328 	900 	640
f 328 	71 	900
f 71 	641 	900
f 71 	70 	641
f 70 	642 	641
f 70 	69 	642
f 69 	643 	642
f 69 	73 	643
f 73 	644 	643
f 73 	72 	644
f 72 	645 	644
f 72 	75 	645
f 75 	646 	645
f 75 	74 	646
f 74 	647 	646
f 74 	77 	647
f 77 	648 	647
f 77 	76 	648
f 76 	649 	648
f 76 	79 	649
f 79 	650 	649
f 79 	78 	650
f 78 	651 	650
f 78 	81 	651
f 81 	652 	651
f 81 	80 	652
f 80 	653 	652
f 80 	83 	653
f 83 	654 	653
f 83 	82 	654
f 82 	655 	654
f 82 	85 	655
f 85 	656 	655
f 85 	84 	656
f 84 	657 	656
f 84 	87 	657
f 87 	658 	657
f 87 	86 	658
f 86 	659 	658
f 86 	89 	659
f 89 	660 	659
f 89 	88 	660
f 88 	661 	660
f 88 	91 	661
f 91 	662 	661
f 91 	90 	662
f 90 	663 	662
f 90 	93 	663
f 93 	664 	663
f 93 	92 	664
f 92 	665 	664
f 92 	95 	665
f 95 	666 	665
f 95 	94 	666
f 94 	667 	666
f 94 	97 	667
f 97 	668 	667
f 97 	96 	668
f 96 	669 	668
f 96 	349 	669
f 349 	921 	669
f 349 	412 	921
f 412 	984 	921
f 412 	410 	984
f 410 	982 	984
f 410 	409 	982
f 409 	981 	982
f 409 	408 	981
f 408 	980 	981
f 408 	407 	980
f 407 	979 	980
f 407 	405 	979
f 405 	977 	979
f 405 	403 	977
f 403 	975 	977
f 403 	401 	975
f 401 	973 	975
f 401 	400 	973
f 400 	972 	973
f 400 	399 	972
f 399 	971 	972
f 399 	390 	971
f 390 	962 	971
f 390 	359 	962
f 359 	931 	962
f 359 	329 	931
f 329 	901 	931
f 329 	100 	901
f 100 	670 	901
f 100 	99 	670
f 99 	671 	670
f 99 	98 	671
f 98 	672 	671
f 98 	102 	672
f 102 	673 	672
f 102 	101 	673
f 101 	674 	673
f 101 	104 	674
f 104 	675 	674
f 104 	103 	675
f 103 	676 	675
f 103 	106 	676
f 106 	677 	676
f 106 	105 	677
f 105 	678 	677
f 105 	266 	678
f 266 	837 	678
f 266 	265 	837
f 265 	838 	837
f 265 	268 	838
f 268 	839 	838
f 268 	267 	839
f 267 	840 	839
f 267 	270 	840
f 270 	841 	840
f 270 	269 	841
f 269 	842 	841
f 269 	272 	842
f 272 	843 	842
f 272 	271 	843
f 271 	844 	843
f 271 	274 	844
f 274 	845 	844
f 274 	273 	845
f 273 	846 	845
f 273 	276 	846
f 276 	847 	846
f 276 	275 	847
f 275 	848 	847
f 275 	354 	848
f 354 	926 	848
f 354 	369 	926
f 369 	941 	926
f 369 	340 	941
f 340 	912 	941
f 340 	279 	912
f 279 	849 	912
f 279 	278 	849
f 278 	850 	849
f 278 	277 	850
f 277 	851 	850
f 277 	281 	851
f 281 	852 	851
f 281 	280 	852
f 280 	853 	852
f 280 	283 	853
f 283 	854 	853
f 283 	282 	854
f 282 	855 	854
f 282 	285 	855
f 285 	856 	855
f 285 	284 	856
f 284 	857 	856
f 284 	287 	857
f 287 	858 	857
f 287 	286 	858
f 286 	859 	858
f 286 	341 	859
f 341 	913 	859
f 341 	290 	913
f 290 	860 	913
f 290 	289 	860
f 289 	861 	860
f 289 	288 	861
f 288 	862 	861
f 288 	342 	862
f 342 	914 	862
f 342 	293 	914
f 293 	863 	914
f 293 	292 	863
f 292 	864 	863
f 292 	291 	864
f 291 	865 	864
f 291 	355 	865
f 355 	927 	865
f 355 	411 	927
f 411 	983 	927
f 411 	413 	983
f 413 	985 	983
f 413 	414 	985
f 414 	986 	985
f 414 	415 	986
f 415 	987 	986
f 415 	417 	987
f 417 	989 	987
f 417 	419 	989
f 419 	991 	989
f 419 	421 	991
f 421 	993 	991
f 421 	423 	993
f 423 	995 	993
f 423 	425 	995
f 425 	997 	995
f 425 	426 	997
f 426 	998 	997
f 426 	428 	998
f 428 	1000 	998
f 428 	430 	1000
f 430 	1002 	1000
f 430 	435 	1002
f 435 	1007 	1002
f 435 	437 	1007
f 437 	1009 	1007
f 437 	441 	1009
f 441 	1013 	1009
f 441 	370 	1013
f 370 	942 	1013
f 370 	356 	942
f 356 	928 	942
f 356 	296 	928
f 296 	866 	928
f 296 	295 	866
f 295 	867 	866
f 295 	294 	867
f 294 	868 	867
f 294 	298 	868
f 298 	869 	868
f 298 	297 	869
f 297 	870 	869
f 297 	300 	870
f 300 	871 	870
f 300 	299 	871
f 299 	872 	871
f 299 	302 	872
f 302 	873 	872
f 302 	301 	873
f 301 	874 	873
f 301 	304 	874
f 304 	875 	874
f 304 	303 	875
f 303 	876 	875
f 303 	306 	876
f 306 	877 	876
f 306 	305 	877
f 305 	878 	877
f 305 	371 	878
f 371 	943 	878
f 371 	382 	943
f 382 	954 	943
f 382 	389 	954
f 389 	961 	954
f 389 	394 	961
f 394 	966 	961
f 394 	456 	966
f 456 	1028 	966
f 456 	458 	1028
f 458 	1030 	1028
f 458 	459 	1030
f 459 	1031 	1030
f 459 	461 	1031
f 461 	1033 	1031
f 461 	463 	1033
f 463 	1035 	1033
f 463 	465 	1035
f 465 	1037 	1035
f 465 	467 	1037
f 467 	1039 	1037
f 467 	469 	1039
f 469 	1041 	1039
f 469 	471 	1041
f 471 	1043 	1041
f 471 	473 	1043
f 473 	1045 	1043
f 473 	474 	1045
f 474 	1046 	1045
f 474 	476 	1046
f 476 	1048 	1046
f 476 	481 	1048
f 481 	1053 	1048
f 481 	383 	1053
f 383 	955 	1053
f 383 	372 	955
f 372 	944 	955
f 372 	343 	944
f 343 	915 	944
f 343 	309 	915
f 309 	879 	915
f 309 	308 	879
f 308 	880 	879
f 308 	307 	880
f 307 	881 	880
f 307 	311 	881
f 311 	882 	881
f 311 	310 	882
f 310 	883 	882
f 310 	313 	883
f 313 	884 	883
f 313 	312 	884
f 312 	885 	884
f 312 	315 	885
f 315 	886 	885
f 315 	314 	886
f 314 	887 	886
f 314 	317 	887
f 317 	888 	887
f 317 	316 	888
f 316 	889 	888
f 316 	319 	889
f 319 	890 	889
f 319 	318 	890
f 318 	891 	890
f 318 	321 	891
f 321 	892 	891
f 321 	320 	892
f 320 	893 	892
f 320 	323 	893
f 323 	894 	893
f 323 	322 	894
f 322 	895 	894
f 322 	325 	895
f 325 	896 	895
f 325 	324 	896
f 324 	897 	896
f 324 	357 	897
f 357 	929 	897
f 357 	504 	929
f 504 	1076 	929
f 504 	505 	1076
f 505 	1077 	1076
f 505 	507 	1077
f 507 	1079 	1077
f 507 	509 	1079
f 509 	1081 	1079
f 509 	511 	1081
f 511 	1083 	1081
f 511 	512 	1083
f 512 	1084 	1083
f 512 	513 	1084
f 513 	1085 	1084
f 513 	515 	1085
f 515 	1087 	1085
f 515 	517 	1087
f 517 	1089 	1087
f 517 	519 	1089
f 519 	1091 	1089
f 519 	521 	1091
f 521 	1093 	1091
f 521 	527 	1093
f 527 	1099 	1093
f 527 	529 	1099
f 529 	1101 	1099
f 529 	344 	1101
f 344 	916 	1101
f 344 	326 	916
f 326 	898 	916
f 326 	3 	898
f 3 	573 	898
f 3 	2 	573
f 2 	574 	573
f 387 	392 	959
f 392 	964 	959
f 392 	406 	964
f 406 	978 	964
f 406 	404 	978
f 404 	976 	978
f 404 	402 	976
f 402 	974 	976
f 402 	338 	974
f 338 	910 	974
f 338 	259 	910
f 259 	829 	910
f 259 	258 	829
f 258 	830 	829
f 258 	257 	830
f 257 	831 	830
f 257 	261 	831
f 261 	832 	831
f 261 	260 	832
f 260 	833 	832
f 260 	263 	833
f 263 	834 	833
f 263 	262 	834
f 262 	835 	834
f 262 	367 	835
f 367 	939 	835
f 367 	380 	939
f 380 	952 	939
f 380 	398 	952
f 398 	970 	952
f 398 	397 	970
f 397 	969 	970
f 397 	393 	969
f 393 	965 	969
f 393 	388 	965
f 388 	960 	965
f 388 	381 	960
f 381 	953 	960
f 381 	368 	953
f 368 	940 	953
f 368 	353 	940
f 353 	925 	940
f 353 	339 	925
f 339 	911 	925
f 339 	264 	911
f 264 	836 	911
f 264 	108 	836
f 108 	679 	836
f 108 	107 	679
f 107 	680 	679
f 107 	350 	680
f 350 	922 	680
f 350 	360 	922
f 360 	932 	922
f 360 	374 	932
f 374 	946 	932
f 374 	395 	946
f 395 	967 	946
f 395 	396 	967
f 396 	968 	967
f 396 	111 	968
f 111 	681 	968
f 111 	110 	681
f 110 	682 	681
f 110 	109 	682
f 109 	683 	682
f 109 	113 	683
f 113 	684 	683
f 113 	112 	684
f 112 	685 	684
f 112 	115 	685
f 115 	686 	685
f 115 	114 	686
f 114 	687 	686
f 114 	117 	687
f 117 	688 	687
f 117 	116 	688
f 116 	689 	688
f 116 	119 	689
f 119 	690 	689
f 119 	118 	690
f 118 	691 	690
f 118 	121 	691
f 121 	692 	691
f 121 	120 	692
f 120 	693 	692
f 120 	123 	693
f 123 	694 	693
f 123 	122 	694
f 122 	695 	694
f 122 	125 	695
f 125 	696 	695
f 125 	124 	696
f 124 	697 	696
f 124 	361 	697
f 361 	933 	697
f 361 	416 	933
f 416 	988 	933
f 416 	418 	988
f 418 	990 	988
f 418 	420 	990
f 420 	992 	990
f 420 	422 	992
f 422 	994 	992
f 422 	424 	994
f 424 	996 	994
f 424 	427 	996
f 427 	999 	996
f 427 	429 	999
f 429 	1001 	999
f 429 	431 	1001
f 431 	1003 	1001
f 431 	432 	1003
f 432 	1004 	1003
f 432 	434 	1004
f 434 	1006 	1004
f 434 	436 	1006
f 436 	1008 	1006
f 436 	438 	1008
f 438 	1010 	1008
f 438 	440 	1010
f 440 	1012 	1010
f 440 	442 	1012
f 442 	1014 	1012
f 442 	443 	1014
f 443 	1015 	1014
f 443 	445 	1015
f 445 	1017 	1015
f 445 	447 	1017
f 447 	1019 	1017
f 447 	449 	1019
f 449 	1021 	1019
f 449 	451 	1021
f 451 	1023 	1021
f 451 	453 	1023
f 453 	1025 	1023
f 453 	454 	1025
f 454 	1026 	1025
f 454 	457 	1026
f 457 	1029 	1026
f 457 	385 	1029
f 385 	957 	1029
f 385 	375 	957
f 375 	947 	957
f 375 	330 	947
f 330 	902 	947
f 330 	128 	902
f 128 	698 	902
f 128 	127 	698
f 127 	699 	698
f 127 	126 	699
f 126 	700 	699
f 126 	331 	700
f 331 	903 	700
f 331 	131 	903
f 131 	701 	903
f 131 	130 	701
f 130 	702 	701
f 130 	129 	702
f 129 	703 	702
f 129 	133 	703
f 133 	704 	703
f 133 	132 	704
f 132 	705 	704
f 132 	135 	705
f 135 	706 	705
f 135 	134 	706
f 134 	707 	706
f 134 	137 	707
f 137 	708 	707
f 137 	136 	708
f 136 	709 	708
f 136 	139 	709
f 139 	710 	709
f 139 	138 	710
f 138 	711 	710
f 138 	141 	711
f 141 	712 	711
f 141 	140 	712
f 140 	713 	712
f 140 	143 	713
f 143 	714 	713
f 143 	142 	714
f 142 	715 	714
f 142 	145 	715
f 145 	716 	715
f 145 	144 	716
f 144 	717 	716
f 144 	147 	717
f 147 	718 	717
f 147 	146 	718
f 146 	719 	718
f 146 	149 	719
f 149 	720 	719
f 149 	148 	720
f 148 	721 	720
f 148 	151 	721
f 151 	722 	721
f 151 	150 	722
f 150 	723 	722
f 150 	153 	723
f 153 	724 	723
f 153 	152 	724
f 152 	725 	724
f 152 	155 	725
f 155 	726 	725
f 155 	154 	726
f 154 	727 	726
f 154 	157 	727
f 157 	728 	727
f 157 	156 	728
f 156 	729 	728
f 156 	159 	729
f 159 	730 	729
f 159 	158 	730
f 158 	731 	730
f 158 	161 	731
f 161 	732 	731
f 161 	160 	732
f 160 	733 	732
f 160 	163 	733
f 163 	734 	733
f 163 	162 	734
f 162 	735 	734
f 162 	351 	735
f 351 	923 	735
f 351 	514 	923
f 514 	1086 	923
f 514 	516 	1086
f 516 	1088 	1086
f 516 	518 	1088
f 518 	1090 	1088
f 518 	520 	1090
f 520 	1092 	1090
f 520 	522 	1092
f 522 	1094 	1092
f 522 	523 	1094
f 523 	1095 	1094
f 523 	525 	1095
f 525 	1097 	1095
f 525 	528 	1097
f 528 	1100 	1097
f 528 	530 	1100
f 530 	1102 	1100
f 530 	531 	1102
f 531 	1103 	1102
f 531 	532 	1103
f 532 	1104 	1103
f 532 	534 	1104
f 534 	1106 	1104
f 534 	536 	1106
f 536 	1108 	1106
f 536 	538 	1108
f 538 	1110 	1108
f 538 	540 	1110
f 540 	1112 	1110
f 540 	166 	1112
f 166 	736 	1112
f 166 	165 	736
f 165 	737 	736
f 165 	164 	737
f 164 	738 	737
f 164 	332 	738
f 332 	904 	738
f 332 	352 	904
f 352 	924 	904
f 352 	544 	924
f 544 	1116 	924
f 544 	546 	1116
f 546 	1118 	1116
f 546 	548 	1118
f 548 	1120 	1118
f 548 	550 	1120
f 550 	1122 	1120
f 550 	552 	1122
f 552 	1124 	1122
f 552 	554 	1124
f 554 	1126 	1124
f 554 	555 	1126
f 555 	1127 	1126
f 555 	557 	1127
f 557 	1129 	1127
f 557 	559 	1129
f 559 	1131 	1129
f 559 	561 	1131
f 561 	1133 	1131
f 561 	567 	1133
f 567 	1139 	1133
f 567 	376 	1139
f 376 	948 	1139
f 376 	362 	948
f 362 	934 	948
f 362 	333 	934
f 333 	905 	934
f 333 	169 	905
f 169 	739 	905
f 169 	168 	739
f 168 	740 	739
f 168 	167 	740
f 167 	741 	740
f 167 	171 	741
f 171 	742 	741
f 171 	170 	742
f 170 	743 	742
f 170 	173 	743
f 173 	744 	743
f 173 	172 	744
f 172 	745 	744
f 172 	175 	745
f 175 	746 	745
f 175 	174 	746
f 174 	747 	746
f 174 	177 	747
f 177 	748 	747
f 177 	176 	748
f 176 	749 	748
f 176 	179 	749
f 179 	750 	749
f 179 	178 	750
f 178 	751 	750
f 178 	334 	751
f 334 	906 	751
f 334 	182 	906
f 182 	752 	906
f 182 	181 	752
f 181 	753 	752
f 181 	180 	753
f 180 	754 	753
f 180 	184 	754
f 184 	755 	754
f 184 	183 	755
f 183 	756 	755
f 183 	186 	756
f 186 	757 	756
f 186 	185 	757
f 185 	758 	757
f 185 	363 	758
f 363 	935 	758
f 363 	560 	935
f 560 	1132 	935
f 560 	558 	1132
f 558 	1130 	1132
f 558 	556 	1130
f 556 	1128 	1130
f 556 	553 	1128
f 553 	1125 	1128
f 553 	551 	1125
f 551 	1123 	1125
f 551 	549 	1123
f 549 	1121 	1123
f 549 	547 	1121
f 547 	1119 	1121
f 547 	545 	1119
f 545 	1117 	1119
f 545 	543 	1117
f 543 	1115 	1117
f 543 	542 	1115
f 542 	1114 	1115
f 542 	541 	1114
f 541 	1113 	1114
f 541 	539 	1113
f 539 	1111 	1113
f 539 	537 	1111
f 537 	1109 	1111
f 537 	535 	1109
f 535 	1107 	1109
f 535 	533 	1107
f 533 	1105 	1107
f 533 	526 	1105
f 526 	1098 	1105
f 526 	524 	1098
f 524 	1096 	1098
f 524 	377 	1096
f 377 	949 	1096
f 377 	364 	949
f 364 	936 	949
f 364 	189 	936
f 189 	759 	936
f 189 	188 	759
f 188 	760 	759
f 188 	187 	760
f 187 	761 	760
f 187 	191 	761
f 191 	762 	761
f 191 	190 	762
f 190 	763 	762
f 190 	193 	763
f 193 	764 	763
f 193 	192 	764
f 192 	765 	764
f 192 	195 	765
f 195 	766 	765
f 195 	194 	766
f 194 	767 	766
f 194 	197 	767
f 197 	768 	767
f 197 	196 	768
f 196 	769 	768
f 196 	199 	769
f 199 	770 	769
f 199 	198 	770
f 198 	771 	770
f 198 	201 	771
f 201 	772 	771
f 201 	200 	772
f 200 	773 	772
f 200 	203 	773
f 203 	774 	773
f 203 	202 	774
f 202 	775 	774
f 202 	205 	775
f 205 	776 	775
f 205 	204 	776
f 204 	777 	776
f 204 	378 	777
f 378 	950 	777
f 378 	386 	950
f 386 	958 	950
f 386 	391 	958
f 391 	963 	958
f 391 	499 	963
f 499 	1071 	963
f 499 	496 	1071
f 496 	1068 	1071
f 496 	494 	1068
f 494 	1066 	1068
f 494 	492 	1066
f 492 	1064 	1066
f 492 	490 	1064
f 490 	1062 	1064
f 490 	489 	1062
f 489 	1061 	1062
f 489 	487 	1061
f 487 	1059 	1061
f 487 	485 	1059
f 485 	1057 	1059
f 485 	479 	1057
f 479 	1051 	1057
f 479 	365 	1051
f 365 	937 	1051
f 365 	208 	937
f 208 	778 	937
f 208 	207 	778
f 207 	779 	778
f 207 	206 	779
f 206 	780 	779
f 206 	210 	780
f 210 	781 	780
f 210 	209 	781
f 209 	782 	781
f 209 	212 	782
f 212 	783 	782
f 212 	211 	783
f 211 	784 	783
f 211 	214 	784
f 214 	785 	784
f 214 	213 	785
f 213 	786 	785
f 213 	216 	786
f 216 	787 	786
f 216 	215 	787
f 215 	788 	787
f 215 	218 	788
f 218 	789 	788
f 218 	217 	789
f 217 	790 	789
f 217 	220 	790
f 220 	791 	790
f 220 	219 	791
f 219 	792 	791
f 219 	222 	792
f 222 	793 	792
f 222 	221 	793
f 221 	794 	793
f 221 	224 	794
f 224 	795 	794
f 224 	223 	795
f 223 	796 	795
f 223 	226 	796
f 226 	797 	796
f 226 	225 	797
f 225 	798 	797
f 225 	228 	798
f 228 	799 	798
f 228 	227 	799
f 227 	800 	799
f 227 	335 	800
f 335 	907 	800
f 335 	366 	907
f 366 	938 	907
f 366 	452 	938
f 452 	1024 	938
f 452 	450 	1024
f 450 	1022 	1024
f 450 	448 	1022
f 448 	1020 	1022
f 448 	446 	1020
f 446 	1018 	1020
f 446 	444 	1018
f 444 	1016 	1018
f 444 	439 	1016
f 439 	1011 	1016
f 439 	433 	1011
f 433 	1005 	1011
f 433 	336 	1005
f 336 	908 	1005
f 336 	231 	908
f 231 	801 	908
f 231 	230 	801
f 230 	802 	801
f 230 	229 	802
f 229 	803 	802
f 229 	233 	803
f 233 	804 	803
f 233 	232 	804
f 232 	805 	804
f 232 	235 	805
f 235 	806 	805
f 235 	234 	806
f 234 	807 	806
f 234 	237 	807
f 237 	808 	807
f 237 	236 	808
f 236 	809 	808
f 236 	239 	809
f 239 	810 	809
f 239 	238 	810
f 238 	811 	810
f 238 	241 	811
f 241 	812 	811
f 241 	240 	812
f 240 	813 	812
f 240 	243 	813
f 243 	814 	813
f 243 	242 	814
f 242 	815 	814
f 242 	245 	815
f 245 	816 	815
f 245 	244 	816
f 244 	817 	816
f 244 	247 	817
f 247 	818 	817
f 247 	246 	818
f 246 	819 	818
f 246 	249 	819
f 249 	820 	819
f 249 	248 	820
f 248 	821 	820
f 248 	252 	821
f 252 	822 	821
f 252 	251 	822
f 251 	823 	822
f 251 	250 	823
f 250 	824 	823
f 250 	254 	824
f 254 	825 	824
f 254 	253 	825
f 253 	826 	825
f 253 	256 	826
f 256 	827 	826
f 256 	255 	827
f 255 	828 	827
f 255 	337 	828
f 337 	909 	828
f 337 	379 	909
f 379 	951 	909
f 379 	387 	951
f 387 	959 	951
# 2288 faces

 #end of obj_0

