# Object Export From Tinkercad Server 2015

mtllib obj.mtl

o obj_0
v -27.1037 		61.6105 		0
v -27.5803 		62.1845 		0
v -27.6905 		62.6054 		0
v -26.3752 		60.9035 		0
v -26.5903 		61.0645 		0
v -25.4295 		60.7459 		0
v -26.1403 		60.7845 		0
v -24.4671 		60.7787 		0
v -24.7103 		60.7445 		0
v -29.2795 		57.9019 		0
v -29.0303 		57.9745 		0
v -27.5639 		58.1357 		0
v -30.0186 		57.0393 		0
v -29.5003 		57.7845 		0
v -30.5074 		55.2243 		0
v -30.4403 		56.2445 		0
v -30.3967 		53.5557 		0
v -30.4803 		54.1845 		0
v -30.0361 		52.3058 		0
v -30.2703 		52.9345 		0
v -29.4061 		51.1313 		0
v -29.7603 		51.6945 		0
v -28.1423 		50.283 		0
v -28.9903 		50.6345 		0
v -26.9101 		50.084 		0
v -27.2503 		50.0245 		0
v -24.7183 		49.5058 		0
v -25.2803 		49.6445 		0
v -25.9256 		49.9061 		0
v -23.57 		49.3987 		0
v -24.1503 		49.3945 		0
v -22.3555 		47.3848 		0
v -22.6103 		48.0245 		0
v -22.8025 		48.7193 		0
v -21.7432 		46.1191 		0
v -22.0803 		46.7545 		0
v -20.6321 		45.0646 		0
v -21.3503 		45.5345 		0
v -18.0605 		44.5864 		0
v -19.8503 		44.7145 		0
v -15.7365 		44.5965 		0
v -16.2503 		44.5545 		0
v -14.4151 		45.0701 		0
v -15.2303 		44.6845 		0
v -11.8978 		44.1457 		0
v -12.4403 		44.5045 		0
v -13.0256 		44.9899 		0
v -10.1685 		43.3351 		0
v -11.3403 		43.8145 		0
v -8.2123 		42.6931 		0
v -8.9803 		42.8945 		0
v -4.1503 		41.5345 		0
v -5.7965 		42.0141 		0
v -7.4403 		42.503 		0
v -1.7503 		41.0145 		0
v -2.9543 		41.2485 		0
v 0.6197 		40.9945 		0
v -0.559 		40.9427 		0
v 4.3897 		42.5345 		0
v 2.5226 		41.7038 		0
v 5.5997 		43.4145 		0
v 5.0094 		42.9512 		0
v 6.5997 		44.3945 		0
v 6.1132 		43.8912 		0
v 7.9897 		46.3145 		0
v 7.316 		45.3397 		0
v 8.7697 		47.9945 		0
v 8.4131 		47.1405 		0
v 11.8105 		53.0501 		0
v 11.3897 		52.6145 		0
v 10.2589 		51.6735 		0
v 12.7177 		54.2147 		0
v 12.2097 		53.5045 		0
v 13.447 		56.0088 		0
v 13.1697 		54.9545 		0
v 16.47 		58.0632 		0
v 16.2997 		58.0245 		0
v 15.3761 		57.9404 		0
v 16.9304 		58.4026 		0
v 16.6297 		58.1245 		0
v 17.3254 		58.9083 		0
v 17.2097 		58.7045 		0
v 17.4106 		59.407 		0
v 17.4097 		59.1245 		0
v 17.2224 		59.924 		0
v 17.3697 		59.6845 		0
v 15.4928 		60.7545 		0
v 17.0297 		60.1245 		0
v 12.8141 		61.7097 		0
v 13.9297 		61.3445 		0
v 10.6076 		64.051 		0
v 10.6397 		63.7745 		0
v 10.6379 		63.429 		0
v 10.4856 		64.5494 		0
v 10.5597 		64.3245 		0
v 9.4323 		65.4298 		0
v 10.3797 		64.7545 		0
v 13.967 		67.1209 		0
v 11.8997 		66.5345 		0
v 10.1853 		66.2929 		0
v 16.8786 		68.5235 		0
v 15.9797 		67.8245 		0
v 17.7979 		69.8028 		0
v 17.6797 		69.3345 		0
v 19.7197 		71.7045 		0
v 19.3767 		71.4729 		0
v 19.0297 		71.2445 		0
v 20.0897 		72.1545 		0
v 19.9241 		71.9185 		0
v 20.1097 		72.8445 		0
v 20.1305 		72.4994 		0
v 19.6897 		73.3945 		0
v 19.9305 		73.1458 		0
v 17.3297 		74.0745 		0
v 18.5281 		73.7875 		0
v 13.9697 		73.9945 		0
v 15.5874 		74.0432 		0
v 14.9296 		74.9861 		0
v 14.4297 		74.3445 		0
v 14.1395 		74.1401 		0
v 15.4909 		75.7905 		0
v 15.4097 		75.6445 		0
v 15.5895 		76.4923 		0
v 15.5497 		75.9445 		0
v 15.4327 		77.3568 		0
v 15.5797 		77.0345 		0
v 14.2966 		78.0988 		0
v 15.2197 		77.6345 		0
v 12.4101 		78.5545 		0
v 13.3297 		78.4745 		0
v 10.6264 		78.4564 		0
v 11.4797 		78.5545 		0
v 8.4458 		77.5583 		0
v 9.7897 		78.2845 		0
v 4.2284 		78.0151 		0
v 5.2797 		77.9445 		0
v 6.2077 		77.4007 		0
v 0.5621 		77.7198 		0
v 3.1597 		77.9845 		0
v -2.7355 		77.2552 		0
v -2.0303 		77.4045 		0
v -4.7002 		76.5188 		0
v -3.4303 		77.0645 		0
v -6.1983 		77.1304 		0
v -5.9803 		76.5745 		0
v -5.9641 		76.2659 		0
v -7.4255 		78.6498 		0
v -6.4703 		77.6545 		0
v -9.6736 		80.1198 		0
v -8.4603 		79.5545 		0
v -12.0237 		80.7396 		0
v -10.9403 		80.5745 		0
v -14.0467 		80.8288 		0
v -13.1203 		80.8345 		0
v -15.6656 		80.6228 		0
v -14.9703 		80.7745 		0
v -17.7011 		79.8691 		0
v -16.3503 		80.4245 		0
v -19.1939 		79.1945 		0
v -19.0403 		79.2845 		0
v -19.6173 		78.6278 		0
v -19.3303 		79.0845 		0
v -19.9286 		77.9116 		0
v -19.8803 		78.1545 		0
v -25.5699 		80.3753 		0
v -24.7003 		79.9245 		0
v -24.001 		79.4832 		0
v -26.9744 		81.0279 		0
v -26.4503 		80.8045 		0
v -28.6387 		81.2907 		0
v -27.5103 		81.2045 		0
v -30.5277 		80.9753 		0
v -29.7603 		81.2745 		0
v -31.6267 		80.0397 		0
v -31.2403 		80.5645 		0
v -32.067 		78.7212 		0
v -31.9303 		79.4545 		0
v -31.9631 		77.017 		0
v -32.1203 		77.9745 		0
v -31.461 		75.5901 		0
v -31.7303 		76.0745 		0
v -30.9944 		74.9303 		0
v -31.1503 		75.1245 		0
v -30.1224 		74.3145 		0
v -30.8203 		74.7545 		0
v -29.2599 		73.8403 		0
v -29.4103 		73.8945 		0
v -24.675 		71.0147 		0
v -25.1403 		71.2645 		0
v -27.1256 		72.5248 		0
v -29.6139 		71.6475 		0
v -29.1503 		70.7845 		0
v -29.1937 		69.9811 		0
v -30.7347 		72.785 		0
v -30.1903 		72.4445 		0
v -32.0492 		72.9211 		0
v -31.3303 		73.0145 		0
v -33.0204 		72.6303 		0
v -32.7703 		72.7445 		0
v -33.648 		71.8067 		0
v -33.2403 		72.4745 		0
v -34.0386 		70.5794 		0
v -33.9903 		71.1045 		0
v -31.9683 		70.7337 		0
v -32.0303 		70.5445 		0
v -31.8155 		70.292 		0
v -33.9874 		69.8379 		0
v -34.0303 		70.0445 		0
v -33.426 		69.1071 		0
v -33.9103 		69.6445 		0
v -32.3816 		68.238 		0
v -32.9103 		68.5945 		0
v -33.3403 		66.4245 		0
v -32.9652 		66.6351 		0
v -32.5903 		66.8445 		0
v -34.3403 		65.5245 		0
v -33.8483 		65.9845 		0
v -35.0403 		64.7645 		0
v -34.6988 		65.1513 		0
v -35.2803 		64.3045 		0
v -35.1794 		64.5415 		0
v -33.2779 		63.6559 		0
v -35.2803 		63.6915 		0
v -31.0332 		65.5933 		0
v -31.4603 		65.1945 		0
v -31.8504 		64.9698 		0
v -30.2946 		66.7586 		0
v -30.6403 		66.0245 		0
v -26.6159 		66.9556 		0
v -27.5603 		66.9845 		0
v -28.7665 		67.235 		0
v -25.0982 		67.019 		0
v -25.6703 		66.9645 		0
v -23.715 		67.3121 		0
v -24.5303 		67.1045 		0
v -22.2765 		68.1062 		0
v -22.9303 		67.5845 		0
v -21.3986 		69.3177 		0
v -21.6903 		68.7045 		0
v -21.1299 		70.288 		0
v -21.1703 		69.9645 		0
v -21.4461 		71.0608 		0
v -21.1503 		70.6045 		0
v -22.4164 		71.9606 		0
v -21.8003 		71.4845 		0
v -23.5544 		72.6708 		0
v -23.0603 		72.4045 		0
v -26.4202 		76.5043 		0
v -26.2703 		75.8045 		0
v -26.4267 		75.1358 		0
v -26.7525 		77.4139 		0
v -26.6303 		77.1945 		0
v -27.5535 		77.9514 		0
v -26.9103 		77.6045 		0
v -28.6967 		78.4305 		0
v -28.2203 		78.2645 		0
v -29.3855 		78.6072 		0
v -29.1803 		78.5745 		0
v -29.8418 		78.507 		0
v -29.5903 		78.6145 		0
v -23.2078 		76.7637 		0
v -24.3803 		77.3545 		0
v -25.3297 		77.9412 		0
v -21.4547 		76.0069 		0
v -22.0203 		76.2045 		0
v -20.4771 		75.7484 		0
v -20.8803 		75.8345 		0
v -19.3757 		75.6647 		0
v -20.0703 		75.6845 		0
v -18.5271 		75.6787 		0
v -18.6803 		75.6645 		0
v -17.7292 		76.117 		0
v -18.3803 		75.7145 		0
v -16.9433 		76.9583 		0
v -17.1203 		76.5645 		0
v -15.7403 		78.0145 		0
v -16.0089 		77.8633 		0
v -16.2903 		77.7245 		0
v -8.0271 		74.3088 		0
v -7.9703 		74.5945 		0
v -7.8896 		74.7691 		0
v -7.9464 		73.7597 		0
v -8.0503 		74.0245 		0
v -7.5771 		73.3504 		0
v -7.8003 		73.5145 		0
v -7.0487 		73.2021 		0
v -7.3303 		73.2245 		0
v -6.0415 		73.68 		0
v -6.7703 		73.2345 		0
v 7.0038 		74.8034 		0
v 6.6597 		74.8745 		0
v 5.7035 		75.4469 		0
v 7.9274 		75.1121 		0
v 7.3497 		74.8045 		0
v 10.4697 		74.0145 		0
v 11.2275 		74.5401 		0
v 12.0197 		75.0345 		0
v 9.7197 		72.7745 		0
v 10.0575 		73.4183 		0
v 9.7097 		72.0745 		0
v 9.6828 		72.4251 		0
v 10.0397 		71.6245 		0
v 9.8536 		71.8361 		0
v 10.5497 		71.4145 		0
v 10.2856 		71.4911 		0
v 13.9297 		71.9945 		0
v 12.2362 		71.696 		0
v 16.1589 		71.3856 		0
v 16.2797 		71.5145 		0
v 16.6769 		71.8336 		0
v 15.9971 		70.8169 		0
v 16.0597 		71.2445 		0
v 7.9897 		67.8745 		0
v 9.7174 		68.2001 		0
v 11.4697 		68.4845 		0
v 6.5397 		66.7845 		0
v 7.2441 		67.3721 		0
v 6.2797 		66.4745 		0
v 6.3983 		66.6373 		0
v 6.1597 		65.9345 		0
v 6.2003 		66.2073 		0
v 6.3597 		65.4045 		0
v 6.2324 		65.6574 		0
v 8.7771 		62.3867 		0
v 8.6397 		62.9445 		0
v 8.6631 		63.2888 		0
v 9.0165 		61.6502 		0
v 8.9397 		61.8345 		0
v 9.9049 		60.8858 		0
v 9.1197 		61.4845 		0
v 12.1226 		59.9016 		0
v 10.7297 		60.3445 		0
v 11.9386 		57.9014 		0
v 12.1697 		58.3245 		0
v 12.8412 		58.9214 		0
v 11.5368 		56.5907 		0
v 11.7497 		57.4545 		0
v 8.4111 		55.1241 		0
v 8.8197 		54.1545 		0
v 8.8719 		53.5635 		0
v 7.4092 		56.7433 		0
v 7.9397 		56.0645 		0
v 6.1243 		58.0099 		0
v 6.8297 		57.3845 		0
v 3.8486 		59.4102 		0
v 5.3797 		58.5845 		0
v 0.5725 		60.772 		0
v 2.2797 		60.1645 		0
v -2.3798 		61.4489 		0
v -1.1603 		61.2945 		0
v -5.4656 		61.5579 		0
v -3.6103 		61.5345 		0
v -8.3409 		61.4343 		0
v -7.3203 		61.5345 		0
v -10.0143 		61.0197 		0
v -9.3503 		61.2745 		0
v -10.9627 		60.4228 		0
v -10.6503 		60.7045 		0
v -11.5361 		59.122 		0
v -11.2203 		60.0945 		0
v -11.7889 		57.515 		0
v -11.7803 		58.1245 		0
v -9.6602 		58.4473 		0
v -9.8003 		57.7845 		0
v -9.796 		57.4894 		0
v -11.5883 		56.2529 		0
v -11.7403 		56.9045 		0
v -11.071 		55.0134 		0
v -11.3903 		55.6145 		0
v -10.1164 		53.674 		0
v -10.7103 		54.4345 		0
v -8.0312 		51.9346 		0
v -9.4703 		52.9645 		0
v -4.7706 		50.2537 		0
v -6.5303 		50.9945 		0
v -2.4933 		49.4199 		0
v -2.9803 		49.5745 		0
v -0.4789 		48.9326 		0
v -2.0003 		49.2845 		0
v 2.4833 		48.587 		0
v 1.0497 		48.6345 		0
v 4.9589 		48.7533 		0
v 3.9197 		48.6145 		0
v 6.5315 		49.1749 		0
v 5.9897 		48.9445 		0
v -6.7803 		44.3945 		0
v -6.4302 		44.2699 		0
v -6.0803 		44.1445 		0
v -12.3503 		46.9745 		0
v -11.8177 		46.5645 		0
v -11.2903 		46.1445 		0
v -13.2303 		47.3645 		0
v -12.7833 		47.1842 		0
v -13.6803 		47.4345 		0
v -13.4547 		47.4175 		0
v -14.9703 		46.9945 		0
v -14.3283 		47.2313 		0
v -21.2903 		50.3745 		0
v -21.0132 		49.5558 		0
v -20.7403 		48.7345 		0
v -21.5203 		50.7545 		0
v -21.3923 		50.5747 		0
v -22.3503 		51.2545 		0
v -21.9214 		51.0316 		0
v -23.8503 		51.3745 		0
v -23.0947 		51.3294 		0
v -26.4044 		52.241 		0
v -26.2403 		52.1945 		0
v -25.4214 		51.8558 		0
v -26.8807 		52.175 		0
v -26.5703 		52.2645 		0
v -25.6803 		56.3645 		0
v -26.9839 		56.1922 		0
v -28.2803 		56.0445 		0
v -23.3903 		57.5345 		0
v -24.501 		56.8887 		0
v -22.3303 		59.0045 		0
v -22.8051 		58.2287 		0
v -22.0703 		60.8645 		0
v -22.1642 		59.9219 		0
v -22.1003 		61.2645 		0
v -22.0672 		61.0693 		0
v -23.0703 		62.5245 		0
v -22.5652 		61.9073 		0
v -23.5503 		62.8345 		0
v -23.2979 		62.7068 		0
v -25.5708 		64.7763 		0
v -25.6003 		64.4945 		0
v -25.7991 		64.0983 		0
v -25.7664 		65.3535 		0
v -25.5903 		65.0545 		0
v -26.3185 		65.7455 		0
v -25.9903 		65.6145 		0
v -28.9281 		64.6608 		0
v -26.6603 		65.7845 		0
v -33.2603 		63.5745 		0
v -35.1912 		62.8579 		0
v -35.2403 		63.0745 		0
v -34.6946 		62.1829 		0
v -35.1103 		62.6545 		0
v -34.044 		61.5899 		0
v -34.2503 		61.7345 		0
v -33.0489 		61.4445 		0
v -33.8203 		61.4845 		0
v -31.5641 		61.4799 		0
v -32.2703 		61.4445 		0
v -29.3166 		62.2848 		0
v -30.8703 		61.5745 		0
v -27.8303 		62.9145 		0
v -24.2303 		60.8045 		0
v -26.5703 		50.1445 		0
v 13.7297 		57.0545 		0
v 11.7097 		62.0945 		0
v 10.6397 		63.0845 		0
v 8.7897 		66.0045 		0
v 7.1197 		76.9545 		0
v -5.9103 		76.0445 		0
v -20.0003 		77.7245 		0
v -23.3003 		79.0445 		0
v -29.1103 		73.7845 		0
v -29.1803 		69.2645 		0
v -31.5503 		70.0545 		0
v -31.9203 		67.8745 		0
v -33.2703 		63.7345 		0
v -32.2403 		64.7445 		0
v -24.0503 		72.9345 		0
v -26.4903 		74.5245 		0
v -30.0603 		78.4245 		0
v -26.2803 		78.5245 		0
v -15.5517 		78.3081 		0
v -7.8203 		74.9445 		0
v 4.7397 		75.9845 		0
v 8.4997 		75.4545 		0
v 7.516 		64.5086 		0
v 8.6397 		63.6045 		0
v 13.2897 		59.4445 		0
v 8.9497 		53.1145 		0
v -9.7603 		57.1945 		0
v -7.5717 		44.5903 		0
v -24.6003 		51.5245 		0
v -27.1903 		52.0945 		0
v -24.4904 		62.7837 		0
v -25.9803 		63.7045 		0
v -31.2103 		63.5545 		0
v -33.2031 		63.498 		0
v -26.1103 		58.3345 		0
v -23.0503 		49.3345 		0
v -13.6203 		45.3645 		0
v 8.9653 		49.3612 		0
v 9.2397 		50.6745 		0
v 14.4797 		57.8045 		0
v 18.4439 		70.7774 		0
v -24.2103 		70.7645 		0
v -31.3184 		69.8831 		0
v -32.7701 		64.2511 		0
v -29.9003 		67.3645 		0
v -16.5483 		77.5562 		0
v -5.3103 		74.1345 		0
v 12.5783 		75.4403 		0
v 16.9597 		72.1045 		0
v 13.2782 		69.0121 		0
v -9.4603 		59.0745 		0
v -9.6441 		56.745 		0
v 6.9997 		49.3445 		0
v -8.3603 		44.7945 		0
v -10.8278 		45.8361 		0
v -15.3351 		46.8123 		0
v -33.1303 		63.4445 		0
v 10.6744 		62.9162 		0
v 17.9097 		70.2745 		0
v -22.2883 		78.5313 		0
v -31.8503 		70.9145 		0
v -31.1103 		69.7745 		0
v -25.3408 		73.6954 		0
v -15.3603 		78.5945 		0
v -7.8444 		75.4858 		0
v -4.0686 		74.6635 		0
v 9.3778 		75.9139 		0
v 13.1197 		75.8645 		0
v 14.9883 		72.0688 		0
v 15.9097 		70.4045 		0
v 11.3097 		55.7345 		0
v -9.5003 		56.3045 		0
v -20.5225 		48.1814 		0
v -24.2281 		51.4378 		0
v -25.4203 		62.7445 		0
v 14.0663 		57.4729 		0
v 10.7397 		62.7645 		0
v -21.2603 		78.0545 		0
v -31.7356 		70.9618 		0
v -32.3843 		67.0491 		0
v -27.0905 		78.9108 		0
v -16.7803 		77.3645 		0
v -7.9103 		76.0245 		0
v -2.8103 		75.1545 		0
v 4.013 		76.0273 		0
v 16.0497 		72.1145 		0
v -9.2179 		59.2205 		0
v -9.2795 		55.9016 		0
v -10.3503 		45.5545 		0
v -20.2903 		47.6345 		0
v -27.4619 		52.1531 		0
v -25.9177 		63.4262 		0
v -32.1635 		63.4499 		0
v -23.7146 		70.4392 		0
v -31.6203 		70.9645 		0
v -32.0149 		67.5809 		0
v -32.2003 		67.2745 		0
v -27.9203 		79.2345 		0
v 10.2697 		76.3345 		0
v 16.5642 		72.1346 		0
v -8.9303 		59.3145 		0
v -9.0303 		55.5145 		0
v -9.3625 		45.1572 		0
v -20.1246 		47.3069 		0
v -25.8003 		63.1545 		0
v -23.2603 		70.0945 		0
v -8.0333 		76.3407 		0
v 10.9186 		76.4689 		0
v -8.0987 		59.4449 		0
v -8.5552 		54.9244 		0
v -19.9303 		47.0045 		0
v -25.6285 		62.9197 		0
v -31.347 		70.6079 		0
v -8.2003 		76.6345 		0
v 3.2697 		75.9845 		0
v -7.2603 		59.5345 		0
v -8.0403 		54.3745 		0
v -15.7003 		46.6345 		0
v -31.1103 		70.2145 		0
v 11.5797 		76.5545 		0
v -5.4807 		59.5543 		0
v -31.0827 		69.9708 		0
v -3.7003 		59.5345 		0
v -6.8102 		53.5171 		0
v -4.8774 		43.8068 		0
v -2.6706 		59.4743 		0
v -5.5303 		52.7345 		0
v -3.6703 		43.4845 		0
v -28.3098 		69.051 		0
v -1.6503 		59.3545 		0
v -3.9232 		52.068 		0
v -15.9528 		46.5813 		0
v -24.1584 		60.7507 		0
v -27.3103 		68.9645 		0
v -2.2903 		51.4545 		0
v -16.2103 		46.5545 		0
v -24.1103 		60.6745 		0
v -26.5108 		68.9493 		0
v -0.0844 		58.8817 		0
v -1.8728 		51.3263 		0
v -17.765 		46.5896 		0
v -24.1415 		60.2166 		0
v -25.7103 		68.9645 		0
v 1.4597 		58.3345 		0
v -1.4503 		51.2145 		0
v -2.5482 		43.2187 		0
v -24.2203 		59.7645 		0
v -25.2988 		69.0036 		0
v 2.8304 		57.6876 		0
v -0.0383 		50.8905 		0
v -19.3103 		46.6745 		0
v -24.4328 		59.4045 		0
v -24.8903 		69.0645 		0
v 4.1697 		56.9804 		0
v 1.3797 		50.6145 		0
v -24.7003 		59.0845 		0
v -24.3769 		69.2011 		0
v 4.7994 		56.5025 		0
v 2.5985 		50.5816 		0
v -25.3843 		58.6683 		0
v -23.8803 		69.3745 		0
v 5.3997 		55.9845 		0
v 3.8197 		50.6145 		0
v -23.6031 		69.6036 		0
v 5.8133 		55.5589 		0
v 4.6789 		50.7307 		0
v -23.3503 		69.8645 		0
v 6.1897 		55.1045 		0
v 5.5297 		50.8945 		0
v -28.4054 		55.8876 		0
v 6.5726 		54.3537 		0
v 6.0657 		51.0979 		0
v -28.4803 		55.6845 		0
v -23.2822 		69.9814 		0
v 6.8897 		53.5745 		0
v 6.5897 		51.3345 		0
v -28.499 		54.9969 		0
v 7.0586 		52.6193 		0
v 6.8915 		51.4886 		0
v -28.4803 		54.3045 		0
v 7.1197 		51.6845 		0
v -28.4158 		53.8413 		0
v -28.3203 		53.3845 		0
v 9.4592 		53.5162 		0
v -28.1471 		52.9749 		0
v 10.0197 		54.0745 		0
v 10.3575 		54.4227 		0
v -27.9503 		52.5745 		0
v 10.6797 		54.7845 		0
v -27.8452 		52.4035 		0
v 11.0156 		55.2485 		0
v -27.7203 		52.2545 		0
v 6.9869 		49.0586 		0
v 6.8897 		48.6945 		0
v 6.6036 		48.0209 		0
v 6.2797 		47.3645 		0
v -19.6357 		46.8103 		0
v -1.4203 		42.9945 		0
v -0.5048 		42.943 		0
v 0.3997 		42.9945 		0
v 1.9592 		43.6169 		0
v 3.4897 		44.3345 		0
v 3.9357 		44.6427 		0
v 4.3597 		44.9845 		0
v 4.7551 		45.3595 		0
v 5.1297 		45.7545 		0
v 5.7217 		46.5479 		0
v 11.2071 		62.4073 		0
v 15.0497 		69.6245 		0
v 15.5146 		69.9785 		0
v 13.2987 		76.073 		0
v 13.3997 		76.2745 		0
v 13.105 		76.4371 		0
v 12.7397 		76.5545 		0
v 12.1617 		76.5752 		0
v 0.7375 		75.7179 		0
v -1.7903 		75.4145 		0
v -2.3044 		75.3008 		0
v -8.825 		77.2651 		0
v -9.5003 		77.8345 		0
v -10.5062 		78.2917 		0
v -11.5503 		78.6645 		0
v -12.4101 		78.7835 		0
v -13.2803 		78.8445 		0
v -14.0416 		78.8269 		0
v -14.8003 		78.7745 		0
v -15.0915 		78.7054 		0
v -20.6171 		77.8478 		0
v -28.643 		79.2944 		0
v -29.3703 		79.2845 		0
v -29.6195 		79.1948 		0
v -29.8503 		79.0645 		0
v -29.9522 		78.9184 		0
v -30.0303 		78.7545 		0
v -30.0659 		78.5706 		0
v -28.5403 		76.2045 		0
v -28.5301 		76.1505 		0
v -28.4577 		76.1765 		0
v -28.5003 		76.0845 		0
v -28.3703 		76.1245 		0
v -28.3819 		75.9661 		0
v -28.2803 		75.8845 		0
v -28.3096 		75.992 		0
v -27.6905 		62.6054 		0.01
v -27.5803 		62.1845 		0.01
v -27.1037 		61.6105 		0.01
v -26.5903 		61.0645 		0.01
v -26.3752 		60.9035 		0.01
v -26.1403 		60.7845 		0.01
v -25.4295 		60.7459 		0.01
v -24.7103 		60.7445 		0.01
v -24.4671 		60.7787 		0.01
v -27.5639 		58.1357 		0.01
v -29.0303 		57.9745 		0.01
v -29.2795 		57.9019 		0.01
v -29.5003 		57.7845 		0.01
v -30.0186 		57.0393 		0.01
v -30.4403 		56.2445 		0.01
v -30.5074 		55.2243 		0.01
v -30.4803 		54.1845 		0.01
v -30.3967 		53.5557 		0.01
v -30.2703 		52.9345 		0.01
v -30.0361 		52.3058 		0.01
v -29.7603 		51.6945 		0.01
v -29.4061 		51.1313 		0.01
v -28.9903 		50.6345 		0.01
v -28.1423 		50.283 		0.01
v -27.2503 		50.0245 		0.01
v -26.9101 		50.084 		0.01
v -25.9256 		49.9061 		0.01
v -25.2803 		49.6445 		0.01
v -24.7183 		49.5058 		0.01
v -24.1503 		49.3945 		0.01
v -23.57 		49.3987 		0.01
v -22.8025 		48.7193 		0.01
v -22.6103 		48.0245 		0.01
v -22.3555 		47.3848 		0.01
v -22.0803 		46.7545 		0.01
v -21.7432 		46.1191 		0.01
v -21.3503 		45.5345 		0.01
v -20.6321 		45.0646 		0.01
v -19.8503 		44.7145 		0.01
v -18.0605 		44.5864 		0.01
v -16.2503 		44.5545 		0.01
v -15.7365 		44.5965 		0.01
v -15.2303 		44.6845 		0.01
v -14.4151 		45.0701 		0.01
v -13.0256 		44.9899 		0.01
v -12.4403 		44.5045 		0.01
v -11.8978 		44.1457 		0.01
v -11.3403 		43.8145 		0.01
v -10.1685 		43.3351 		0.01
v -8.9803 		42.8945 		0.01
v -8.2123 		42.6931 		0.01
v -7.4403 		42.503 		0.01
v -5.7965 		42.0141 		0.01
v -4.1503 		41.5345 		0.01
v -2.9543 		41.2485 		0.01
v -1.7503 		41.0145 		0.01
v -0.559 		40.9427 		0.01
v 0.6197 		40.9945 		0.01
v 2.5226 		41.7038 		0.01
v 4.3897 		42.5345 		0.01
v 5.0094 		42.9512 		0.01
v 5.5997 		43.4145 		0.01
v 6.1132 		43.8912 		0.01
v 6.5997 		44.3945 		0.01
v 7.316 		45.3397 		0.01
v 7.9897 		46.3145 		0.01
v 8.4131 		47.1405 		0.01
v 8.7697 		47.9945 		0.01
v 10.2589 		51.6735 		0.01
v 11.3897 		52.6145 		0.01
v 11.8105 		53.0501 		0.01
v 12.2097 		53.5045 		0.01
v 12.7177 		54.2147 		0.01
v 13.1697 		54.9545 		0.01
v 13.447 		56.0088 		0.01
v 15.3761 		57.9404 		0.01
v 16.2997 		58.0245 		0.01
v 16.47 		58.0632 		0.01
v 16.6297 		58.1245 		0.01
v 16.9304 		58.4026 		0.01
v 17.2097 		58.7045 		0.01
v 17.3254 		58.9083 		0.01
v 17.4097 		59.1245 		0.01
v 17.4106 		59.407 		0.01
v 17.3697 		59.6845 		0.01
v 17.2224 		59.924 		0.01
v 17.0297 		60.1245 		0.01
v 15.4928 		60.7545 		0.01
v 13.9297 		61.3445 		0.01
v 12.8141 		61.7097 		0.01
v 10.6379 		63.429 		0.01
v 10.6397 		63.7745 		0.01
v 10.6076 		64.051 		0.01
v 10.5597 		64.3245 		0.01
v 10.4856 		64.5494 		0.01
v 10.3797 		64.7545 		0.01
v 9.4323 		65.4298 		0.01
v 10.1853 		66.2929 		0.01
v 11.8997 		66.5345 		0.01
v 13.967 		67.1209 		0.01
v 15.9797 		67.8245 		0.01
v 16.8786 		68.5235 		0.01
v 17.6797 		69.3345 		0.01
v 17.7979 		69.8028 		0.01
v 19.0297 		71.2445 		0.01
v 19.3767 		71.4729 		0.01
v 19.7197 		71.7045 		0.01
v 19.9241 		71.9185 		0.01
v 20.0897 		72.1545 		0.01
v 20.1305 		72.4994 		0.01
v 20.1097 		72.8445 		0.01
v 19.9305 		73.1458 		0.01
v 19.6897 		73.3945 		0.01
v 18.5281 		73.7875 		0.01
v 17.3297 		74.0745 		0.01
v 15.5874 		74.0432 		0.01
v 13.9697 		73.9945 		0.01
v 14.1395 		74.1401 		0.01
v 14.4297 		74.3445 		0.01
v 14.9296 		74.9861 		0.01
v 15.4097 		75.6445 		0.01
v 15.4909 		75.7905 		0.01
v 15.5497 		75.9445 		0.01
v 15.5895 		76.4923 		0.01
v 15.5797 		77.0345 		0.01
v 15.4327 		77.3568 		0.01
v 15.2197 		77.6345 		0.01
v 14.2966 		78.0988 		0.01
v 13.3297 		78.4745 		0.01
v 12.4101 		78.5545 		0.01
v 11.4797 		78.5545 		0.01
v 10.6264 		78.4564 		0.01
v 9.7897 		78.2845 		0.01
v 8.4458 		77.5583 		0.01
v 6.2077 		77.4007 		0.01
v 5.2797 		77.9445 		0.01
v 4.2284 		78.0151 		0.01
v 3.1597 		77.9845 		0.01
v 0.5621 		77.7198 		0.01
v -2.0303 		77.4045 		0.01
v -2.7355 		77.2552 		0.01
v -3.4303 		77.0645 		0.01
v -4.7002 		76.5188 		0.01
v -5.9641 		76.2659 		0.01
v -5.9803 		76.5745 		0.01
v -6.1983 		77.1304 		0.01
v -6.4703 		77.6545 		0.01
v -7.4255 		78.6498 		0.01
v -8.4603 		79.5545 		0.01
v -9.6736 		80.1198 		0.01
v -10.9403 		80.5745 		0.01
v -12.0237 		80.7396 		0.01
v -13.1203 		80.8345 		0.01
v -14.0467 		80.8288 		0.01
v -14.9703 		80.7745 		0.01
v -15.6656 		80.6228 		0.01
v -16.3503 		80.4245 		0.01
v -17.7011 		79.8691 		0.01
v -19.0403 		79.2845 		0.01
v -19.1939 		79.1945 		0.01
v -19.3303 		79.0845 		0.01
v -19.6173 		78.6278 		0.01
v -19.8803 		78.1545 		0.01
v -19.9286 		77.9116 		0.01
v -24.001 		79.4832 		0.01
v -24.7003 		79.9245 		0.01
v -25.5699 		80.3753 		0.01
v -26.4503 		80.8045 		0.01
v -26.9744 		81.0279 		0.01
v -27.5103 		81.2045 		0.01
v -28.6387 		81.2907 		0.01
v -29.7603 		81.2745 		0.01
v -30.5277 		80.9753 		0.01
v -31.2403 		80.5645 		0.01
v -31.6267 		80.0397 		0.01
v -31.9303 		79.4545 		0.01
v -32.067 		78.7212 		0.01
v -32.1203 		77.9745 		0.01
v -31.9631 		77.017 		0.01
v -31.7303 		76.0745 		0.01
v -31.461 		75.5901 		0.01
v -31.1503 		75.1245 		0.01
v -30.9944 		74.9303 		0.01
v -30.8203 		74.7545 		0.01
v -30.1224 		74.3145 		0.01
v -29.4103 		73.8945 		0.01
v -29.2599 		73.8403 		0.01
v -27.1256 		72.5248 		0.01
v -25.1403 		71.2645 		0.01
v -24.675 		71.0147 		0.01
v -29.1937 		69.9811 		0.01
v -29.1503 		70.7845 		0.01
v -29.6139 		71.6475 		0.01
v -30.1903 		72.4445 		0.01
v -30.7347 		72.785 		0.01
v -31.3303 		73.0145 		0.01
v -32.0492 		72.9211 		0.01
v -32.7703 		72.7445 		0.01
v -33.0204 		72.6303 		0.01
v -33.2403 		72.4745 		0.01
v -33.648 		71.8067 		0.01
v -33.9903 		71.1045 		0.01
v -34.0386 		70.5794 		0.01
v -32.0303 		70.5445 		0.01
v -31.9683 		70.7337 		0.01
v -31.8155 		70.292 		0.01
v -34.0303 		70.0445 		0.01
v -33.9874 		69.8379 		0.01
v -33.9103 		69.6445 		0.01
v -33.426 		69.1071 		0.01
v -32.9103 		68.5945 		0.01
v -32.3816 		68.238 		0.01
v -32.5903 		66.8445 		0.01
v -32.9652 		66.6351 		0.01
v -33.3403 		66.4245 		0.01
v -33.8483 		65.9845 		0.01
v -34.3403 		65.5245 		0.01
v -34.6988 		65.1513 		0.01
v -35.0403 		64.7645 		0.01
v -35.1794 		64.5415 		0.01
v -35.2803 		64.3045 		0.01
v -35.2803 		63.6915 		0.01
v -33.2779 		63.6559 		0.01
v -31.8504 		64.9698 		0.01
v -31.4603 		65.1945 		0.01
v -31.0332 		65.5933 		0.01
v -30.6403 		66.0245 		0.01
v -30.2946 		66.7586 		0.01
v -28.7665 		67.235 		0.01
v -27.5603 		66.9845 		0.01
v -26.6159 		66.9556 		0.01
v -25.6703 		66.9645 		0.01
v -25.0982 		67.019 		0.01
v -24.5303 		67.1045 		0.01
v -23.715 		67.3121 		0.01
v -22.9303 		67.5845 		0.01
v -22.2765 		68.1062 		0.01
v -21.6903 		68.7045 		0.01
v -21.3986 		69.3177 		0.01
v -21.1703 		69.9645 		0.01
v -21.1299 		70.288 		0.01
v -21.1503 		70.6045 		0.01
v -21.4461 		71.0608 		0.01
v -21.8003 		71.4845 		0.01
v -22.4164 		71.9606 		0.01
v -23.0603 		72.4045 		0.01
v -23.5544 		72.6708 		0.01
v -26.4267 		75.1358 		0.01
v -26.2703 		75.8045 		0.01
v -26.4202 		76.5043 		0.01
v -26.6303 		77.1945 		0.01
v -26.7525 		77.4139 		0.01
v -26.9103 		77.6045 		0.01
v -27.5535 		77.9514 		0.01
v -28.2203 		78.2645 		0.01
v -28.6967 		78.4305 		0.01
v -29.1803 		78.5745 		0.01
v -29.3855 		78.6072 		0.01
v -29.5903 		78.6145 		0.01
v -29.8418 		78.507 		0.01
v -25.3297 		77.9412 		0.01
v -24.3803 		77.3545 		0.01
v -23.2078 		76.7637 		0.01
v -22.0203 		76.2045 		0.01
v -21.4547 		76.0069 		0.01
v -20.8803 		75.8345 		0.01
v -20.4771 		75.7484 		0.01
v -20.0703 		75.6845 		0.01
v -19.3757 		75.6647 		0.01
v -18.6803 		75.6645 		0.01
v -18.5271 		75.6787 		0.01
v -18.3803 		75.7145 		0.01
v -17.7292 		76.117 		0.01
v -17.1203 		76.5645 		0.01
v -16.9433 		76.9583 		0.01
v -16.2903 		77.7245 		0.01
v -16.0089 		77.8633 		0.01
v -15.7403 		78.0145 		0.01
v -7.8896 		74.7691 		0.01
v -7.9703 		74.5945 		0.01
v -8.0271 		74.3088 		0.01
v -8.0503 		74.0245 		0.01
v -7.9464 		73.7597 		0.01
v -7.8003 		73.5145 		0.01
v -7.5771 		73.3504 		0.01
v -7.3303 		73.2245 		0.01
v -7.0487 		73.2021 		0.01
v -6.7703 		73.2345 		0.01
v -6.0415 		73.68 		0.01
v 5.7035 		75.4469 		0.01
v 6.6597 		74.8745 		0.01
v 7.0038 		74.8034 		0.01
v 7.3497 		74.8045 		0.01
v 7.9274 		75.1121 		0.01
v 12.0197 		75.0345 		0.01
v 11.2275 		74.5401 		0.01
v 10.4697 		74.0145 		0.01
v 10.0575 		73.4183 		0.01
v 9.7197 		72.7745 		0.01
v 9.6828 		72.4251 		0.01
v 9.7097 		72.0745 		0.01
v 9.8536 		71.8361 		0.01
v 10.0397 		71.6245 		0.01
v 10.2856 		71.4911 		0.01
v 10.5497 		71.4145 		0.01
v 12.2362 		71.696 		0.01
v 13.9297 		71.9945 		0.01
v 16.6769 		71.8336 		0.01
v 16.2797 		71.5145 		0.01
v 16.1589 		71.3856 		0.01
v 16.0597 		71.2445 		0.01
v 15.9971 		70.8169 		0.01
v 11.4697 		68.4845 		0.01
v 9.7174 		68.2001 		0.01
v 7.9897 		67.8745 		0.01
v 7.2441 		67.3721 		0.01
v 6.5397 		66.7845 		0.01
v 6.3983 		66.6373 		0.01
v 6.2797 		66.4745 		0.01
v 6.2003 		66.2073 		0.01
v 6.1597 		65.9345 		0.01
v 6.2324 		65.6574 		0.01
v 6.3597 		65.4045 		0.01
v 8.6631 		63.2888 		0.01
v 8.6397 		62.9445 		0.01
v 8.7771 		62.3867 		0.01
v 8.9397 		61.8345 		0.01
v 9.0165 		61.6502 		0.01
v 9.1197 		61.4845 		0.01
v 9.9049 		60.8858 		0.01
v 10.7297 		60.3445 		0.01
v 12.1226 		59.9016 		0.01
v 12.8412 		58.9214 		0.01
v 12.1697 		58.3245 		0.01
v 11.9386 		57.9014 		0.01
v 11.7497 		57.4545 		0.01
v 11.5368 		56.5907 		0.01
v 8.8719 		53.5635 		0.01
v 8.8197 		54.1545 		0.01
v 8.4111 		55.1241 		0.01
v 7.9397 		56.0645 		0.01
v 7.4092 		56.7433 		0.01
v 6.8297 		57.3845 		0.01
v 6.1243 		58.0099 		0.01
v 5.3797 		58.5845 		0.01
v 3.8486 		59.4102 		0.01
v 2.2797 		60.1645 		0.01
v 0.5725 		60.772 		0.01
v -1.1603 		61.2945 		0.01
v -2.3798 		61.4489 		0.01
v -3.6103 		61.5345 		0.01
v -5.4656 		61.5579 		0.01
v -7.3203 		61.5345 		0.01
v -8.3409 		61.4343 		0.01
v -9.3503 		61.2745 		0.01
v -10.0143 		61.0197 		0.01
v -10.6503 		60.7045 		0.01
v -10.9627 		60.4228 		0.01
v -11.2203 		60.0945 		0.01
v -11.5361 		59.122 		0.01
v -11.7803 		58.1245 		0.01
v -11.7889 		57.515 		0.01
v -9.8003 		57.7845 		0.01
v -9.6602 		58.4473 		0.01
v -9.796 		57.4894 		0.01
v -11.7403 		56.9045 		0.01
v -11.5883 		56.2529 		0.01
v -11.3903 		55.6145 		0.01
v -11.071 		55.0134 		0.01
v -10.7103 		54.4345 		0.01
v -10.1164 		53.674 		0.01
v -9.4703 		52.9645 		0.01
v -8.0312 		51.9346 		0.01
v -6.5303 		50.9945 		0.01
v -4.7706 		50.2537 		0.01
v -2.9803 		49.5745 		0.01
v -2.4933 		49.4199 		0.01
v -2.0003 		49.2845 		0.01
v -0.4789 		48.9326 		0.01
v 1.0497 		48.6345 		0.01
v 2.4833 		48.587 		0.01
v 3.9197 		48.6145 		0.01
v 4.9589 		48.7533 		0.01
v 5.9897 		48.9445 		0.01
v 6.5315 		49.1749 		0.01
v -6.0803 		44.1445 		0.01
v -6.4302 		44.2699 		0.01
v -6.7803 		44.3945 		0.01
v -11.2903 		46.1445 		0.01
v -11.8177 		46.5645 		0.01
v -12.3503 		46.9745 		0.01
v -12.7833 		47.1842 		0.01
v -13.2303 		47.3645 		0.01
v -13.4547 		47.4175 		0.01
v -13.6803 		47.4345 		0.01
v -14.3283 		47.2313 		0.01
v -14.9703 		46.9945 		0.01
v -20.7403 		48.7345 		0.01
v -21.0132 		49.5558 		0.01
v -21.2903 		50.3745 		0.01
v -21.3923 		50.5747 		0.01
v -21.5203 		50.7545 		0.01
v -21.9214 		51.0316 		0.01
v -22.3503 		51.2545 		0.01
v -23.0947 		51.3294 		0.01
v -23.8503 		51.3745 		0.01
v -25.4214 		51.8558 		0.01
v -26.2403 		52.1945 		0.01
v -26.4044 		52.241 		0.01
v -26.5703 		52.2645 		0.01
v -26.8807 		52.175 		0.01
v -28.2803 		56.0445 		0.01
v -26.9839 		56.1922 		0.01
v -25.6803 		56.3645 		0.01
v -24.501 		56.8887 		0.01
v -23.3903 		57.5345 		0.01
v -22.8051 		58.2287 		0.01
v -22.3303 		59.0045 		0.01
v -22.1642 		59.9219 		0.01
v -22.0703 		60.8645 		0.01
v -22.0672 		61.0693 		0.01
v -22.1003 		61.2645 		0.01
v -22.5652 		61.9073 		0.01
v -23.0703 		62.5245 		0.01
v -23.2979 		62.7068 		0.01
v -23.5503 		62.8345 		0.01
v -25.7991 		64.0983 		0.01
v -25.6003 		64.4945 		0.01
v -25.5708 		64.7763 		0.01
v -25.5903 		65.0545 		0.01
v -25.7664 		65.3535 		0.01
v -25.9903 		65.6145 		0.01
v -26.3185 		65.7455 		0.01
v -26.6603 		65.7845 		0.01
v -28.9281 		64.6608 		0.01
v -33.2603 		63.5745 		0.01
v -35.2403 		63.0745 		0.01
v -35.1912 		62.8579 		0.01
v -35.1103 		62.6545 		0.01
v -34.6946 		62.1829 		0.01
v -34.2503 		61.7345 		0.01
v -34.044 		61.5899 		0.01
v -33.8203 		61.4845 		0.01
v -33.0489 		61.4445 		0.01
v -32.2703 		61.4445 		0.01
v -31.5641 		61.4799 		0.01
v -30.8703 		61.5745 		0.01
v -29.3166 		62.2848 		0.01
v -27.8303 		62.9145 		0.01
v -24.2303 		60.8045 		0.01
v -26.5703 		50.1445 		0.01
v 13.7297 		57.0545 		0.01
v 11.7097 		62.0945 		0.01
v 10.6397 		63.0845 		0.01
v 8.7897 		66.0045 		0.01
v 7.1197 		76.9545 		0.01
v -5.9103 		76.0445 		0.01
v -20.0003 		77.7245 		0.01
v -23.3003 		79.0445 		0.01
v -29.1103 		73.7845 		0.01
v -29.1803 		69.2645 		0.01
v -31.5503 		70.0545 		0.01
v -31.9203 		67.8745 		0.01
v -33.2703 		63.7345 		0.01
v -32.2403 		64.7445 		0.01
v -24.0503 		72.9345 		0.01
v -26.4903 		74.5245 		0.01
v -30.0603 		78.4245 		0.01
v -26.2803 		78.5245 		0.01
v -15.5517 		78.3081 		0.01
v -7.8203 		74.9445 		0.01
v 4.7397 		75.9845 		0.01
v 8.4997 		75.4545 		0.01
v 7.516 		64.5086 		0.01
v 8.6397 		63.6045 		0.01
v 13.2897 		59.4445 		0.01
v 8.9497 		53.1145 		0.01
v -9.7603 		57.1945 		0.01
v -7.5717 		44.5903 		0.01
v -24.6003 		51.5245 		0.01
v -27.1903 		52.0945 		0.01
v -24.4904 		62.7837 		0.01
v -25.9803 		63.7045 		0.01
v -31.2103 		63.5545 		0.01
v -33.2031 		63.498 		0.01
v -26.1103 		58.3345 		0.01
v -23.0503 		49.3345 		0.01
v -13.6203 		45.3645 		0.01
v 8.9653 		49.3612 		0.01
v 9.2397 		50.6745 		0.01
v 14.4797 		57.8045 		0.01
v 18.4439 		70.7774 		0.01
v -24.2103 		70.7645 		0.01
v -31.3184 		69.8831 		0.01
v -32.7701 		64.2511 		0.01
v -29.9003 		67.3645 		0.01
v -16.5483 		77.5562 		0.01
v -5.3103 		74.1345 		0.01
v 12.5783 		75.4403 		0.01
v 16.9597 		72.1045 		0.01
v 13.2782 		69.0121 		0.01
v -9.4603 		59.0745 		0.01
v -9.6441 		56.745 		0.01
v 6.9997 		49.3445 		0.01
v -8.3603 		44.7945 		0.01
v -10.8278 		45.8361 		0.01
v -15.3351 		46.8123 		0.01
v -33.1303 		63.4445 		0.01
v 10.6744 		62.9162 		0.01
v 17.9097 		70.2745 		0.01
v -22.2883 		78.5313 		0.01
v -31.8503 		70.9145 		0.01
v -31.1103 		69.7745 		0.01
v -25.3408 		73.6954 		0.01
v -15.3603 		78.5945 		0.01
v -7.8444 		75.4858 		0.01
v -4.0686 		74.6635 		0.01
v 9.3778 		75.9139 		0.01
v 13.1197 		75.8645 		0.01
v 14.9883 		72.0688 		0.01
v 15.9097 		70.4045 		0.01
v 11.3097 		55.7345 		0.01
v -9.5003 		56.3045 		0.01
v -20.5225 		48.1814 		0.01
v -24.2281 		51.4378 		0.01
v -25.4203 		62.7445 		0.01
v 14.0663 		57.4729 		0.01
v 10.7397 		62.7645 		0.01
v -21.2603 		78.0545 		0.01
v -31.7356 		70.9618 		0.01
v -32.3843 		67.0491 		0.01
v -27.0905 		78.9108 		0.01
v -16.7803 		77.3645 		0.01
v -7.9103 		76.0245 		0.01
v -2.8103 		75.1545 		0.01
v 4.013 		76.0273 		0.01
v 16.0497 		72.1145 		0.01
v -9.2179 		59.2205 		0.01
v -9.2795 		55.9016 		0.01
v -10.3503 		45.5545 		0.01
v -20.2903 		47.6345 		0.01
v -27.4619 		52.1531 		0.01
v -25.9177 		63.4262 		0.01
v -32.1635 		63.4499 		0.01
v -23.7146 		70.4392 		0.01
v -31.6203 		70.9645 		0.01
v -32.0149 		67.5809 		0.01
v -32.2003 		67.2745 		0.01
v -27.9203 		79.2345 		0.01
v 10.2697 		76.3345 		0.01
v 16.5642 		72.1346 		0.01
v -8.9303 		59.3145 		0.01
v -9.0303 		55.5145 		0.01
v -9.3625 		45.1572 		0.01
v -20.1246 		47.3069 		0.01
v -25.8003 		63.1545 		0.01
v -23.2603 		70.0945 		0.01
v -8.0333 		76.3407 		0.01
v 10.9186 		76.4689 		0.01
v -8.0987 		59.4449 		0.01
v -8.5552 		54.9244 		0.01
v -19.9303 		47.0045 		0.01
v -25.6285 		62.9197 		0.01
v -31.347 		70.6079 		0.01
v -8.2003 		76.6345 		0.01
v 3.2697 		75.9845 		0.01
v -7.2603 		59.5345 		0.01
v -8.0403 		54.3745 		0.01
v -15.7003 		46.6345 		0.01
v -31.1103 		70.2145 		0.01
v 11.5797 		76.5545 		0.01
v -5.4807 		59.5543 		0.01
v -31.0827 		69.9708 		0.01
v -3.7003 		59.5345 		0.01
v -6.8102 		53.5171 		0.01
v -4.8774 		43.8068 		0.01
v -2.6706 		59.4743 		0.01
v -5.5303 		52.7345 		0.01
v -3.6703 		43.4845 		0.01
v -28.3098 		69.051 		0.01
v -1.6503 		59.3545 		0.01
v -3.9232 		52.068 		0.01
v -15.9528 		46.5813 		0.01
v -24.1584 		60.7507 		0.01
v -27.3103 		68.9645 		0.01
v -2.2903 		51.4545 		0.01
v -16.2103 		46.5545 		0.01
v -24.1103 		60.6745 		0.01
v -26.5108 		68.9493 		0.01
v -0.0844 		58.8817 		0.01
v -1.8728 		51.3263 		0.01
v -17.765 		46.5896 		0.01
v -24.1415 		60.2166 		0.01
v -25.7103 		68.9645 		0.01
v 1.4597 		58.3345 		0.01
v -1.4503 		51.2145 		0.01
v -2.5482 		43.2187 		0.01
v -24.2203 		59.7645 		0.01
v -25.2988 		69.0036 		0.01
v 2.8304 		57.6876 		0.01
v -0.0383 		50.8905 		0.01
v -19.3103 		46.6745 		0.01
v -24.4328 		59.4045 		0.01
v -24.8903 		69.0645 		0.01
v 4.1697 		56.9804 		0.01
v 1.3797 		50.6145 		0.01
v -24.7003 		59.0845 		0.01
v -24.3769 		69.2011 		0.01
v 4.7994 		56.5025 		0.01
v 2.5985 		50.5816 		0.01
v -25.3843 		58.6683 		0.01
v -23.8803 		69.3745 		0.01
v 5.3997 		55.9845 		0.01
v 3.8197 		50.6145 		0.01
v -23.6031 		69.6036 		0.01
v 5.8133 		55.5589 		0.01
v 4.6789 		50.7307 		0.01
v -23.3503 		69.8645 		0.01
v 6.1897 		55.1045 		0.01
v 5.5297 		50.8945 		0.01
v -28.4054 		55.8876 		0.01
v 6.5726 		54.3537 		0.01
v 6.0657 		51.0979 		0.01
v -28.4803 		55.6845 		0.01
v -23.2822 		69.9814 		0.01
v 6.8897 		53.5745 		0.01
v 6.5897 		51.3345 		0.01
v -28.499 		54.9969 		0.01
v 7.0586 		52.6193 		0.01
v 6.8915 		51.4886 		0.01
v -28.4803 		54.3045 		0.01
v 7.1197 		51.6845 		0.01
v -28.4158 		53.8413 		0.01
v -28.3203 		53.3845 		0.01
v 9.4592 		53.5162 		0.01
v -28.1471 		52.9749 		0.01
v 10.0197 		54.0745 		0.01
v 10.3575 		54.4227 		0.01
v -27.9503 		52.5745 		0.01
v 10.6797 		54.7845 		0.01
v -27.8452 		52.4035 		0.01
v 11.0156 		55.2485 		0.01
v -27.7203 		52.2545 		0.01
v 6.9869 		49.0586 		0.01
v 6.8897 		48.6945 		0.01
v 6.6036 		48.0209 		0.01
v 6.2797 		47.3645 		0.01
v -19.6357 		46.8103 		0.01
v -1.4203 		42.9945 		0.01
v -0.5048 		42.943 		0.01
v 0.3997 		42.9945 		0.01
v 1.9592 		43.6169 		0.01
v 3.4897 		44.3345 		0.01
v 3.9357 		44.6427 		0.01
v 4.3597 		44.9845 		0.01
v 4.7551 		45.3595 		0.01
v 5.1297 		45.7545 		0.01
v 5.7217 		46.5479 		0.01
v 11.2071 		62.4073 		0.01
v 15.0497 		69.6245 		0.01
v 15.5146 		69.9785 		0.01
v 13.2987 		76.073 		0.01
v 13.3997 		76.2745 		0.01
v 13.105 		76.4371 		0.01
v 12.7397 		76.5545 		0.01
v 12.1617 		76.5752 		0.01
v 0.7375 		75.7179 		0.01
v -1.7903 		75.4145 		0.01
v -2.3044 		75.3008 		0.01
v -8.825 		77.2651 		0.01
v -9.5003 		77.8345 		0.01
v -10.5062 		78.2917 		0.01
v -11.5503 		78.6645 		0.01
v -12.4101 		78.7835 		0.01
v -13.2803 		78.8445 		0.01
v -14.0416 		78.8269 		0.01
v -14.8003 		78.7745 		0.01
v -15.0915 		78.7054 		0.01
v -20.6171 		77.8478 		0.01
v -28.643 		79.2944 		0.01
v -29.3703 		79.2845 		0.01
v -29.6195 		79.1948 		0.01
v -29.8503 		79.0645 		0.01
v -29.9522 		78.9184 		0.01
v -30.0303 		78.7545 		0.01
v -30.0659 		78.5706 		0.01
v -28.5403 		76.2045 		0.01
v -28.5301 		76.1505 		0.01
v -28.4577 		76.1765 		0.01
v -28.5003 		76.0845 		0.01
v -28.3703 		76.1245 		0.01
v -28.3819 		75.9661 		0.01
v -28.2803 		75.8845 		0.01
v -28.3096 		75.992 		0.01
# 1388 vertices

g group_0_8768998

usemtl color_8768998
s 0

f 1 	2 	3
f 4 	5 	1
f 6 	7 	4
f 8 	9 	6
f 10 	11 	12
f 13 	14 	10
f 15 	16 	13
f 17 	18 	15
f 19 	20 	17
f 21 	22 	19
f 23 	24 	21
f 25 	26 	23
f 27 	28 	29
f 30 	31 	27
f 32 	33 	34
f 35 	36 	32
f 37 	38 	35
f 39 	40 	37
f 41 	42 	39
f 43 	44 	41
f 45 	46 	47
f 48 	49 	45
f 50 	51 	48
f 52 	53 	54
f 55 	56 	52
f 57 	58 	55
f 59 	60 	57
f 61 	62 	59
f 63 	64 	61
f 65 	66 	63
f 67 	68 	65
f 69 	70 	71
f 72 	73 	69
f 74 	75 	72
f 76 	77 	78
f 79 	80 	76
f 81 	82 	79
f 83 	84 	81
f 85 	86 	83
f 87 	88 	85
f 89 	90 	87
f 91 	92 	93
f 94 	95 	91
f 96 	97 	94
f 98 	99 	100
f 101 	102 	98
f 103 	104 	101
f 105 	106 	107
f 108 	109 	105
f 110 	111 	108
f 112 	113 	110
f 114 	115 	112
f 116 	117 	114
f 118 	119 	120
f 121 	122 	118
f 123 	124 	121
f 125 	126 	123
f 127 	128 	125
f 129 	130 	127
f 131 	132 	129
f 133 	134 	131
f 135 	136 	137
f 138 	139 	135
f 140 	141 	138
f 142 	143 	140
f 144 	145 	146
f 147 	148 	144
f 149 	150 	147
f 151 	152 	149
f 153 	154 	151
f 155 	156 	153
f 157 	158 	155
f 159 	160 	157
f 161 	162 	159
f 163 	164 	161
f 165 	166 	167
f 168 	169 	165
f 170 	171 	168
f 172 	173 	170
f 174 	175 	172
f 176 	177 	174
f 178 	179 	176
f 180 	181 	178
f 182 	183 	180
f 184 	185 	182
f 186 	187 	184
f 188 	189 	190
f 191 	192 	193
f 194 	195 	191
f 196 	197 	194
f 198 	199 	196
f 200 	201 	198
f 202 	203 	200
f 204 	205 	202
f 202 	205 	206
f 207 	208 	202
f 209 	210 	207
f 211 	212 	209
f 213 	214 	215
f 216 	217 	213
f 218 	219 	216
f 220 	221 	218
f 222 	223 	220
f 224 	225 	226
f 227 	228 	224
f 229 	230 	231
f 232 	233 	229
f 234 	235 	232
f 236 	237 	234
f 238 	239 	236
f 240 	241 	238
f 242 	243 	240
f 244 	245 	242
f 246 	247 	244
f 248 	249 	250
f 251 	252 	248
f 253 	254 	251
f 255 	256 	253
f 257 	258 	255
f 259 	260 	257
f 261 	262 	263
f 264 	265 	261
f 266 	267 	264
f 268 	269 	266
f 270 	271 	268
f 272 	273 	270
f 274 	275 	272
f 276 	277 	278
f 279 	280 	281
f 282 	283 	279
f 284 	285 	282
f 286 	287 	284
f 288 	289 	286
f 290 	291 	292
f 293 	294 	290
f 295 	296 	297
f 298 	299 	295
f 300 	301 	298
f 302 	303 	300
f 304 	305 	302
f 306 	307 	304
f 308 	309 	310
f 311 	312 	308
f 313 	314 	315
f 316 	317 	313
f 318 	319 	316
f 320 	321 	318
f 322 	323 	320
f 324 	325 	326
f 327 	328 	324
f 329 	330 	327
f 331 	332 	329
f 333 	334 	335
f 336 	337 	333
f 338 	339 	340
f 341 	342 	338
f 343 	344 	341
f 345 	346 	343
f 347 	348 	345
f 349 	350 	347
f 351 	352 	349
f 353 	354 	351
f 355 	356 	353
f 357 	358 	355
f 359 	360 	357
f 361 	362 	359
f 363 	364 	361
f 361 	364 	365
f 366 	367 	361
f 368 	369 	366
f 370 	371 	368
f 372 	373 	370
f 374 	375 	372
f 376 	377 	374
f 378 	379 	376
f 380 	381 	378
f 382 	383 	380
f 384 	385 	382
f 386 	387 	388
f 389 	390 	391
f 392 	393 	389
f 394 	395 	392
f 396 	397 	394
f 398 	399 	400
f 401 	402 	398
f 403 	404 	401
f 405 	406 	403
f 407 	408 	409
f 410 	411 	407
f 412 	413 	414
f 415 	416 	412
f 417 	418 	415
f 419 	420 	417
f 421 	422 	419
f 423 	424 	421
f 425 	426 	423
f 427 	428 	429
f 430 	431 	427
f 432 	433 	430
f 434 	435 	432
f 223 	222 	436
f 437 	438 	223
f 439 	440 	437
f 441 	442 	439
f 443 	444 	441
f 445 	446 	443
f 447 	448 	445
f 1 	3 	449
f 6 	4 	1
f 450 	8 	6
f 13 	10 	12
f 17 	15 	13
f 21 	19 	17
f 25 	23 	21
f 27 	29 	451
f 35 	32 	34
f 39 	37 	35
f 43 	41 	39
f 48 	45 	47
f 54 	50 	48
f 55 	52 	54
f 59 	57 	55
f 63 	61 	59
f 67 	65 	63
f 72 	69 	71
f 452 	74 	72
f 79 	76 	78
f 83 	81 	79
f 87 	85 	83
f 453 	89 	87
f 91 	93 	454
f 96 	94 	91
f 98 	100 	455
f 103 	101 	98
f 108 	105 	107
f 112 	110 	108
f 116 	114 	112
f 118 	120 	116
f 123 	121 	118
f 127 	125 	123
f 131 	129 	127
f 456 	133 	131
f 135 	137 	456
f 140 	138 	135
f 457 	142 	140
f 144 	146 	457
f 149 	147 	144
f 153 	151 	149
f 157 	155 	153
f 161 	159 	157
f 458 	163 	161
f 165 	167 	459
f 170 	168 	165
f 174 	172 	170
f 178 	176 	174
f 182 	180 	178
f 186 	184 	182
f 188 	190 	460
f 191 	193 	461
f 196 	194 	191
f 200 	198 	196
f 204 	202 	200
f 202 	206 	462
f 209 	207 	202
f 463 	211 	209
f 216 	213 	215
f 220 	218 	216
f 464 	222 	220
f 224 	226 	465
f 232 	229 	231
f 236 	234 	232
f 240 	238 	236
f 244 	242 	240
f 466 	246 	244
f 248 	250 	467
f 253 	251 	248
f 257 	255 	253
f 468 	259 	257
f 261 	263 	469
f 266 	264 	261
f 270 	268 	266
f 274 	272 	270
f 470 	276 	278
f 279 	281 	471
f 284 	282 	279
f 288 	286 	284
f 290 	292 	472
f 473 	293 	290
f 298 	295 	297
f 302 	300 	298
f 306 	304 	302
f 311 	308 	310
f 316 	313 	315
f 320 	318 	316
f 474 	322 	320
f 324 	326 	475
f 329 	327 	324
f 476 	331 	329
f 336 	333 	335
f 338 	340 	477
f 343 	341 	338
f 347 	345 	343
f 351 	349 	347
f 355 	353 	351
f 359 	357 	355
f 363 	361 	359
f 361 	365 	478
f 368 	366 	361
f 372 	370 	368
f 376 	374 	372
f 380 	378 	376
f 384 	382 	380
f 479 	386 	388
f 392 	389 	391
f 396 	394 	392
f 401 	398 	400
f 405 	403 	401
f 407 	409 	480
f 481 	410 	407
f 415 	412 	414
f 419 	417 	415
f 423 	421 	419
f 482 	425 	423
f 427 	429 	483
f 432 	430 	427
f 484 	434 	432
f 223 	436 	485
f 439 	437 	223
f 443 	441 	439
f 447 	445 	443
f 6 	1 	449
f 13 	12 	486
f 21 	17 	13
f 451 	25 	21
f 30 	27 	451
f 35 	34 	487
f 43 	39 	35
f 48 	47 	488
f 55 	54 	48
f 63 	59 	55
f 489 	67 	63
f 72 	71 	490
f 79 	78 	491
f 87 	83 	79
f 96 	91 	454
f 103 	98 	455
f 108 	107 	492
f 116 	112 	108
f 123 	118 	116
f 131 	127 	123
f 140 	135 	456
f 149 	144 	457
f 157 	153 	149
f 458 	161 	157
f 170 	165 	459
f 178 	174 	170
f 186 	182 	178
f 493 	188 	460
f 196 	191 	461
f 204 	200 	196
f 202 	462 	494
f 463 	209 	202
f 220 	216 	215
f 495 	464 	220
f 227 	224 	465
f 232 	231 	496
f 240 	236 	232
f 466 	244 	240
f 253 	248 	467
f 468 	257 	253
f 266 	261 	469
f 274 	270 	266
f 470 	278 	497
f 284 	279 	471
f 498 	288 	284
f 473 	290 	472
f 298 	297 	499
f 306 	302 	298
f 311 	310 	500
f 316 	315 	501
f 474 	320 	316
f 329 	324 	475
f 336 	335 	476
f 343 	338 	477
f 351 	347 	343
f 359 	355 	351
f 502 	363 	359
f 361 	478 	503
f 372 	368 	361
f 380 	376 	372
f 504 	384 	380
f 505 	479 	388
f 392 	391 	506
f 507 	396 	392
f 405 	401 	400
f 481 	407 	480
f 419 	415 	414
f 482 	423 	419
f 432 	427 	483
f 223 	485 	508
f 443 	439 	223
f 449 	447 	443
f 450 	6 	449
f 30 	451 	21
f 488 	43 	35
f 55 	48 	488
f 490 	489 	63
f 452 	72 	490
f 87 	79 	491
f 96 	454 	509
f 510 	103 	455
f 456 	131 	123
f 457 	140 	456
f 458 	157 	149
f 170 	459 	511
f 460 	186 	178
f 512 	204 	196
f 202 	494 	513
f 495 	220 	215
f 227 	465 	495
f 514 	466 	240
f 468 	253 	467
f 274 	266 	469
f 515 	470 	497
f 284 	471 	516
f 517 	498 	284
f 518 	473 	472
f 298 	499 	519
f 520 	306 	298
f 521 	311 	500
f 475 	474 	316
f 476 	329 	475
f 522 	336 	476
f 502 	359 	351
f 361 	503 	523
f 504 	380 	372
f 507 	392 	506
f 405 	400 	524
f 481 	480 	525
f 526 	482 	419
f 484 	432 	483
f 443 	223 	508
f 487 	30 	21
f 87 	491 	527
f 96 	509 	528
f 492 	510 	455
f 170 	511 	529
f 493 	460 	178
f 530 	512 	196
f 463 	202 	513
f 495 	215 	531
f 496 	227 	495
f 467 	514 	240
f 274 	469 	532
f 515 	497 	533
f 284 	516 	534
f 535 	517 	284
f 518 	472 	536
f 537 	520 	298
f 476 	475 	316
f 538 	502 	351
f 361 	523 	539
f 507 	506 	540
f 405 	524 	541
f 542 	481 	525
f 484 	483 	543
f 443 	508 	544
f 87 	527 	452
f 455 	96 	528
f 108 	492 	455
f 545 	493 	178
f 546 	530 	196
f 547 	463 	513
f 495 	531 	548
f 274 	532 	549
f 535 	284 	534
f 550 	518 	536
f 551 	537 	298
f 552 	538 	351
f 361 	539 	553
f 507 	540 	554
f 405 	541 	555
f 484 	543 	556
f 443 	544 	484
f 87 	452 	490
f 557 	545 	178
f 546 	196 	461
f 495 	548 	547
f 535 	534 	558
f 559 	550 	536
f 500 	551 	298
f 560 	552 	351
f 361 	553 	561
f 507 	554 	505
f 405 	555 	562
f 484 	556 	563
f 449 	443 	484
f 564 	546 	461
f 495 	547 	513
f 535 	558 	565
f 559 	536 	566
f 567 	560 	351
f 361 	561 	568
f 569 	507 	505
f 525 	405 	562
f 484 	563 	526
f 570 	564 	461
f 496 	495 	513
f 571 	559 	566
f 572 	567 	351
f 372 	361 	568
f 569 	505 	388
f 449 	484 	526
f 573 	570 	461
f 496 	513 	573
f 574 	572 	351
f 372 	568 	575
f 569 	388 	576
f 449 	526 	419
f 496 	573 	461
f 577 	574 	351
f 372 	575 	578
f 569 	576 	579
f 450 	449 	419
f 496 	461 	580
f 581 	577 	351
f 372 	578 	582
f 583 	569 	579
f 584 	450 	419
f 496 	580 	585
f 581 	351 	343
f 372 	582 	586
f 587 	583 	579
f 588 	584 	419
f 496 	585 	589
f 590 	581 	343
f 372 	586 	591
f 592 	587 	579
f 593 	588 	419
f 496 	589 	594
f 595 	590 	343
f 372 	591 	596
f 592 	579 	597
f 598 	593 	419
f 496 	594 	599
f 600 	595 	343
f 372 	596 	601
f 602 	592 	597
f 603 	598 	419
f 496 	599 	604
f 605 	600 	343
f 372 	601 	606
f 607 	603 	419
f 496 	604 	608
f 609 	605 	343
f 504 	372 	606
f 607 	419 	414
f 232 	496 	608
f 609 	343 	477
f 504 	606 	610
f 611 	607 	414
f 232 	608 	612
f 613 	609 	477
f 504 	610 	614
f 486 	611 	414
f 232 	612 	615
f 616 	613 	477
f 504 	614 	617
f 13 	486 	414
f 232 	615 	618
f 619 	616 	477
f 504 	617 	620
f 13 	414 	621
f 240 	232 	618
f 622 	619 	477
f 504 	620 	623
f 13 	621 	624
f 240 	618 	625
f 626 	622 	477
f 504 	623 	627
f 13 	624 	628
f 240 	625 	557
f 629 	626 	477
f 504 	627 	630
f 13 	628 	631
f 240 	557 	178
f 632 	629 	477
f 504 	630 	632
f 13 	631 	633
f 467 	240 	178
f 504 	632 	477
f 13 	633 	634
f 504 	477 	635
f 13 	634 	636
f 504 	635 	637
f 21 	13 	636
f 504 	637 	638
f 21 	636 	639
f 504 	638 	640
f 21 	639 	641
f 504 	640 	642
f 21 	641 	643
f 644 	504 	642
f 21 	643 	542
f 645 	644 	642
f 21 	542 	525
f 646 	645 	642
f 487 	21 	525
f 647 	646 	642
f 487 	525 	562
f 647 	642 	522
f 35 	487 	562
f 35 	562 	648
f 35 	648 	602
f 488 	35 	602
f 488 	602 	597
f 488 	597 	649
f 55 	488 	649
f 55 	649 	650
f 55 	650 	651
f 55 	651 	652
f 55 	652 	653
f 63 	55 	653
f 63 	653 	654
f 63 	654 	655
f 63 	655 	656
f 63 	656 	657
f 63 	657 	658
f 63 	658 	647
f 63 	647 	522
f 490 	63 	522
f 490 	522 	476
f 87 	490 	476
f 453 	87 	476
f 659 	453 	476
f 528 	659 	476
f 528 	476 	316
f 455 	528 	316
f 455 	316 	501
f 455 	501 	660
f 108 	455 	660
f 108 	660 	661
f 108 	661 	521
f 108 	521 	500
f 108 	500 	298
f 116 	108 	298
f 116 	298 	519
f 116 	519 	662
f 116 	662 	663
f 123 	116 	663
f 123 	663 	664
f 123 	664 	665
f 123 	665 	666
f 456 	123 	666
f 456 	666 	571
f 456 	571 	566
f 456 	566 	667
f 456 	667 	668
f 457 	456 	668
f 457 	668 	669
f 457 	669 	535
f 457 	535 	565
f 457 	565 	670
f 457 	670 	671
f 149 	457 	671
f 149 	671 	672
f 149 	672 	673
f 149 	673 	674
f 149 	674 	675
f 149 	675 	676
f 149 	676 	677
f 149 	677 	678
f 458 	149 	678
f 458 	678 	515
f 458 	515 	533
f 458 	533 	274
f 458 	274 	549
f 679 	458 	549
f 529 	679 	549
f 170 	529 	549
f 170 	549 	680
f 170 	680 	681
f 170 	681 	682
f 170 	682 	683
f 170 	683 	684
f 178 	170 	684
f 178 	684 	685
f 178 	685 	686
f 178 	686 	468
f 687 	178 	468
f 178 	687 	688
f 689 	687 	468
f 178 	688 	690
f 691 	689 	468
f 178 	690 	692
f 691 	468 	467
f 178 	692 	693
f 694 	691 	467
f 467 	178 	693
f 693 	694 	467
f 695 	696 	697
f 697 	698 	699
f 699 	700 	701
f 701 	702 	703
f 704 	705 	706
f 706 	707 	708
f 708 	709 	710
f 710 	711 	712
f 712 	713 	714
f 714 	715 	716
f 716 	717 	718
f 718 	719 	720
f 721 	722 	723
f 723 	724 	725
f 726 	727 	728
f 728 	729 	730
f 730 	731 	732
f 732 	733 	734
f 734 	735 	736
f 736 	737 	738
f 739 	740 	741
f 741 	742 	743
f 743 	744 	745
f 746 	747 	748
f 748 	749 	750
f 750 	751 	752
f 752 	753 	754
f 754 	755 	756
f 756 	757 	758
f 758 	759 	760
f 760 	761 	762
f 763 	764 	765
f 765 	766 	767
f 767 	768 	769
f 770 	771 	772
f 772 	773 	774
f 774 	775 	776
f 776 	777 	778
f 778 	779 	780
f 780 	781 	782
f 782 	783 	784
f 785 	786 	787
f 787 	788 	789
f 789 	790 	791
f 792 	793 	794
f 794 	795 	796
f 796 	797 	798
f 799 	800 	801
f 801 	802 	803
f 803 	804 	805
f 805 	806 	807
f 807 	808 	809
f 809 	810 	811
f 812 	813 	814
f 814 	815 	816
f 816 	817 	818
f 818 	819 	820
f 820 	821 	822
f 822 	823 	824
f 824 	825 	826
f 826 	827 	828
f 829 	830 	831
f 831 	832 	833
f 833 	834 	835
f 835 	836 	837
f 838 	839 	840
f 840 	841 	842
f 842 	843 	844
f 844 	845 	846
f 846 	847 	848
f 848 	849 	850
f 850 	851 	852
f 852 	853 	854
f 854 	855 	856
f 856 	857 	858
f 859 	860 	861
f 861 	862 	863
f 863 	864 	865
f 865 	866 	867
f 867 	868 	869
f 869 	870 	871
f 871 	872 	873
f 873 	874 	875
f 875 	876 	877
f 877 	878 	879
f 879 	880 	881
f 882 	883 	884
f 885 	886 	887
f 887 	888 	889
f 889 	890 	891
f 891 	892 	893
f 893 	894 	895
f 895 	896 	897
f 897 	898 	899
f 900 	898 	897
f 897 	901 	902
f 902 	903 	904
f 904 	905 	906
f 907 	908 	909
f 909 	910 	911
f 911 	912 	913
f 913 	914 	915
f 915 	916 	917
f 918 	919 	920
f 920 	921 	922
f 923 	924 	925
f 925 	926 	927
f 927 	928 	929
f 929 	930 	931
f 931 	932 	933
f 933 	934 	935
f 935 	936 	937
f 937 	938 	939
f 939 	940 	941
f 942 	943 	944
f 944 	945 	946
f 946 	947 	948
f 948 	949 	950
f 950 	951 	952
f 952 	953 	954
f 955 	956 	957
f 957 	958 	959
f 959 	960 	961
f 961 	962 	963
f 963 	964 	965
f 965 	966 	967
f 967 	968 	969
f 970 	971 	972
f 973 	974 	975
f 975 	976 	977
f 977 	978 	979
f 979 	980 	981
f 981 	982 	983
f 984 	985 	986
f 986 	987 	988
f 989 	990 	991
f 991 	992 	993
f 993 	994 	995
f 995 	996 	997
f 997 	998 	999
f 999 	1000 	1001
f 1002 	1003 	1004
f 1004 	1005 	1006
f 1007 	1008 	1009
f 1009 	1010 	1011
f 1011 	1012 	1013
f 1013 	1014 	1015
f 1015 	1016 	1017
f 1018 	1019 	1020
f 1020 	1021 	1022
f 1022 	1023 	1024
f 1024 	1025 	1026
f 1027 	1028 	1029
f 1029 	1030 	1031
f 1032 	1033 	1034
f 1034 	1035 	1036
f 1036 	1037 	1038
f 1038 	1039 	1040
f 1040 	1041 	1042
f 1042 	1043 	1044
f 1044 	1045 	1046
f 1046 	1047 	1048
f 1048 	1049 	1050
f 1050 	1051 	1052
f 1052 	1053 	1054
f 1054 	1055 	1056
f 1056 	1057 	1058
f 1059 	1057 	1056
f 1056 	1060 	1061
f 1061 	1062 	1063
f 1063 	1064 	1065
f 1065 	1066 	1067
f 1067 	1068 	1069
f 1069 	1070 	1071
f 1071 	1072 	1073
f 1073 	1074 	1075
f 1075 	1076 	1077
f 1077 	1078 	1079
f 1080 	1081 	1082
f 1083 	1084 	1085
f 1085 	1086 	1087
f 1087 	1088 	1089
f 1089 	1090 	1091
f 1092 	1093 	1094
f 1094 	1095 	1096
f 1096 	1097 	1098
f 1098 	1099 	1100
f 1101 	1102 	1103
f 1103 	1104 	1105
f 1106 	1107 	1108
f 1108 	1109 	1110
f 1110 	1111 	1112
f 1112 	1113 	1114
f 1114 	1115 	1116
f 1116 	1117 	1118
f 1118 	1119 	1120
f 1121 	1122 	1123
f 1123 	1124 	1125
f 1125 	1126 	1127
f 1127 	1128 	1129
f 1130 	917 	916
f 916 	1131 	1132
f 1132 	1133 	1134
f 1134 	1135 	1136
f 1136 	1137 	1138
f 1138 	1139 	1140
f 1140 	1141 	1142
f 1143 	695 	697
f 697 	699 	701
f 701 	703 	1144
f 704 	706 	708
f 708 	710 	712
f 712 	714 	716
f 716 	718 	720
f 1145 	721 	723
f 726 	728 	730
f 730 	732 	734
f 734 	736 	738
f 739 	741 	743
f 743 	745 	746
f 746 	748 	750
f 750 	752 	754
f 754 	756 	758
f 758 	760 	762
f 763 	765 	767
f 767 	769 	1146
f 770 	772 	774
f 774 	776 	778
f 778 	780 	782
f 782 	784 	1147
f 1148 	785 	787
f 787 	789 	791
f 1149 	792 	794
f 794 	796 	798
f 799 	801 	803
f 803 	805 	807
f 807 	809 	811
f 811 	812 	814
f 814 	816 	818
f 818 	820 	822
f 822 	824 	826
f 826 	828 	1150
f 1150 	829 	831
f 831 	833 	835
f 835 	837 	1151
f 1151 	838 	840
f 840 	842 	844
f 844 	846 	848
f 848 	850 	852
f 852 	854 	856
f 856 	858 	1152
f 1153 	859 	861
f 861 	863 	865
f 865 	867 	869
f 869 	871 	873
f 873 	875 	877
f 877 	879 	881
f 1154 	882 	884
f 1155 	885 	887
f 887 	889 	891
f 891 	893 	895
f 895 	897 	899
f 1156 	900 	897
f 897 	902 	904
f 904 	906 	1157
f 907 	909 	911
f 911 	913 	915
f 915 	917 	1158
f 1159 	918 	920
f 923 	925 	927
f 927 	929 	931
f 931 	933 	935
f 935 	937 	939
f 939 	941 	1160
f 1161 	942 	944
f 944 	946 	948
f 948 	950 	952
f 952 	954 	1162
f 1163 	955 	957
f 957 	959 	961
f 961 	963 	965
f 965 	967 	969
f 970 	972 	1164
f 1165 	973 	975
f 975 	977 	979
f 979 	981 	983
f 1166 	984 	986
f 986 	988 	1167
f 989 	991 	993
f 993 	995 	997
f 997 	999 	1001
f 1002 	1004 	1006
f 1007 	1009 	1011
f 1011 	1013 	1015
f 1015 	1017 	1168
f 1169 	1018 	1020
f 1020 	1022 	1024
f 1024 	1026 	1170
f 1027 	1029 	1031
f 1171 	1032 	1034
f 1034 	1036 	1038
f 1038 	1040 	1042
f 1042 	1044 	1046
f 1046 	1048 	1050
f 1050 	1052 	1054
f 1054 	1056 	1058
f 1172 	1059 	1056
f 1056 	1061 	1063
f 1063 	1065 	1067
f 1067 	1069 	1071
f 1071 	1073 	1075
f 1075 	1077 	1079
f 1080 	1082 	1173
f 1083 	1085 	1087
f 1087 	1089 	1091
f 1092 	1094 	1096
f 1096 	1098 	1100
f 1174 	1101 	1103
f 1103 	1105 	1175
f 1106 	1108 	1110
f 1110 	1112 	1114
f 1114 	1116 	1118
f 1118 	1120 	1176
f 1177 	1121 	1123
f 1123 	1125 	1127
f 1127 	1129 	1178
f 1179 	1130 	916
f 916 	1132 	1134
f 1134 	1136 	1138
f 1138 	1140 	1142
f 1143 	697 	701
f 1180 	704 	708
f 708 	712 	716
f 716 	720 	1145
f 1145 	723 	725
f 1181 	726 	730
f 730 	734 	738
f 1182 	739 	743
f 743 	746 	750
f 750 	754 	758
f 758 	762 	1183
f 1184 	763 	767
f 1185 	770 	774
f 774 	778 	782
f 1148 	787 	791
f 1149 	794 	798
f 1186 	799 	803
f 803 	807 	811
f 811 	814 	818
f 818 	822 	826
f 1150 	831 	835
f 1151 	840 	844
f 844 	848 	852
f 852 	856 	1152
f 1153 	861 	865
f 865 	869 	873
f 873 	877 	881
f 1154 	884 	1187
f 1155 	887 	891
f 891 	895 	899
f 1188 	1156 	897
f 897 	904 	1157
f 907 	911 	915
f 915 	1158 	1189
f 1159 	920 	922
f 1190 	923 	927
f 927 	931 	935
f 935 	939 	1160
f 1161 	944 	948
f 948 	952 	1162
f 1163 	957 	961
f 961 	965 	969
f 1191 	970 	1164
f 1165 	975 	979
f 979 	983 	1192
f 1166 	986 	1167
f 1193 	989 	993
f 993 	997 	1001
f 1194 	1002 	1006
f 1195 	1007 	1011
f 1011 	1015 	1168
f 1169 	1020 	1024
f 1170 	1027 	1031
f 1171 	1034 	1038
f 1038 	1042 	1046
f 1046 	1050 	1054
f 1054 	1058 	1196
f 1197 	1172 	1056
f 1056 	1063 	1067
f 1067 	1071 	1075
f 1075 	1079 	1198
f 1080 	1173 	1199
f 1200 	1083 	1087
f 1087 	1091 	1201
f 1092 	1096 	1100
f 1174 	1103 	1175
f 1106 	1110 	1114
f 1114 	1118 	1176
f 1177 	1123 	1127
f 1202 	1179 	916
f 916 	1134 	1138
f 1138 	1142 	1143
f 1143 	701 	1144
f 716 	1145 	725
f 730 	738 	1182
f 1182 	743 	750
f 758 	1183 	1184
f 1184 	767 	1146
f 1185 	774 	782
f 1203 	1148 	791
f 1149 	798 	1204
f 818 	826 	1150
f 1150 	835 	1151
f 844 	852 	1152
f 1205 	1153 	865
f 873 	881 	1154
f 891 	899 	1206
f 1207 	1188 	897
f 907 	915 	1189
f 1189 	1159 	922
f 935 	1160 	1208
f 1161 	948 	1162
f 1163 	961 	969
f 1191 	1164 	1209
f 1210 	1165 	979
f 979 	1192 	1211
f 1166 	1167 	1212
f 1213 	1193 	993
f 993 	1001 	1214
f 1194 	1006 	1215
f 1011 	1168 	1169
f 1169 	1024 	1170
f 1170 	1031 	1216
f 1046 	1054 	1196
f 1217 	1197 	1056
f 1067 	1075 	1198
f 1200 	1087 	1201
f 1218 	1092 	1100
f 1219 	1174 	1175
f 1114 	1176 	1220
f 1177 	1127 	1178
f 1202 	916 	1138
f 716 	725 	1181
f 1221 	1185 	782
f 1222 	1203 	791
f 1149 	1204 	1186
f 1223 	1205 	865
f 873 	1154 	1187
f 891 	1206 	1224
f 1207 	897 	1157
f 1225 	907 	1189
f 1189 	922 	1190
f 935 	1208 	1161
f 1226 	1163 	969
f 1227 	1191 	1209
f 1228 	1210 	979
f 979 	1211 	1229
f 1230 	1166 	1212
f 993 	1214 	1231
f 1011 	1169 	1170
f 1046 	1196 	1232
f 1233 	1217 	1056
f 1234 	1200 	1201
f 1235 	1218 	1100
f 1219 	1175 	1236
f 1237 	1177 	1178
f 1238 	1202 	1138
f 1146 	1221 	782
f 1222 	791 	1149
f 1149 	1186 	803
f 873 	1187 	1239
f 891 	1224 	1240
f 1207 	1157 	1241
f 1242 	1225 	1189
f 1243 	1226 	969
f 1228 	979 	1229
f 1230 	1212 	1244
f 993 	1231 	1245
f 1046 	1232 	1246
f 1247 	1233 	1056
f 1248 	1234 	1201
f 1249 	1235 	1100
f 1250 	1237 	1178
f 1178 	1238 	1138
f 1184 	1146 	782
f 873 	1239 	1251
f 1155 	891 	1240
f 1241 	1242 	1189
f 1252 	1228 	1229
f 1230 	1244 	1253
f 993 	1245 	1194
f 1046 	1246 	1254
f 1255 	1247 	1056
f 1199 	1248 	1201
f 1256 	1249 	1100
f 1257 	1250 	1178
f 1178 	1138 	1143
f 1155 	1240 	1258
f 1207 	1241 	1189
f 1259 	1252 	1229
f 1260 	1230 	1253
f 1046 	1254 	1261
f 1262 	1255 	1056
f 1199 	1201 	1263
f 1256 	1100 	1219
f 1220 	1257 	1178
f 1155 	1258 	1264
f 1207 	1189 	1190
f 1260 	1253 	1265
f 1046 	1261 	1266
f 1262 	1056 	1067
f 1080 	1199 	1263
f 1220 	1178 	1143
f 1155 	1264 	1267
f 1267 	1207 	1190
f 1046 	1266 	1268
f 1269 	1262 	1067
f 1270 	1080 	1263
f 1114 	1220 	1143
f 1155 	1267 	1190
f 1046 	1268 	1271
f 1272 	1269 	1067
f 1273 	1270 	1263
f 1114 	1143 	1144
f 1274 	1155 	1190
f 1046 	1271 	1275
f 1276 	1272 	1067
f 1273 	1263 	1277
f 1114 	1144 	1278
f 1279 	1274 	1190
f 1038 	1046 	1275
f 1280 	1276 	1067
f 1273 	1277 	1281
f 1114 	1278 	1282
f 1283 	1279 	1190
f 1038 	1275 	1284
f 1285 	1280 	1067
f 1273 	1281 	1286
f 1114 	1282 	1287
f 1288 	1283 	1190
f 1038 	1284 	1289
f 1290 	1285 	1067
f 1291 	1273 	1286
f 1114 	1287 	1292
f 1293 	1288 	1190
f 1038 	1289 	1294
f 1295 	1290 	1067
f 1291 	1286 	1296
f 1114 	1292 	1297
f 1298 	1293 	1190
f 1038 	1294 	1299
f 1300 	1295 	1067
f 1114 	1297 	1301
f 1302 	1298 	1190
f 1038 	1299 	1303
f 1300 	1067 	1198
f 1106 	1114 	1301
f 1302 	1190 	927
f 1171 	1038 	1303
f 1304 	1300 	1198
f 1106 	1301 	1305
f 1306 	1302 	927
f 1171 	1303 	1307
f 1308 	1304 	1198
f 1106 	1305 	1180
f 1309 	1306 	927
f 1171 	1307 	1310
f 1311 	1308 	1198
f 1106 	1180 	708
f 1312 	1309 	927
f 1171 	1310 	1313
f 1314 	1311 	1198
f 1315 	1106 	708
f 1312 	927 	935
f 1171 	1313 	1316
f 1317 	1314 	1198
f 1318 	1315 	708
f 1319 	1312 	935
f 1171 	1316 	1320
f 1321 	1317 	1198
f 1322 	1318 	708
f 1251 	1319 	935
f 1171 	1320 	1323
f 1324 	1321 	1198
f 1325 	1322 	708
f 873 	1251 	935
f 1171 	1323 	1326
f 1326 	1324 	1198
f 1327 	1325 	708
f 873 	935 	1161
f 1171 	1326 	1198
f 1328 	1327 	708
f 1329 	1171 	1198
f 1330 	1328 	708
f 1331 	1329 	1198
f 1330 	708 	716
f 1332 	1331 	1198
f 1333 	1330 	716
f 1334 	1332 	1198
f 1335 	1333 	716
f 1336 	1334 	1198
f 1337 	1335 	716
f 1336 	1198 	1338
f 1236 	1337 	716
f 1336 	1338 	1339
f 1219 	1236 	716
f 1336 	1339 	1340
f 1219 	716 	1181
f 1336 	1340 	1341
f 1256 	1219 	1181
f 1216 	1336 	1341
f 1256 	1181 	730
f 1342 	1256 	730
f 1296 	1342 	730
f 1296 	730 	1182
f 1291 	1296 	1182
f 1343 	1291 	1182
f 1343 	1182 	750
f 1344 	1343 	750
f 1345 	1344 	750
f 1346 	1345 	750
f 1347 	1346 	750
f 1347 	750 	758
f 1348 	1347 	758
f 1349 	1348 	758
f 1350 	1349 	758
f 1351 	1350 	758
f 1352 	1351 	758
f 1341 	1352 	758
f 1216 	1341 	758
f 1216 	758 	1184
f 1170 	1216 	1184
f 1170 	1184 	782
f 1170 	782 	1147
f 1170 	1147 	1353
f 1170 	1353 	1222
f 1011 	1170 	1222
f 1011 	1222 	1149
f 1195 	1011 	1149
f 1354 	1195 	1149
f 1354 	1149 	803
f 1355 	1354 	803
f 1215 	1355 	803
f 1194 	1215 	803
f 993 	1194 	803
f 993 	803 	811
f 1213 	993 	811
f 1356 	1213 	811
f 1357 	1356 	811
f 1357 	811 	818
f 1358 	1357 	818
f 1359 	1358 	818
f 1360 	1359 	818
f 1360 	818 	1150
f 1265 	1360 	1150
f 1260 	1265 	1150
f 1361 	1260 	1150
f 1362 	1361 	1150
f 1362 	1150 	1151
f 1363 	1362 	1151
f 1229 	1363 	1151
f 1259 	1229 	1151
f 1364 	1259 	1151
f 1365 	1364 	1151
f 1365 	1151 	844
f 1366 	1365 	844
f 1367 	1366 	844
f 1368 	1367 	844
f 1369 	1368 	844
f 1370 	1369 	844
f 1371 	1370 	844
f 1372 	1371 	844
f 1372 	844 	1152
f 1209 	1372 	1152
f 1227 	1209 	1152
f 969 	1227 	1152
f 1243 	969 	1152
f 1243 	1152 	1373
f 1243 	1373 	1223
f 1243 	1223 	865
f 1374 	1243 	865
f 1375 	1374 	865
f 1376 	1375 	865
f 1377 	1376 	865
f 1378 	1377 	865
f 1378 	865 	873
f 1379 	1378 	873
f 1380 	1379 	873
f 1162 	1380 	873
f 1162 	873 	1381
f 1382 	1381 	873
f 1162 	1381 	1383
f 1384 	1382 	873
f 1162 	1383 	1385
f 1386 	1384 	873
f 1161 	1162 	1385
f 1387 	1386 	873
f 1161 	1385 	1388
f 1387 	873 	1161
f 1161 	1388 	1387
f 445 	448 	1140
f 448 	1141 	1140
f 448 	447 	1141
f 447 	1142 	1141
f 447 	449 	1142
f 449 	1143 	1142
f 449 	3 	1143
f 3 	695 	1143
f 3 	2 	695
f 2 	696 	695
f 2 	1 	696
f 1 	697 	696
f 1 	5 	697
f 5 	698 	697
f 5 	4 	698
f 4 	699 	698
f 4 	7 	699
f 7 	700 	699
f 7 	6 	700
f 6 	701 	700
f 6 	9 	701
f 9 	702 	701
f 9 	8 	702
f 8 	703 	702
f 8 	450 	703
f 450 	1144 	703
f 450 	584 	1144
f 584 	1278 	1144
f 584 	588 	1278
f 588 	1282 	1278
f 588 	593 	1282
f 593 	1287 	1282
f 593 	598 	1287
f 598 	1292 	1287
f 598 	603 	1292
f 603 	1297 	1292
f 603 	607 	1297
f 607 	1301 	1297
f 607 	611 	1301
f 611 	1305 	1301
f 611 	486 	1305
f 486 	1180 	1305
f 486 	12 	1180
f 12 	704 	1180
f 12 	11 	704
f 11 	705 	704
f 11 	10 	705
f 10 	706 	705
f 10 	14 	706
f 14 	707 	706
f 14 	13 	707
f 13 	708 	707
f 13 	16 	708
f 16 	709 	708
f 16 	15 	709
f 15 	710 	709
f 15 	18 	710
f 18 	711 	710
f 18 	17 	711
f 17 	712 	711
f 17 	20 	712
f 20 	713 	712
f 20 	19 	713
f 19 	714 	713
f 19 	22 	714
f 22 	715 	714
f 22 	21 	715
f 21 	716 	715
f 21 	24 	716
f 24 	717 	716
f 24 	23 	717
f 23 	718 	717
f 23 	26 	718
f 26 	719 	718
f 26 	25 	719
f 25 	720 	719
f 25 	451 	720
f 451 	1145 	720
f 451 	29 	1145
f 29 	721 	1145
f 29 	28 	721
f 28 	722 	721
f 28 	27 	722
f 27 	723 	722
f 27 	31 	723
f 31 	724 	723
f 31 	30 	724
f 30 	725 	724
f 30 	487 	725
f 487 	1181 	725
f 487 	34 	1181
f 34 	726 	1181
f 34 	33 	726
f 33 	727 	726
f 33 	32 	727
f 32 	728 	727
f 32 	36 	728
f 36 	729 	728
f 36 	35 	729
f 35 	730 	729
f 35 	38 	730
f 38 	731 	730
f 38 	37 	731
f 37 	732 	731
f 37 	40 	732
f 40 	733 	732
f 40 	39 	733
f 39 	734 	733
f 39 	42 	734
f 42 	735 	734
f 42 	41 	735
f 41 	736 	735
f 41 	44 	736
f 44 	737 	736
f 44 	43 	737
f 43 	738 	737
f 43 	488 	738
f 488 	1182 	738
f 488 	47 	1182
f 47 	739 	1182
f 47 	46 	739
f 46 	740 	739
f 46 	45 	740
f 45 	741 	740
f 45 	49 	741
f 49 	742 	741
f 49 	48 	742
f 48 	743 	742
f 48 	51 	743
f 51 	744 	743
f 51 	50 	744
f 50 	745 	744
f 50 	54 	745
f 54 	746 	745
f 54 	53 	746
f 53 	747 	746
f 53 	52 	747
f 52 	748 	747
f 52 	56 	748
f 56 	749 	748
f 56 	55 	749
f 55 	750 	749
f 55 	58 	750
f 58 	751 	750
f 58 	57 	751
f 57 	752 	751
f 57 	60 	752
f 60 	753 	752
f 60 	59 	753
f 59 	754 	753
f 59 	62 	754
f 62 	755 	754
f 62 	61 	755
f 61 	756 	755
f 61 	64 	756
f 64 	757 	756
f 64 	63 	757
f 63 	758 	757
f 63 	66 	758
f 66 	759 	758
f 66 	65 	759
f 65 	760 	759
f 65 	68 	760
f 68 	761 	760
f 68 	67 	761
f 67 	762 	761
f 67 	489 	762
f 489 	1183 	762
f 489 	490 	1183
f 490 	1184 	1183
f 490 	71 	1184
f 71 	763 	1184
f 71 	70 	763
f 70 	764 	763
f 70 	69 	764
f 69 	765 	764
f 69 	73 	765
f 73 	766 	765
f 73 	72 	766
f 72 	767 	766
f 72 	75 	767
f 75 	768 	767
f 75 	74 	768
f 74 	769 	768
f 74 	452 	769
f 452 	1146 	769
f 452 	527 	1146
f 527 	1221 	1146
f 527 	491 	1221
f 491 	1185 	1221
f 491 	78 	1185
f 78 	770 	1185
f 78 	77 	770
f 77 	771 	770
f 77 	76 	771
f 76 	772 	771
f 76 	80 	772
f 80 	773 	772
f 80 	79 	773
f 79 	774 	773
f 79 	82 	774
f 82 	775 	774
f 82 	81 	775
f 81 	776 	775
f 81 	84 	776
f 84 	777 	776
f 84 	83 	777
f 83 	778 	777
f 83 	86 	778
f 86 	779 	778
f 86 	85 	779
f 85 	780 	779
f 85 	88 	780
f 88 	781 	780
f 88 	87 	781
f 87 	782 	781
f 87 	90 	782
f 90 	783 	782
f 90 	89 	783
f 89 	784 	783
f 89 	453 	784
f 453 	1147 	784
f 453 	659 	1147
f 659 	1353 	1147
f 659 	528 	1353
f 528 	1222 	1353
f 528 	509 	1222
f 509 	1203 	1222
f 509 	454 	1203
f 454 	1148 	1203
f 454 	93 	1148
f 93 	785 	1148
f 93 	92 	785
f 92 	786 	785
f 92 	91 	786
f 91 	787 	786
f 91 	95 	787
f 95 	788 	787
f 95 	94 	788
f 94 	789 	788
f 94 	97 	789
f 97 	790 	789
f 97 	96 	790
f 96 	791 	790
f 96 	455 	791
f 455 	1149 	791
f 455 	100 	1149
f 100 	792 	1149
f 100 	99 	792
f 99 	793 	792
f 99 	98 	793
f 98 	794 	793
f 98 	102 	794
f 102 	795 	794
f 102 	101 	795
f 101 	796 	795
f 101 	104 	796
f 104 	797 	796
f 104 	103 	797
f 103 	798 	797
f 103 	510 	798
f 510 	1204 	798
f 510 	492 	1204
f 492 	1186 	1204
f 492 	107 	1186
f 107 	799 	1186
f 107 	106 	799
f 106 	800 	799
f 106 	105 	800
f 105 	801 	800
f 105 	109 	801
f 109 	802 	801
f 109 	108 	802
f 108 	803 	802
f 108 	111 	803
f 111 	804 	803
f 111 	110 	804
f 110 	805 	804
f 110 	113 	805
f 113 	806 	805
f 113 	112 	806
f 112 	807 	806
f 112 	115 	807
f 115 	808 	807
f 115 	114 	808
f 114 	809 	808
f 114 	117 	809
f 117 	810 	809
f 117 	116 	810
f 116 	811 	810
f 116 	120 	811
f 120 	812 	811
f 120 	119 	812
f 119 	813 	812
f 119 	118 	813
f 118 	814 	813
f 118 	122 	814
f 122 	815 	814
f 122 	121 	815
f 121 	816 	815
f 121 	124 	816
f 124 	817 	816
f 124 	123 	817
f 123 	818 	817
f 123 	126 	818
f 126 	819 	818
f 126 	125 	819
f 125 	820 	819
f 125 	128 	820
f 128 	821 	820
f 128 	127 	821
f 127 	822 	821
f 127 	130 	822
f 130 	823 	822
f 130 	129 	823
f 129 	824 	823
f 129 	132 	824
f 132 	825 	824
f 132 	131 	825
f 131 	826 	825
f 131 	134 	826
f 134 	827 	826
f 134 	133 	827
f 133 	828 	827
f 133 	456 	828
f 456 	1150 	828
f 456 	137 	1150
f 137 	829 	1150
f 137 	136 	829
f 136 	830 	829
f 136 	135 	830
f 135 	831 	830
f 135 	139 	831
f 139 	832 	831
f 139 	138 	832
f 138 	833 	832
f 138 	141 	833
f 141 	834 	833
f 141 	140 	834
f 140 	835 	834
f 140 	143 	835
f 143 	836 	835
f 143 	142 	836
f 142 	837 	836
f 142 	457 	837
f 457 	1151 	837
f 457 	146 	1151
f 146 	838 	1151
f 146 	145 	838
f 145 	839 	838
f 145 	144 	839
f 144 	840 	839
f 144 	148 	840
f 148 	841 	840
f 148 	147 	841
f 147 	842 	841
f 147 	150 	842
f 150 	843 	842
f 150 	149 	843
f 149 	844 	843
f 149 	152 	844
f 152 	845 	844
f 152 	151 	845
f 151 	846 	845
f 151 	154 	846
f 154 	847 	846
f 154 	153 	847
f 153 	848 	847
f 153 	156 	848
f 156 	849 	848
f 156 	155 	849
f 155 	850 	849
f 155 	158 	850
f 158 	851 	850
f 158 	157 	851
f 157 	852 	851
f 157 	160 	852
f 160 	853 	852
f 160 	159 	853
f 159 	854 	853
f 159 	162 	854
f 162 	855 	854
f 162 	161 	855
f 161 	856 	855
f 161 	164 	856
f 164 	857 	856
f 164 	163 	857
f 163 	858 	857
f 163 	458 	858
f 458 	1152 	858
f 458 	679 	1152
f 679 	1373 	1152
f 679 	529 	1373
f 529 	1223 	1373
f 529 	511 	1223
f 511 	1205 	1223
f 511 	459 	1205
f 459 	1153 	1205
f 459 	167 	1153
f 167 	859 	1153
f 167 	166 	859
f 166 	860 	859
f 166 	165 	860
f 165 	861 	860
f 165 	169 	861
f 169 	862 	861
f 169 	168 	862
f 168 	863 	862
f 168 	171 	863
f 171 	864 	863
f 171 	170 	864
f 170 	865 	864
f 170 	173 	865
f 173 	866 	865
f 173 	172 	866
f 172 	867 	866
f 172 	175 	867
f 175 	868 	867
f 175 	174 	868
f 174 	869 	868
f 174 	177 	869
f 177 	870 	869
f 177 	176 	870
f 176 	871 	870
f 176 	179 	871
f 179 	872 	871
f 179 	178 	872
f 178 	873 	872
f 178 	181 	873
f 181 	874 	873
f 181 	180 	874
f 180 	875 	874
f 180 	183 	875
f 183 	876 	875
f 183 	182 	876
f 182 	877 	876
f 182 	185 	877
f 185 	878 	877
f 185 	184 	878
f 184 	879 	878
f 184 	187 	879
f 187 	880 	879
f 187 	186 	880
f 186 	881 	880
f 186 	460 	881
f 460 	1154 	881
f 460 	190 	1154
f 190 	882 	1154
f 190 	189 	882
f 189 	883 	882
f 189 	188 	883
f 188 	884 	883
f 188 	493 	884
f 493 	1187 	884
f 493 	545 	1187
f 545 	1239 	1187
f 545 	557 	1239
f 557 	1251 	1239
f 557 	625 	1251
f 625 	1319 	1251
f 625 	618 	1319
f 618 	1312 	1319
f 618 	615 	1312
f 615 	1309 	1312
f 615 	612 	1309
f 612 	1306 	1309
f 612 	608 	1306
f 608 	1302 	1306
f 608 	604 	1302
f 604 	1298 	1302
f 604 	599 	1298
f 599 	1293 	1298
f 599 	594 	1293
f 594 	1288 	1293
f 594 	589 	1288
f 589 	1283 	1288
f 589 	585 	1283
f 585 	1279 	1283
f 585 	580 	1279
f 580 	1274 	1279
f 580 	461 	1274
f 461 	1155 	1274
f 461 	193 	1155
f 193 	885 	1155
f 193 	192 	885
f 192 	886 	885
f 192 	191 	886
f 191 	887 	886
f 191 	195 	887
f 195 	888 	887
f 195 	194 	888
f 194 	889 	888
f 194 	197 	889
f 197 	890 	889
f 197 	196 	890
f 196 	891 	890
f 196 	199 	891
f 199 	892 	891
f 199 	198 	892
f 198 	893 	892
f 198 	201 	893
f 201 	894 	893
f 201 	200 	894
f 200 	895 	894
f 200 	203 	895
f 203 	896 	895
f 203 	202 	896
f 202 	897 	896
f 202 	208 	897
f 208 	901 	897
f 208 	207 	901
f 207 	902 	901
f 207 	210 	902
f 210 	903 	902
f 210 	209 	903
f 209 	904 	903
f 209 	212 	904
f 212 	905 	904
f 212 	211 	905
f 211 	906 	905
f 211 	463 	906
f 463 	1157 	906
f 463 	547 	1157
f 547 	1241 	1157
f 547 	548 	1241
f 548 	1242 	1241
f 548 	531 	1242
f 531 	1225 	1242
f 531 	215 	1225
f 215 	907 	1225
f 215 	214 	907
f 214 	908 	907
f 214 	213 	908
f 213 	909 	908
f 213 	217 	909
f 217 	910 	909
f 217 	216 	910
f 216 	911 	910
f 216 	219 	911
f 219 	912 	911
f 219 	218 	912
f 218 	913 	912
f 218 	221 	913
f 221 	914 	913
f 221 	220 	914
f 220 	915 	914
f 220 	223 	915
f 223 	916 	915
f 223 	438 	916
f 438 	1131 	916
f 438 	437 	1131
f 437 	1132 	1131
f 437 	440 	1132
f 440 	1133 	1132
f 440 	439 	1133
f 439 	1134 	1133
f 439 	442 	1134
f 442 	1135 	1134
f 442 	441 	1135
f 441 	1136 	1135
f 441 	444 	1136
f 444 	1137 	1136
f 444 	443 	1137
f 443 	1138 	1137
f 443 	446 	1138
f 446 	1139 	1138
f 446 	445 	1139
f 445 	1140 	1139
f 688 	687 	1382
f 687 	1381 	1382
f 687 	689 	1381
f 689 	1383 	1381
f 689 	691 	1383
f 691 	1385 	1383
f 691 	694 	1385
f 694 	1388 	1385
f 694 	693 	1388
f 693 	1387 	1388
f 693 	692 	1387
f 692 	1386 	1387
f 692 	690 	1386
f 690 	1384 	1386
f 690 	688 	1384
f 688 	1382 	1384
f 530 	546 	1224
f 546 	1240 	1224
f 546 	564 	1240
f 564 	1258 	1240
f 564 	570 	1258
f 570 	1264 	1258
f 570 	573 	1264
f 573 	1267 	1264
f 573 	513 	1267
f 513 	1207 	1267
f 513 	494 	1207
f 494 	1188 	1207
f 494 	462 	1188
f 462 	1156 	1188
f 462 	206 	1156
f 206 	900 	1156
f 206 	205 	900
f 205 	898 	900
f 205 	204 	898
f 204 	899 	898
f 204 	512 	899
f 512 	1206 	899
f 512 	530 	1206
f 530 	1224 	1206
f 572 	574 	1266
f 574 	1268 	1266
f 574 	577 	1268
f 577 	1271 	1268
f 577 	581 	1271
f 581 	1275 	1271
f 581 	590 	1275
f 590 	1284 	1275
f 590 	595 	1284
f 595 	1289 	1284
f 595 	600 	1289
f 600 	1294 	1289
f 600 	605 	1294
f 605 	1299 	1294
f 605 	609 	1299
f 609 	1303 	1299
f 609 	613 	1303
f 613 	1307 	1303
f 613 	616 	1307
f 616 	1310 	1307
f 616 	619 	1310
f 619 	1313 	1310
f 619 	622 	1313
f 622 	1316 	1313
f 622 	626 	1316
f 626 	1320 	1316
f 626 	629 	1320
f 629 	1323 	1320
f 629 	632 	1323
f 632 	1326 	1323
f 632 	630 	1326
f 630 	1324 	1326
f 630 	627 	1324
f 627 	1321 	1324
f 627 	623 	1321
f 623 	1317 	1321
f 623 	620 	1317
f 620 	1314 	1317
f 620 	617 	1314
f 617 	1311 	1314
f 617 	614 	1311
f 614 	1308 	1311
f 614 	610 	1308
f 610 	1304 	1308
f 610 	606 	1304
f 606 	1300 	1304
f 606 	601 	1300
f 601 	1295 	1300
f 601 	596 	1295
f 596 	1290 	1295
f 596 	591 	1290
f 591 	1285 	1290
f 591 	586 	1285
f 586 	1280 	1285
f 586 	582 	1280
f 582 	1276 	1280
f 582 	578 	1276
f 578 	1272 	1276
f 578 	575 	1272
f 575 	1269 	1272
f 575 	568 	1269
f 568 	1262 	1269
f 568 	561 	1262
f 561 	1255 	1262
f 561 	553 	1255
f 553 	1247 	1255
f 553 	539 	1247
f 539 	1233 	1247
f 539 	523 	1233
f 523 	1217 	1233
f 523 	503 	1217
f 503 	1197 	1217
f 503 	478 	1197
f 478 	1172 	1197
f 478 	365 	1172
f 365 	1059 	1172
f 365 	364 	1059
f 364 	1057 	1059
f 364 	363 	1057
f 363 	1058 	1057
f 363 	502 	1058
f 502 	1196 	1058
f 502 	538 	1196
f 538 	1232 	1196
f 538 	552 	1232
f 552 	1246 	1232
f 552 	560 	1246
f 560 	1254 	1246
f 560 	567 	1254
f 567 	1261 	1254
f 567 	572 	1261
f 572 	1266 	1261
f 542 	643 	1236
f 643 	1337 	1236
f 643 	641 	1337
f 641 	1335 	1337
f 641 	639 	1335
f 639 	1333 	1335
f 639 	636 	1333
f 636 	1330 	1333
f 636 	634 	1330
f 634 	1328 	1330
f 634 	633 	1328
f 633 	1327 	1328
f 633 	631 	1327
f 631 	1325 	1327
f 631 	628 	1325
f 628 	1322 	1325
f 628 	624 	1322
f 624 	1318 	1322
f 624 	621 	1318
f 621 	1315 	1318
f 621 	414 	1315
f 414 	1106 	1315
f 414 	413 	1106
f 413 	1107 	1106
f 413 	412 	1107
f 412 	1108 	1107
f 412 	416 	1108
f 416 	1109 	1108
f 416 	415 	1109
f 415 	1110 	1109
f 415 	418 	1110
f 418 	1111 	1110
f 418 	417 	1111
f 417 	1112 	1111
f 417 	420 	1112
f 420 	1113 	1112
f 420 	419 	1113
f 419 	1114 	1113
f 419 	422 	1114
f 422 	1115 	1114
f 422 	421 	1115
f 421 	1116 	1115
f 421 	424 	1116
f 424 	1117 	1116
f 424 	423 	1117
f 423 	1118 	1117
f 423 	426 	1118
f 426 	1119 	1118
f 426 	425 	1119
f 425 	1120 	1119
f 425 	482 	1120
f 482 	1176 	1120
f 482 	526 	1176
f 526 	1220 	1176
f 526 	563 	1220
f 563 	1257 	1220
f 563 	556 	1257
f 556 	1250 	1257
f 556 	543 	1250
f 543 	1237 	1250
f 543 	483 	1237
f 483 	1177 	1237
f 483 	429 	1177
f 429 	1121 	1177
f 429 	428 	1121
f 428 	1122 	1121
f 428 	427 	1122
f 427 	1123 	1122
f 427 	431 	1123
f 431 	1124 	1123
f 431 	430 	1124
f 430 	1125 	1124
f 430 	433 	1125
f 433 	1126 	1125
f 433 	432 	1126
f 432 	1127 	1126
f 432 	435 	1127
f 435 	1128 	1127
f 435 	434 	1128
f 434 	1129 	1128
f 434 	484 	1129
f 484 	1178 	1129
f 484 	544 	1178
f 544 	1238 	1178
f 544 	508 	1238
f 508 	1202 	1238
f 508 	485 	1202
f 485 	1179 	1202
f 485 	436 	1179
f 436 	1130 	1179
f 436 	222 	1130
f 222 	917 	1130
f 222 	464 	917
f 464 	1158 	917
f 464 	495 	1158
f 495 	1189 	1158
f 495 	465 	1189
f 465 	1159 	1189
f 465 	226 	1159
f 226 	918 	1159
f 226 	225 	918
f 225 	919 	918
f 225 	224 	919
f 224 	920 	919
f 224 	228 	920
f 228 	921 	920
f 228 	227 	921
f 227 	922 	921
f 227 	496 	922
f 496 	1190 	922
f 496 	231 	1190
f 231 	923 	1190
f 231 	230 	923
f 230 	924 	923
f 230 	229 	924
f 229 	925 	924
f 229 	233 	925
f 233 	926 	925
f 233 	232 	926
f 232 	927 	926
f 232 	235 	927
f 235 	928 	927
f 235 	234 	928
f 234 	929 	928
f 234 	237 	929
f 237 	930 	929
f 237 	236 	930
f 236 	931 	930
f 236 	239 	931
f 239 	932 	931
f 239 	238 	932
f 238 	933 	932
f 238 	241 	933
f 241 	934 	933
f 241 	240 	934
f 240 	935 	934
f 240 	243 	935
f 243 	936 	935
f 243 	242 	936
f 242 	937 	936
f 242 	245 	937
f 245 	938 	937
f 245 	244 	938
f 244 	939 	938
f 244 	247 	939
f 247 	940 	939
f 247 	246 	940
f 246 	941 	940
f 246 	466 	941
f 466 	1160 	941
f 466 	514 	1160
f 514 	1208 	1160
f 514 	467 	1208
f 467 	1161 	1208
f 467 	250 	1161
f 250 	942 	1161
f 250 	249 	942
f 249 	943 	942
f 249 	248 	943
f 248 	944 	943
f 248 	252 	944
f 252 	945 	944
f 252 	251 	945
f 251 	946 	945
f 251 	254 	946
f 254 	947 	946
f 254 	253 	947
f 253 	948 	947
f 253 	256 	948
f 256 	949 	948
f 256 	255 	949
f 255 	950 	949
f 255 	258 	950
f 258 	951 	950
f 258 	257 	951
f 257 	952 	951
f 257 	260 	952
f 260 	953 	952
f 260 	259 	953
f 259 	954 	953
f 259 	468 	954
f 468 	1162 	954
f 468 	686 	1162
f 686 	1380 	1162
f 686 	685 	1380
f 685 	1379 	1380
f 685 	684 	1379
f 684 	1378 	1379
f 684 	683 	1378
f 683 	1377 	1378
f 683 	682 	1377
f 682 	1376 	1377
f 682 	681 	1376
f 681 	1375 	1376
f 681 	680 	1375
f 680 	1374 	1375
f 680 	549 	1374
f 549 	1243 	1374
f 549 	532 	1243
f 532 	1226 	1243
f 532 	469 	1226
f 469 	1163 	1226
f 469 	263 	1163
f 263 	955 	1163
f 263 	262 	955
f 262 	956 	955
f 262 	261 	956
f 261 	957 	956
f 261 	265 	957
f 265 	958 	957
f 265 	264 	958
f 264 	959 	958
f 264 	267 	959
f 267 	960 	959
f 267 	266 	960
f 266 	961 	960
f 266 	269 	961
f 269 	962 	961
f 269 	268 	962
f 268 	963 	962
f 268 	271 	963
f 271 	964 	963
f 271 	270 	964
f 270 	965 	964
f 270 	273 	965
f 273 	966 	965
f 273 	272 	966
f 272 	967 	966
f 272 	275 	967
f 275 	968 	967
f 275 	274 	968
f 274 	969 	968
f 274 	533 	969
f 533 	1227 	969
f 533 	497 	1227
f 497 	1191 	1227
f 497 	278 	1191
f 278 	970 	1191
f 278 	277 	970
f 277 	971 	970
f 277 	276 	971
f 276 	972 	971
f 276 	470 	972
f 470 	1164 	972
f 470 	515 	1164
f 515 	1209 	1164
f 515 	678 	1209
f 678 	1372 	1209
f 678 	677 	1372
f 677 	1371 	1372
f 677 	676 	1371
f 676 	1370 	1371
f 676 	675 	1370
f 675 	1369 	1370
f 675 	674 	1369
f 674 	1368 	1369
f 674 	673 	1368
f 673 	1367 	1368
f 673 	672 	1367
f 672 	1366 	1367
f 672 	671 	1366
f 671 	1365 	1366
f 671 	670 	1365
f 670 	1364 	1365
f 670 	565 	1364
f 565 	1259 	1364
f 565 	558 	1259
f 558 	1252 	1259
f 558 	534 	1252
f 534 	1228 	1252
f 534 	516 	1228
f 516 	1210 	1228
f 516 	471 	1210
f 471 	1165 	1210
f 471 	281 	1165
f 281 	973 	1165
f 281 	280 	973
f 280 	974 	973
f 280 	279 	974
f 279 	975 	974
f 279 	283 	975
f 283 	976 	975
f 283 	282 	976
f 282 	977 	976
f 282 	285 	977
f 285 	978 	977
f 285 	284 	978
f 284 	979 	978
f 284 	287 	979
f 287 	980 	979
f 287 	286 	980
f 286 	981 	980
f 286 	289 	981
f 289 	982 	981
f 289 	288 	982
f 288 	983 	982
f 288 	498 	983
f 498 	1192 	983
f 498 	517 	1192
f 517 	1211 	1192
f 517 	535 	1211
f 535 	1229 	1211
f 535 	669 	1229
f 669 	1363 	1229
f 669 	668 	1363
f 668 	1362 	1363
f 668 	667 	1362
f 667 	1361 	1362
f 667 	566 	1361
f 566 	1260 	1361
f 566 	536 	1260
f 536 	1230 	1260
f 536 	472 	1230
f 472 	1166 	1230
f 472 	292 	1166
f 292 	984 	1166
f 292 	291 	984
f 291 	985 	984
f 291 	290 	985
f 290 	986 	985
f 290 	294 	986
f 294 	987 	986
f 294 	293 	987
f 293 	988 	987
f 293 	473 	988
f 473 	1167 	988
f 473 	518 	1167
f 518 	1212 	1167
f 518 	550 	1212
f 550 	1244 	1212
f 550 	559 	1244
f 559 	1253 	1244
f 559 	571 	1253
f 571 	1265 	1253
f 571 	666 	1265
f 666 	1360 	1265
f 666 	665 	1360
f 665 	1359 	1360
f 665 	664 	1359
f 664 	1358 	1359
f 664 	663 	1358
f 663 	1357 	1358
f 663 	662 	1357
f 662 	1356 	1357
f 662 	519 	1356
f 519 	1213 	1356
f 519 	499 	1213
f 499 	1193 	1213
f 499 	297 	1193
f 297 	989 	1193
f 297 	296 	989
f 296 	990 	989
f 296 	295 	990
f 295 	991 	990
f 295 	299 	991
f 299 	992 	991
f 299 	298 	992
f 298 	993 	992
f 298 	301 	993
f 301 	994 	993
f 301 	300 	994
f 300 	995 	994
f 300 	303 	995
f 303 	996 	995
f 303 	302 	996
f 302 	997 	996
f 302 	305 	997
f 305 	998 	997
f 305 	304 	998
f 304 	999 	998
f 304 	307 	999
f 307 	1000 	999
f 307 	306 	1000
f 306 	1001 	1000
f 306 	520 	1001
f 520 	1214 	1001
f 520 	537 	1214
f 537 	1231 	1214
f 537 	551 	1231
f 551 	1245 	1231
f 551 	500 	1245
f 500 	1194 	1245
f 500 	310 	1194
f 310 	1002 	1194
f 310 	309 	1002
f 309 	1003 	1002
f 309 	308 	1003
f 308 	1004 	1003
f 308 	312 	1004
f 312 	1005 	1004
f 312 	311 	1005
f 311 	1006 	1005
f 311 	521 	1006
f 521 	1215 	1006
f 521 	661 	1215
f 661 	1355 	1215
f 661 	660 	1355
f 660 	1354 	1355
f 660 	501 	1354
f 501 	1195 	1354
f 501 	315 	1195
f 315 	1007 	1195
f 315 	314 	1007
f 314 	1008 	1007
f 314 	313 	1008
f 313 	1009 	1008
f 313 	317 	1009
f 317 	1010 	1009
f 317 	316 	1010
f 316 	1011 	1010
f 316 	319 	1011
f 319 	1012 	1011
f 319 	318 	1012
f 318 	1013 	1012
f 318 	321 	1013
f 321 	1014 	1013
f 321 	320 	1014
f 320 	1015 	1014
f 320 	323 	1015
f 323 	1016 	1015
f 323 	322 	1016
f 322 	1017 	1016
f 322 	474 	1017
f 474 	1168 	1017
f 474 	475 	1168
f 475 	1169 	1168
f 475 	326 	1169
f 326 	1018 	1169
f 326 	325 	1018
f 325 	1019 	1018
f 325 	324 	1019
f 324 	1020 	1019
f 324 	328 	1020
f 328 	1021 	1020
f 328 	327 	1021
f 327 	1022 	1021
f 327 	330 	1022
f 330 	1023 	1022
f 330 	329 	1023
f 329 	1024 	1023
f 329 	332 	1024
f 332 	1025 	1024
f 332 	331 	1025
f 331 	1026 	1025
f 331 	476 	1026
f 476 	1170 	1026
f 476 	335 	1170
f 335 	1027 	1170
f 335 	334 	1027
f 334 	1028 	1027
f 334 	333 	1028
f 333 	1029 	1028
f 333 	337 	1029
f 337 	1030 	1029
f 337 	336 	1030
f 336 	1031 	1030
f 336 	522 	1031
f 522 	1216 	1031
f 522 	642 	1216
f 642 	1336 	1216
f 642 	640 	1336
f 640 	1334 	1336
f 640 	638 	1334
f 638 	1332 	1334
f 638 	637 	1332
f 637 	1331 	1332
f 637 	635 	1331
f 635 	1329 	1331
f 635 	477 	1329
f 477 	1171 	1329
f 477 	340 	1171
f 340 	1032 	1171
f 340 	339 	1032
f 339 	1033 	1032
f 339 	338 	1033
f 338 	1034 	1033
f 338 	342 	1034
f 342 	1035 	1034
f 342 	341 	1035
f 341 	1036 	1035
f 341 	344 	1036
f 344 	1037 	1036
f 344 	343 	1037
f 343 	1038 	1037
f 343 	346 	1038
f 346 	1039 	1038
f 346 	345 	1039
f 345 	1040 	1039
f 345 	348 	1040
f 348 	1041 	1040
f 348 	347 	1041
f 347 	1042 	1041
f 347 	350 	1042
f 350 	1043 	1042
f 350 	349 	1043
f 349 	1044 	1043
f 349 	352 	1044
f 352 	1045 	1044
f 352 	351 	1045
f 351 	1046 	1045
f 351 	354 	1046
f 354 	1047 	1046
f 354 	353 	1047
f 353 	1048 	1047
f 353 	356 	1048
f 356 	1049 	1048
f 356 	355 	1049
f 355 	1050 	1049
f 355 	358 	1050
f 358 	1051 	1050
f 358 	357 	1051
f 357 	1052 	1051
f 357 	360 	1052
f 360 	1053 	1052
f 360 	359 	1053
f 359 	1054 	1053
f 359 	362 	1054
f 362 	1055 	1054
f 362 	361 	1055
f 361 	1056 	1055
f 361 	367 	1056
f 367 	1060 	1056
f 367 	366 	1060
f 366 	1061 	1060
f 366 	369 	1061
f 369 	1062 	1061
f 369 	368 	1062
f 368 	1063 	1062
f 368 	371 	1063
f 371 	1064 	1063
f 371 	370 	1064
f 370 	1065 	1064
f 370 	373 	1065
f 373 	1066 	1065
f 373 	372 	1066
f 372 	1067 	1066
f 372 	375 	1067
f 375 	1068 	1067
f 375 	374 	1068
f 374 	1069 	1068
f 374 	377 	1069
f 377 	1070 	1069
f 377 	376 	1070
f 376 	1071 	1070
f 376 	379 	1071
f 379 	1072 	1071
f 379 	378 	1072
f 378 	1073 	1072
f 378 	381 	1073
f 381 	1074 	1073
f 381 	380 	1074
f 380 	1075 	1074
f 380 	383 	1075
f 383 	1076 	1075
f 383 	382 	1076
f 382 	1077 	1076
f 382 	385 	1077
f 385 	1078 	1077
f 385 	384 	1078
f 384 	1079 	1078
f 384 	504 	1079
f 504 	1198 	1079
f 504 	644 	1198
f 644 	1338 	1198
f 644 	645 	1338
f 645 	1339 	1338
f 645 	646 	1339
f 646 	1340 	1339
f 646 	647 	1340
f 647 	1341 	1340
f 647 	658 	1341
f 658 	1352 	1341
f 658 	657 	1352
f 657 	1351 	1352
f 657 	656 	1351
f 656 	1350 	1351
f 656 	655 	1350
f 655 	1349 	1350
f 655 	654 	1349
f 654 	1348 	1349
f 654 	653 	1348
f 653 	1347 	1348
f 653 	652 	1347
f 652 	1346 	1347
f 652 	651 	1346
f 651 	1345 	1346
f 651 	650 	1345
f 650 	1344 	1345
f 650 	649 	1344
f 649 	1343 	1344
f 649 	597 	1343
f 597 	1291 	1343
f 597 	579 	1291
f 579 	1273 	1291
f 579 	576 	1273
f 576 	1270 	1273
f 576 	388 	1270
f 388 	1080 	1270
f 388 	387 	1080
f 387 	1081 	1080
f 387 	386 	1081
f 386 	1082 	1081
f 386 	479 	1082
f 479 	1173 	1082
f 479 	505 	1173
f 505 	1199 	1173
f 505 	554 	1199
f 554 	1248 	1199
f 554 	540 	1248
f 540 	1234 	1248
f 540 	506 	1234
f 506 	1200 	1234
f 506 	391 	1200
f 391 	1083 	1200
f 391 	390 	1083
f 390 	1084 	1083
f 390 	389 	1084
f 389 	1085 	1084
f 389 	393 	1085
f 393 	1086 	1085
f 393 	392 	1086
f 392 	1087 	1086
f 392 	395 	1087
f 395 	1088 	1087
f 395 	394 	1088
f 394 	1089 	1088
f 394 	397 	1089
f 397 	1090 	1089
f 397 	396 	1090
f 396 	1091 	1090
f 396 	507 	1091
f 507 	1201 	1091
f 507 	569 	1201
f 569 	1263 	1201
f 569 	583 	1263
f 583 	1277 	1263
f 583 	587 	1277
f 587 	1281 	1277
f 587 	592 	1281
f 592 	1286 	1281
f 592 	602 	1286
f 602 	1296 	1286
f 602 	648 	1296
f 648 	1342 	1296
f 648 	562 	1342
f 562 	1256 	1342
f 562 	555 	1256
f 555 	1249 	1256
f 555 	541 	1249
f 541 	1235 	1249
f 541 	524 	1235
f 524 	1218 	1235
f 524 	400 	1218
f 400 	1092 	1218
f 400 	399 	1092
f 399 	1093 	1092
f 399 	398 	1093
f 398 	1094 	1093
f 398 	402 	1094
f 402 	1095 	1094
f 402 	401 	1095
f 401 	1096 	1095
f 401 	404 	1096
f 404 	1097 	1096
f 404 	403 	1097
f 403 	1098 	1097
f 403 	406 	1098
f 406 	1099 	1098
f 406 	405 	1099
f 405 	1100 	1099
f 405 	525 	1100
f 525 	1219 	1100
f 525 	480 	1219
f 480 	1174 	1219
f 480 	409 	1174
f 409 	1101 	1174
f 409 	408 	1101
f 408 	1102 	1101
f 408 	407 	1102
f 407 	1103 	1102
f 407 	411 	1103
f 411 	1104 	1103
f 411 	410 	1104
f 410 	1105 	1104
f 410 	481 	1105
f 481 	1175 	1105
f 481 	542 	1175
f 542 	1236 	1175
# 2788 faces

 #end of obj_0

